<svg width="48" height="49" viewBox="0 0 48 49" fill="none" xmlns="http://www.w3.org/2000/svg">
<path opacity="0.2" d="M16.405 26.8806L9.00651 27.5349C7.34617 27.5349 6 26.1756 6 24.4991C6 22.8226 7.34617 21.4633 9.00651 21.4633L16.405 22.1176C17.7075 22.1176 18.7635 23.1839 18.7635 24.4991C18.7635 25.8165 17.7075 26.8806 16.405 26.8806Z" fill="#F8A81B"/>
<path d="M41.2494 26.7603C41.1338 26.8771 40.7018 27.3706 40.296 27.7803C37.9288 30.3469 31.7477 34.5437 28.5143 35.8281C28.0234 36.033 26.782 36.4692 26.1165 36.5C25.4816 36.5 24.8751 36.3524 24.2969 36.0616C23.5747 35.654 22.9988 35.0107 22.6802 34.2529C22.4773 33.7286 22.1588 32.1534 22.1588 32.1247C21.8424 30.4042 21.67 27.6063 21.67 24.5132C21.67 21.5699 21.8424 18.8866 22.102 17.1374C22.1304 17.1066 22.4489 15.1525 22.7958 14.4827C23.4307 13.2578 24.6722 12.5 26.0009 12.5H26.1165C26.9827 12.5286 28.8023 13.2887 28.8023 13.3151C31.8634 14.5995 37.8982 18.5936 40.3244 21.2483C40.3244 21.2483 41.0094 21.9312 41.3062 22.3564C41.7687 22.9689 42 23.7267 42 24.4846C42 25.3305 41.7403 26.117 41.2494 26.7603Z" fill="#F8A81B"/>
</svg>
