<svg width="48" height="48" viewBox="0 0 48 48" fill="none" xmlns="http://www.w3.org/2000/svg">
<path opacity="0.2" d="M31.595 21.6194L38.9935 20.9651C40.6538 20.9651 42 22.3244 42 24.0009C42 25.6774 40.6538 27.0367 38.9935 27.0367L31.595 26.3824C30.2925 26.3824 29.2365 25.3161 29.2365 24.0009C29.2365 22.6835 30.2925 21.6194 31.595 21.6194Z" fill="#F8A81B"/>
<path d="M6.75056 21.7397C6.86619 21.6229 7.29819 21.1294 7.704 20.7197C10.0712 18.1531 16.2523 13.9563 19.4857 12.6719C19.9766 12.467 21.218 12.0308 21.8835 12C22.5184 12 23.1249 12.1476 23.7031 12.4384C24.4253 12.846 25.0012 13.4893 25.3198 14.2471C25.5227 14.7714 25.8412 16.3466 25.8412 16.3753C26.1576 18.0958 26.33 20.8937 26.33 23.9868C26.33 26.9301 26.1576 29.6134 25.898 31.3626C25.8696 31.3934 25.5511 33.3475 25.2042 34.0173C24.5693 35.2422 23.3278 36 21.9991 36H21.8835C21.0173 35.9714 19.1977 35.2113 19.1977 35.1849C16.1366 33.9005 10.1018 29.9064 7.67564 27.2517C7.67564 27.2517 6.99056 26.5688 6.69383 26.1436C6.23129 25.5311 6.00002 24.7733 6.00002 24.0154C6.00002 23.1695 6.25966 22.383 6.75056 21.7397Z" fill="#F8A81B"/>
</svg>
