<svg width="25" height="25" viewBox="0 0 25 25" fill="none" xmlns="http://www.w3.org/2000/svg">
<path opacity="0.2" d="M11.7034 8.70248L11.3762 5.00325C11.3762 4.17308 12.0559 3.5 12.8941 3.5C13.7324 3.5 14.412 4.17308 14.412 5.00325L14.0849 8.70248C14.0849 9.35375 13.5517 9.88174 12.8941 9.88174C12.2354 9.88174 11.7034 9.35375 11.7034 8.70248Z" fill="#E3168F"/>
<path d="M11.7635 21.1247C11.7051 21.0668 11.4584 20.8508 11.2535 20.6479C9.97023 19.4643 7.87183 16.3738 7.22964 14.7571C7.1272 14.5116 6.9091 13.8909 6.89368 13.5582C6.89368 13.2408 6.96748 12.9375 7.11288 12.6484C7.31666 12.2873 7.63831 11.9993 8.01723 11.84C8.27939 11.7386 9.06698 11.5793 9.0813 11.5793C9.94159 11.4211 11.3405 11.335 12.8871 11.335C14.3587 11.335 15.7004 11.4211 16.575 11.551C16.5904 11.5651 17.5674 11.7244 17.9023 11.8979C18.5148 12.2153 18.8937 12.836 18.8937 13.5004V13.5582C18.8794 13.9913 18.4993 14.9011 18.4861 14.9011C17.8439 16.4316 15.8469 19.449 14.5195 20.6621C14.5195 20.6621 14.1781 21.0047 13.9655 21.153C13.6592 21.3843 13.2803 21.4999 12.9014 21.4999C12.4784 21.4999 12.0852 21.3701 11.7635 21.1247Z" fill="#E3168F"/>
</svg>
