<svg width="25" height="25" viewBox="0 0 25 25" fill="none" xmlns="http://www.w3.org/2000/svg">
<path opacity="0.2" d="M14.084 16.2975L14.4111 19.9967C14.4111 20.8269 13.7315 21.5 12.8932 21.5C12.055 21.5 11.3753 20.8269 11.3753 19.9967L11.7025 16.2975C11.7025 15.6463 12.2356 15.1183 12.8932 15.1183C13.5519 15.1183 14.084 15.6463 14.084 16.2975Z" fill="#E3168F"/>
<path d="M14.0238 3.87534C14.0822 3.93316 14.329 4.14915 14.5338 4.35206C15.8171 5.53568 17.9155 8.62619 18.5577 10.2429C18.6602 10.4884 18.8783 11.1091 18.8937 11.4418C18.8937 11.7592 18.8199 12.0625 18.6745 12.3516C18.4707 12.7127 18.149 13.0007 17.7701 13.16C17.508 13.2614 16.7204 13.4207 16.7061 13.4207C15.8458 13.5789 14.4468 13.665 12.9003 13.665C11.4286 13.665 10.087 13.5789 9.21238 13.449C9.19696 13.4349 8.21991 13.2756 7.88505 13.1021C7.2726 12.7847 6.89368 12.164 6.89368 11.4996V11.4418C6.908 11.0087 7.28802 10.0989 7.30124 10.0989C7.94343 8.56837 9.94049 5.55096 11.2678 4.33788C11.2678 4.33788 11.6093 3.99534 11.8219 3.84698C12.1281 3.61571 12.507 3.50007 12.886 3.50007C13.309 3.50007 13.7022 3.62989 14.0238 3.87534Z" fill="#E3168F"/>
</svg>
