<svg width="21" height="21" viewBox="0 0 21 21" fill="none" xmlns="http://www.w3.org/2000/svg">
<path d="M17.01 11.3749C16.8175 11.3749 16.6163 11.3137 16.4238 11.2699C16.0339 11.184 15.6509 11.07 15.2775 10.9287C14.8716 10.781 14.4254 10.7887 14.0248 10.9502C13.6242 11.1118 13.2975 11.4158 13.1075 11.8037L12.915 12.1974C12.0628 11.7234 11.2796 11.1345 10.5875 10.4474C9.90045 9.75534 9.31162 8.97219 8.83753 8.11995L9.20503 7.87495C9.59297 7.685 9.89696 7.35828 10.0585 6.95768C10.22 6.55707 10.2277 6.11087 10.08 5.70495C9.9411 5.33082 9.8271 4.94789 9.73878 4.5587C9.69503 4.3662 9.66003 4.16495 9.63378 3.9637C9.52752 3.34736 9.2047 2.78922 8.72345 2.38978C8.24219 1.99034 7.63414 1.77585 7.00878 1.78495H4.38378C4.00668 1.7814 3.63325 1.85916 3.2889 2.01291C2.94455 2.16666 2.63737 2.3928 2.38828 2.67594C2.13918 2.95908 1.95402 3.29257 1.84539 3.6537C1.73676 4.01483 1.70722 4.39512 1.75878 4.7687C2.22492 8.4344 3.89905 11.8403 6.51672 14.4485C9.13439 17.0567 12.5464 18.7184 16.2138 19.1712H16.5463C17.1915 19.1721 17.8145 18.9354 18.2963 18.5062C18.5731 18.2586 18.7942 17.9551 18.9451 17.6157C19.0959 17.2763 19.173 16.9088 19.1713 16.5374V13.9124C19.1606 13.3047 18.9392 12.7194 18.5451 12.2567C18.1509 11.7939 17.6084 11.4822 17.01 11.3749ZM17.4475 16.6249C17.4474 16.7492 17.4208 16.872 17.3695 16.9851C17.3182 17.0983 17.2434 17.1992 17.15 17.2812C17.0525 17.3661 16.9383 17.4294 16.8146 17.4671C16.691 17.5048 16.5608 17.516 16.4325 17.4999C13.1556 17.0798 10.1117 15.5806 7.78115 13.239C5.45057 10.8973 3.96589 7.84637 3.56128 4.56745C3.54735 4.43927 3.55956 4.30961 3.59715 4.18629C3.63475 4.06297 3.69696 3.94855 3.78003 3.84995C3.86202 3.75661 3.96296 3.68181 4.07611 3.63051C4.18926 3.57921 4.31204 3.5526 4.43628 3.55245H7.06128C7.26475 3.54792 7.46345 3.61447 7.62315 3.74063C7.78286 3.8668 7.89359 4.04469 7.93628 4.2437C7.97128 4.48286 8.01503 4.71911 8.06753 4.95245C8.16861 5.4137 8.30313 5.86698 8.47003 6.3087L7.24503 6.87745C7.14029 6.9255 7.04607 6.99377 6.96779 7.07834C6.88951 7.16291 6.8287 7.26211 6.78886 7.37024C6.74903 7.47837 6.73094 7.59331 6.73564 7.70845C6.74035 7.82359 6.76775 7.93667 6.81628 8.0412C8.07558 10.7386 10.2439 12.9069 12.9413 14.1662C13.1543 14.2537 13.3932 14.2537 13.6063 14.1662C13.7154 14.1272 13.8157 14.0668 13.9013 13.9887C13.9869 13.9106 14.0562 13.8163 14.105 13.7112L14.6475 12.4862C15.0999 12.648 15.5615 12.7824 16.03 12.8887C16.2634 12.9412 16.4996 12.9849 16.7388 13.0199C16.9378 13.0626 17.1157 13.1734 17.2418 13.3331C17.368 13.4928 17.4346 13.6915 17.43 13.8949L17.4475 16.6249Z" fill="#333333"/>
</svg>
