<svg width="16" height="16" viewBox="0 0 16 16" fill="none" xmlns="http://www.w3.org/2000/svg">
<path d="M14.333 10C14.3315 9.59981 14.21 9.20926 13.9842 8.87886C13.7584 8.54846 13.4387 8.2934 13.0663 8.14667L14.313 3.48C14.3391 3.38061 14.3418 3.27655 14.321 3.17594C14.3001 3.07533 14.2564 2.98089 14.193 2.9C14.1283 2.8242 14.0473 2.76389 13.9562 2.72351C13.865 2.68313 13.766 2.66371 13.6663 2.66667H4.53301L4.31301 1.82667C4.27476 1.68461 4.19059 1.55919 4.07362 1.46996C3.95666 1.38072 3.81346 1.33269 3.66634 1.33333H2.33301V2.66667H3.15301L4.80634 8.84C4.84541 8.98544 4.93257 9.11337 5.05362 9.20295C5.17468 9.29253 5.3225 9.33849 5.47301 9.33333H12.333C12.5098 9.33333 12.6794 9.40357 12.8044 9.52859C12.9294 9.65362 12.9997 9.82319 12.9997 10C12.9997 10.1768 12.9294 10.3464 12.8044 10.4714C12.6794 10.5964 12.5098 10.6667 12.333 10.6667H3.66634C3.48953 10.6667 3.31996 10.7369 3.19494 10.8619C3.06991 10.987 2.99967 11.1565 2.99967 11.3333C2.99967 11.5101 3.06991 11.6797 3.19494 11.8047C3.31996 11.9298 3.48953 12 3.66634 12H4.45301C4.34336 12.3021 4.30813 12.6261 4.35029 12.9447C4.39246 13.2633 4.51077 13.5671 4.69522 13.8302C4.87967 14.0934 5.12482 14.3083 5.40991 14.4566C5.695 14.6049 6.01164 14.6823 6.33301 14.6823C6.65438 14.6823 6.97101 14.6049 7.25611 14.4566C7.5412 14.3083 7.78635 14.0934 7.9708 13.8302C8.15524 13.5671 8.27356 13.2633 8.31572 12.9447C8.35788 12.6261 8.32265 12.3021 8.21301 12H9.78634C9.68653 12.2751 9.6483 12.5687 9.67434 12.8601C9.70037 13.1516 9.79005 13.4338 9.93704 13.6868C10.084 13.9398 10.2847 14.1575 10.525 14.3245C10.7653 14.4915 11.0393 14.6037 11.3277 14.6533C11.6161 14.7029 11.9119 14.6885 12.1941 14.6113C12.4764 14.5341 12.7382 14.3959 12.9612 14.2064C13.1843 14.017 13.363 13.7809 13.4848 13.5149C13.6066 13.2488 13.6686 12.9593 13.6663 12.6667C13.6651 12.3222 13.5731 11.9842 13.3997 11.6867C13.6848 11.5069 13.9198 11.2581 14.083 10.9632C14.2461 10.6683 14.3321 10.337 14.333 10ZM11.7263 8H5.99967L4.89301 4H12.7997L11.7263 8ZM6.33301 13.3333C6.20115 13.3333 6.07226 13.2942 5.96263 13.221C5.85299 13.1477 5.76755 13.0436 5.71709 12.9218C5.66663 12.8 5.65343 12.6659 5.67915 12.5366C5.70487 12.4073 5.76837 12.2885 5.8616 12.1953C5.95484 12.102 6.07363 12.0385 6.20295 12.0128C6.33227 11.9871 6.46631 12.0003 6.58813 12.0507C6.70995 12.1012 6.81407 12.1867 6.88732 12.2963C6.96058 12.4059 6.99967 12.5348 6.99967 12.6667C6.99967 12.8435 6.92944 13.013 6.80441 13.1381C6.67939 13.2631 6.50982 13.3333 6.33301 13.3333ZM11.6663 13.3333C11.5345 13.3333 11.4056 13.2942 11.296 13.221C11.1863 13.1477 11.1009 13.0436 11.0504 12.9218C11 12.8 10.9868 12.6659 11.0125 12.5366C11.0382 12.4073 11.1017 12.2885 11.1949 12.1953C11.2882 12.102 11.407 12.0385 11.5363 12.0128C11.6656 11.9871 11.7996 12.0003 11.9215 12.0507C12.0433 12.1012 12.1474 12.1867 12.2207 12.2963C12.2939 12.4059 12.333 12.5348 12.333 12.6667C12.333 12.8435 12.2628 13.013 12.1377 13.1381C12.0127 13.2631 11.8432 13.3333 11.6663 13.3333Z" fill="white"/>
</svg>
