<svg width="1440" height="506" viewBox="0 0 1440 506" fill="none" xmlns="http://www.w3.org/2000/svg">
<g clip-path="url(#clip0)">
<rect width="1440" height="506" fill="#E7F8FB" fill-opacity="0.5"/>
<path d="M1206.02 247.793C1184.72 228.231 1162.23 253.776 1139.23 254.096C1111.66 254.485 1103.06 242.656 1085.64 223.998C1059.93 196.462 1033.29 160.815 991.681 161.901C879.935 164.83 883.253 298.461 944.033 360.42C983.467 400.597 1026.57 389.752 1076.44 394.877C1121.4 399.453 1192.29 436.324 1236.76 411.865C1276.37 390.072 1265.1 332.346 1226.46 316.399C1213.96 311.239 1206.63 299.342 1208.29 285.797C1209.83 273.064 1217.44 258.261 1206.02 247.793Z" fill="#407BFF"/>
<path opacity="0.9" d="M1206.02 247.793C1184.72 228.231 1162.23 253.776 1139.23 254.096C1111.66 254.485 1103.06 242.656 1085.64 223.998C1059.93 196.462 1033.29 160.815 991.681 161.901C879.935 164.83 883.253 298.461 944.033 360.42C983.467 400.597 1026.57 389.752 1076.44 394.877C1121.4 399.453 1192.29 436.324 1236.76 411.865C1276.37 390.072 1265.1 332.346 1226.46 316.399C1213.96 311.239 1206.63 299.342 1208.29 285.797C1209.83 273.064 1217.44 258.261 1206.02 247.793Z" fill="white"/>
<path d="M1007.17 525.179H971.123C969.764 525.179 968.46 524.639 967.499 523.677C966.538 522.716 965.998 521.413 965.998 520.053V457.236H1012.3V520.065C1012.29 521.422 1011.75 522.723 1010.79 523.681C1009.83 524.64 1008.53 525.179 1007.17 525.179Z" fill="#407BFF"/>
<path opacity="0.2" d="M1012.3 457.236H966.01V484.498L1012.3 474.465V457.236Z" fill="black"/>
<path d="M1032.21 374.823C1032.21 357.528 1039.08 340.942 1051.31 328.714C1063.54 316.485 1080.13 309.615 1097.42 309.615C1114.72 309.615 1131.3 316.485 1143.53 328.714C1155.76 340.942 1162.63 357.528 1162.63 374.823V457.191H1032.21V374.823Z" fill="#407BFF"/>
<path opacity="0.3" d="M1032.21 374.823C1032.21 357.528 1039.08 340.942 1051.31 328.714C1063.54 316.485 1080.13 309.615 1097.42 309.615C1114.72 309.615 1131.3 316.485 1143.53 328.714C1155.76 340.942 1162.63 357.528 1162.63 374.823V457.191H1032.21V374.823Z" fill="black"/>
<path d="M878.7 374.811V449.114C878.7 450.182 878.91 451.239 879.319 452.225C879.728 453.211 880.327 454.107 881.083 454.861C881.838 455.616 882.735 456.214 883.722 456.621C884.709 457.029 885.766 457.238 886.834 457.236H1032.21V374.811C1032.21 357.517 1039.08 340.931 1051.31 328.702C1063.54 316.473 1080.13 309.603 1097.42 309.603H943.908C926.613 309.603 910.028 316.473 897.799 328.702C885.57 340.931 878.7 357.517 878.7 374.811Z" fill="#407BFF"/>
<path opacity="0.2" d="M878.711 432.915H1032.22V410.035H878.711V432.915Z" fill="black"/>
<path opacity="0.2" d="M878.711 402.931H1032.22V380.051H878.711V402.931Z" fill="black"/>
<path d="M1041.83 305.599H1023.15V306.743H1041.83V305.599Z" fill="#407BFF"/>
<path d="M1013.36 305.599H1003.32V306.743H1013.36V305.599Z" fill="#407BFF"/>
<path d="M953.78 396.25V303.586C953.781 303.216 953.7 302.851 953.545 302.516C953.389 302.181 953.163 301.884 952.881 301.645C952.598 301.407 952.268 301.233 951.911 301.135C951.555 301.038 951.182 301.019 950.817 301.08L918.477 306.4V319.819H943.198V396.044C940.702 397.191 938.668 399.15 937.43 401.603C936.192 404.055 935.822 406.855 936.381 409.545C936.941 412.235 938.396 414.655 940.509 416.411C942.623 418.166 945.269 419.152 948.016 419.209C950.763 419.265 953.447 418.388 955.631 416.721C957.814 415.054 959.368 412.695 960.037 410.031C960.706 407.366 960.452 404.554 959.316 402.052C958.179 399.551 956.228 397.51 953.78 396.261V396.25Z" fill="#263238"/>
<path d="M1041.49 466.56H1208.79C1210.01 466.563 1211.18 466.084 1212.05 465.227C1212.92 464.37 1213.42 463.205 1213.43 461.984C1213.43 460.752 1212.94 459.571 1212.07 458.7C1211.2 457.829 1210.02 457.339 1208.79 457.339H1032.21C1032.23 459.79 1033.21 462.135 1034.95 463.863C1036.69 465.59 1039.04 466.56 1041.49 466.56Z" fill="#407BFF"/>
<path opacity="0.2" d="M1041.49 466.56H1109.86C1111.08 466.563 1112.25 466.084 1113.12 465.227C1113.99 464.37 1114.49 463.205 1114.5 461.984C1114.5 460.752 1114.01 459.571 1113.14 458.7C1112.27 457.829 1111.09 457.339 1109.86 457.339H1032.21C1032.23 459.79 1033.21 462.135 1034.95 463.863C1036.69 465.59 1039.04 466.56 1041.49 466.56Z" fill="black"/>
<path d="M1201.52 515.043L1191.85 515.123L1189.2 492.712L1198.89 492.632L1201.52 515.043Z" fill="#FF8B7B"/>
<path opacity="0.2" d="M1189.2 492.723L1190.57 504.278L1200.26 504.186L1198.89 492.643L1189.2 492.723Z" fill="black"/>
<path d="M1280.19 491.282L1271.86 496.224L1258.3 478.183L1266.63 473.241L1280.19 491.282Z" fill="#FF8B7B"/>
<path opacity="0.2" d="M1258.31 478.183L1265.29 487.484L1273.63 482.542L1266.64 473.241L1258.31 478.183Z" fill="black"/>
<path d="M1205.87 247.633C1204.6 254.989 1202.99 262.047 1201.03 269.174C1200.06 272.728 1198.98 276.271 1197.8 279.802C1197.18 281.575 1196.59 283.337 1195.9 285.099C1195.56 285.98 1195.23 286.86 1194.86 287.741L1194.32 289.068L1194.04 289.72L1193.89 290.075L1193.69 290.521C1192.75 292.544 1191.6 294.461 1190.26 296.241C1189.11 297.854 1187.87 299.342 1186.64 300.817C1184.19 303.7 1181.64 306.377 1179.06 309.008C1173.89 314.195 1168.46 319.11 1162.79 323.732L1157.63 318.595C1162.03 313.001 1166.47 307.35 1170.76 301.755C1172.9 298.964 1174.98 296.127 1176.93 293.324C1177.9 291.928 1178.83 290.521 1179.64 289.148C1180.38 287.98 1181 286.747 1181.52 285.465C1181.59 285.328 1181.75 284.778 1181.87 284.412L1182.26 283.2C1182.53 282.41 1182.78 281.587 1183.02 280.763C1183.51 279.127 1183.96 277.457 1184.43 275.798C1185.33 272.446 1186.16 269.06 1186.97 265.651C1188.55 258.787 1190.07 251.854 1191.45 245.059L1205.87 247.633Z" fill="#FF8B7B"/>
<path d="M1209.29 248.971C1208.71 260.022 1203.36 275.535 1203.36 275.535L1188.32 269.815L1182.13 267.527C1182.95 260.21 1184.69 253.026 1187.31 246.146C1191.88 234.362 1202.49 231.491 1207.9 240.162C1209.16 242.119 1209.49 245.299 1209.29 248.971Z" fill="#407BFF"/>
<path opacity="0.2" d="M1209.29 248.971C1208.71 260.022 1203.36 275.535 1203.36 275.535L1188.32 269.815C1189.22 265.916 1190.39 262.085 1191.82 258.352C1195.58 248.536 1203.58 244.91 1209.29 248.971Z" fill="black"/>
<path d="M1160.07 317.508L1149.86 319.179L1149.78 329.189C1149.78 329.189 1159.57 327.816 1163.41 323.125L1160.07 317.508Z" fill="#FF8B7B"/>
<path d="M1140.41 324.979L1140.63 331.557L1149.78 329.189L1149.85 319.178L1140.41 324.979Z" fill="#FF8B7B"/>
<path d="M1198.55 319.178C1198.55 319.178 1184.01 372.111 1180.15 401.741C1176.15 432.56 1185.6 498.649 1185.6 498.649L1203.09 498.272C1203.09 498.272 1204.41 430.902 1210.13 400.597C1216.4 367.57 1228.34 318.538 1228.34 318.538L1198.55 319.178Z" fill="#263238"/>
<path d="M1205.24 499.061L1184.67 499.473L1183.16 492.643L1204.98 492.586L1205.24 499.061Z" fill="#407BFF"/>
<path opacity="0.4" d="M1205.24 499.061L1184.67 499.473L1183.16 492.643L1204.98 492.586L1205.24 499.061Z" fill="white"/>
<path d="M1271.27 495.263L1280.37 489.863C1280.55 489.75 1280.76 489.701 1280.96 489.724C1281.17 489.747 1281.37 489.84 1281.51 489.989L1288.05 496.121C1288.2 496.26 1288.33 496.435 1288.4 496.632C1288.48 496.828 1288.51 497.04 1288.49 497.25C1288.46 497.46 1288.39 497.661 1288.28 497.837C1288.16 498.013 1288 498.158 1287.82 498.26C1284.5 500.159 1279.64 502.836 1275.51 505.227C1270.69 508.099 1268.64 509.654 1263.05 513.006C1259.62 515.043 1256.4 512.286 1257.63 511.13C1263.2 505.891 1266.41 503.751 1269.75 497.082C1270.08 496.342 1270.6 495.71 1271.27 495.263Z" fill="#263238"/>
<path d="M1268.69 498.764C1269.58 498.218 1270.41 497.59 1271.18 496.887C1271.22 496.854 1271.24 496.811 1271.25 496.764C1271.26 496.718 1271.26 496.669 1271.24 496.624C1271.22 496.579 1271.19 496.541 1271.15 496.516C1271.11 496.492 1271.06 496.481 1271.01 496.487C1270.5 496.487 1266 496.876 1265.39 498.043C1265.33 498.148 1265.3 498.269 1265.3 498.392C1265.3 498.515 1265.33 498.636 1265.39 498.741C1265.5 498.926 1265.64 499.086 1265.81 499.207C1265.98 499.328 1266.18 499.407 1266.39 499.439C1267.21 499.471 1268.02 499.234 1268.69 498.764ZM1270.35 497.002C1268.72 498.375 1267.31 499.107 1266.49 498.981C1266.35 498.96 1266.22 498.907 1266.1 498.825C1265.98 498.744 1265.89 498.637 1265.82 498.512C1265.79 498.472 1265.78 498.427 1265.78 498.38C1265.78 498.334 1265.79 498.288 1265.82 498.249C1266.18 497.631 1268.53 497.185 1270.35 497.002Z" fill="#407BFF"/>
<path d="M1271.15 496.91C1271.19 496.88 1271.22 496.841 1271.24 496.796C1271.26 496.762 1271.28 496.722 1271.28 496.682C1271.28 496.641 1271.26 496.601 1271.24 496.567C1271.13 496.43 1268.39 493.135 1266.54 494.577C1266.05 494.943 1266.05 495.297 1266.14 495.526C1266.55 496.544 1269.75 497.105 1271.09 496.945L1271.15 496.91ZM1266.89 494.874C1268.09 494.176 1269.83 495.778 1270.54 496.51C1269.07 496.51 1266.78 495.961 1266.53 495.366C1266.53 495.366 1266.46 495.194 1266.77 494.965L1266.89 494.874Z" fill="#407BFF"/>
<path d="M1216.64 318.79C1216.64 318.79 1216.64 370.796 1218 400.643C1219.39 431.691 1258.18 485.116 1258.18 485.116L1273.11 475.964C1273.11 475.964 1246.91 425.124 1247.31 394.294C1247.74 360.671 1250.35 318.035 1250.35 318.035L1216.64 318.79Z" fill="#263238"/>
<path d="M1275.03 475.952L1258.5 486.042L1254.37 481.935L1272.56 469.809L1275.03 475.952Z" fill="#407BFF"/>
<path opacity="0.4" d="M1275.03 475.952L1258.5 486.042L1254.37 481.935L1272.56 469.809L1275.03 475.952Z" fill="white"/>
<path d="M1197.35 235.472C1197.35 235.472 1186.54 264.964 1198.55 319.19L1250.35 318.046C1250.53 310.095 1244.71 271.417 1251.59 233.79C1245.82 232.825 1240 232.241 1234.15 232.04C1226.81 231.764 1219.46 231.921 1212.14 232.509C1207.14 233.11 1202.2 234.101 1197.35 235.472Z" fill="#407BFF"/>
<path d="M1231.49 207.25C1230.25 214.354 1229.14 227.372 1234.2 231.994C1234.2 231.994 1232.41 239.259 1219.26 239.499C1208.74 239.693 1212.19 232.463 1212.19 232.463C1220.05 230.404 1219.71 224.547 1218.22 219.078L1231.49 207.25Z" fill="#FF8B7B"/>
<path opacity="0.2" d="M1226.08 212.066L1218.23 219.067C1218.59 220.339 1218.85 221.64 1218.98 222.957C1221.99 222.465 1226.08 219.056 1226.33 215.887C1226.48 214.608 1226.39 213.313 1226.08 212.066Z" fill="black"/>
<path opacity="0.2" d="M1240.03 252.552L1248.67 258.775C1248.29 265.399 1248.18 271.84 1248.23 277.88C1242.94 272.549 1239.97 262.745 1240.03 252.552Z" fill="black"/>
<path d="M1232.31 228.459C1232.31 228.459 1229.83 234.431 1218.24 239.51C1220.1 240.259 1221.79 241.389 1223.19 242.827C1224.59 244.265 1225.68 245.979 1226.38 247.862C1226.38 247.862 1234.82 239.854 1237.07 231.846L1232.31 228.459Z" fill="white"/>
<path d="M1209.58 245.699C1209.58 245.699 1213.12 240.551 1218.24 239.51C1216.44 237.314 1214.59 232.44 1216.31 230.13C1214.8 230.527 1213.34 231.083 1211.95 231.788C1211.95 231.788 1204.99 235.964 1209.58 245.699Z" fill="white"/>
<path d="M1208.56 186.909C1203.84 188.934 1201.49 201.655 1207.65 204.424C1213.8 207.192 1217.51 183.088 1208.56 186.909Z" fill="#263238"/>
<path d="M1232.1 196.576C1231.72 206.186 1231.98 211.826 1227.24 216.848C1220.12 224.41 1208.18 220.28 1205.69 210.75C1203.4 202.17 1204.45 187.87 1213.75 183.889C1215.8 182.993 1218.05 182.635 1220.27 182.849C1222.5 183.064 1224.63 183.844 1226.47 185.115C1228.31 186.387 1229.79 188.107 1230.78 190.113C1231.76 192.119 1232.22 194.344 1232.1 196.576Z" fill="#FF8B7B"/>
<path d="M1217.61 199.562C1217.61 200.34 1217.23 200.98 1216.72 200.992C1216.2 201.003 1215.78 200.374 1215.77 199.596C1215.76 198.818 1216.15 198.178 1216.66 198.166C1217.17 198.155 1217.6 198.772 1217.61 199.562Z" fill="#263238"/>
<path d="M1208.78 199.745C1208.78 200.523 1208.4 201.163 1207.89 201.175C1207.37 201.186 1206.95 200.569 1206.94 199.779C1206.92 198.99 1207.31 198.361 1207.83 198.349C1208.34 198.338 1208.77 198.967 1208.78 199.745Z" fill="#263238"/>
<path d="M1211.6 200.077C1210.72 202.484 1209.51 204.759 1208.01 206.838C1208.55 207.207 1209.17 207.454 1209.81 207.56C1210.46 207.667 1211.12 207.631 1211.75 207.455L1211.6 200.077Z" fill="#FF5652"/>
<path d="M1214.07 209.56C1215.13 209.569 1216.16 209.324 1217.1 208.846C1218.04 208.368 1218.84 207.671 1219.45 206.815C1219.47 206.79 1219.48 206.761 1219.48 206.732C1219.49 206.702 1219.49 206.672 1219.48 206.643C1219.47 206.614 1219.46 206.587 1219.44 206.563C1219.42 206.54 1219.4 206.52 1219.37 206.506C1219.32 206.475 1219.26 206.465 1219.2 206.478C1219.15 206.491 1219.1 206.526 1219.06 206.575C1218.49 207.359 1217.73 207.996 1216.86 208.435C1216 208.875 1215.04 209.103 1214.06 209.103C1214.03 209.104 1214 209.112 1213.98 209.125C1213.95 209.137 1213.93 209.155 1213.9 209.178C1213.88 209.2 1213.87 209.226 1213.86 209.255C1213.85 209.283 1213.84 209.313 1213.85 209.343C1213.85 209.402 1213.87 209.457 1213.92 209.497C1213.96 209.538 1214.02 209.56 1214.07 209.56Z" fill="#263238"/>
<path d="M1220.21 196.656C1220.31 196.653 1220.41 196.617 1220.49 196.553C1220.59 196.477 1220.65 196.367 1220.66 196.247C1220.67 196.127 1220.64 196.007 1220.56 195.912C1220.12 195.331 1219.55 194.862 1218.89 194.545C1218.24 194.229 1217.51 194.074 1216.79 194.094C1216.66 194.104 1216.55 194.163 1216.47 194.256C1216.4 194.349 1216.36 194.47 1216.37 194.591C1216.38 194.713 1216.44 194.825 1216.53 194.903C1216.62 194.981 1216.74 195.019 1216.87 195.009C1217.44 195.003 1218.01 195.133 1218.53 195.387C1219.04 195.642 1219.49 196.014 1219.84 196.473C1219.88 196.531 1219.94 196.577 1220 196.609C1220.07 196.641 1220.14 196.657 1220.21 196.656Z" fill="#263238"/>
<path d="M1204.84 196.793C1204.93 196.792 1205.02 196.767 1205.09 196.721C1205.17 196.675 1205.23 196.609 1205.27 196.53C1205.49 195.994 1205.84 195.521 1206.29 195.15C1206.74 194.78 1207.27 194.523 1207.84 194.402C1207.96 194.383 1208.07 194.317 1208.14 194.218C1208.21 194.12 1208.25 193.997 1208.23 193.876C1208.21 193.757 1208.14 193.65 1208.04 193.578C1207.94 193.506 1207.82 193.474 1207.7 193.487C1206.99 193.64 1206.33 193.961 1205.76 194.422C1205.2 194.884 1204.75 195.473 1204.47 196.141C1204.44 196.195 1204.42 196.254 1204.42 196.314C1204.42 196.374 1204.42 196.434 1204.44 196.491C1204.46 196.547 1204.5 196.599 1204.54 196.644C1204.58 196.688 1204.63 196.723 1204.68 196.748C1204.73 196.773 1204.79 196.789 1204.84 196.793Z" fill="#263238"/>
<path d="M1253.25 240.62C1255.41 243.732 1257.31 246.775 1259.26 249.909C1261.22 253.044 1263.03 256.201 1264.82 259.404C1268.46 265.892 1271.7 272.597 1274.52 279.482C1274.89 280.34 1275.21 281.255 1275.54 282.147L1276.05 283.497L1276.3 284.184L1276.59 285.122C1277.32 287.587 1277.59 290.167 1277.37 292.729C1276.92 297.206 1275.43 301.515 1273.01 305.313C1270.91 308.704 1268.41 311.83 1265.57 314.625C1264.2 315.998 1262.76 317.268 1261.3 318.492C1259.82 319.716 1258.27 320.862 1256.67 321.924L1252.01 316.341C1253.03 315.197 1254.18 313.779 1255.21 312.463C1256.24 311.148 1257.25 309.74 1258.2 308.368C1260.05 305.729 1261.64 302.917 1262.95 299.971C1264.08 297.518 1264.68 294.849 1264.7 292.146C1264.66 291.114 1264.44 290.096 1264.06 289.137L1263.14 287.101C1262.79 286.346 1262.47 285.579 1262.08 284.813C1259.13 278.692 1255.72 272.606 1252.14 266.589C1248.55 260.571 1244.8 254.531 1241.08 248.754L1253.25 240.62Z" fill="#FF8B7B"/>
<path d="M1251.59 233.813C1260.64 235.769 1273.65 263.683 1273.65 263.683L1249.41 275.512C1245.1 268.918 1241.52 261.876 1238.73 254.508C1234.51 242.714 1241.9 231.708 1251.59 233.813Z" fill="#407BFF"/>
<path d="M1242.97 305.599L1267.33 377.545C1268.27 380.369 1268.07 383.452 1266.75 386.122C1265.43 388.793 1263.11 390.833 1260.29 391.8L1096.57 447.306C1093.75 448.255 1090.66 448.045 1087.99 446.722C1085.32 445.399 1083.28 443.071 1082.32 440.248L1057.98 368.325C1057.51 366.962 1057.31 365.519 1057.4 364.08C1057.54 361.845 1058.33 359.7 1059.68 357.917C1061.04 356.135 1062.89 354.796 1065.01 354.07L1228.76 298.564C1230.88 297.85 1233.17 297.785 1235.33 298.376C1237.48 298.966 1239.42 300.187 1240.88 301.881C1241.82 302.97 1242.53 304.234 1242.97 305.599Z" fill="#407BFF"/>
<path opacity="0.8" d="M1242.97 305.599L1267.33 377.545C1268.27 380.369 1268.07 383.452 1266.75 386.122C1265.43 388.793 1263.11 390.833 1260.29 391.8L1096.57 447.306C1093.75 448.255 1090.66 448.045 1087.99 446.722C1085.32 445.399 1083.28 443.071 1082.32 440.248L1057.98 368.325C1057.51 366.962 1057.31 365.519 1057.4 364.08C1057.54 361.845 1058.33 359.7 1059.68 357.917C1061.04 356.135 1062.89 354.796 1065.01 354.07L1228.76 298.564C1230.88 297.85 1233.17 297.785 1235.33 298.376C1237.48 298.966 1239.42 300.187 1240.88 301.881C1241.82 302.97 1242.53 304.234 1242.97 305.599Z" fill="white"/>
<path opacity="0.6" d="M1240.83 301.881L1173.1 362.456C1169.69 365.498 1165.71 367.821 1161.38 369.285C1157.06 370.75 1152.48 371.326 1147.93 370.979L1057.35 364.115C1057.48 361.88 1058.27 359.734 1059.63 357.952C1060.98 356.169 1062.84 354.83 1064.95 354.105L1228.71 298.598C1230.83 297.878 1233.11 297.806 1235.27 298.391C1237.43 298.975 1239.37 300.191 1240.83 301.881Z" fill="#407BFF"/>
<path d="M1254.46 315.003L1244.05 315.072L1250.47 325.585C1250.47 325.585 1257.88 323.789 1258.56 320.059L1254.46 315.003Z" fill="#FF8B7B"/>
<path d="M1237.54 321.238L1243.25 329.692L1250.47 325.585L1244.05 315.072L1237.54 321.238Z" fill="#FF8B7B"/>
<path d="M1238.66 188.877C1240.95 195.146 1234.03 209.663 1230 209.389C1225.97 209.114 1224.87 194.025 1227.16 190.273C1224.99 191.279 1204.28 191.314 1204.39 189.129C1204.91 181.189 1218.99 178.306 1234.44 182.265C1238.45 182.07 1239.95 183.168 1238.66 188.877Z" fill="#263238"/>
<path d="M1236.66 207.044C1236.04 208.073 1235.23 208.97 1234.27 209.683C1233.31 210.396 1232.21 210.91 1231.05 211.196C1227.94 211.951 1226.48 209.149 1227.46 206.266C1228.32 203.669 1230.97 200.157 1234.06 200.683C1237.15 201.209 1238.17 204.492 1236.66 207.044Z" fill="#FF8B7B"/>
<path d="M1192.04 185.136L1239.56 190.627C1239.8 190.653 1240.04 190.583 1240.23 190.434C1240.42 190.284 1240.54 190.066 1240.57 189.826C1240.6 189.589 1240.53 189.35 1240.38 189.162C1240.23 188.974 1240.02 188.851 1239.78 188.82L1192.25 183.34C1192.01 183.314 1191.77 183.382 1191.58 183.53C1191.4 183.677 1191.27 183.892 1191.24 184.129C1191.21 184.369 1191.28 184.609 1191.43 184.797C1191.58 184.986 1191.8 185.107 1192.04 185.136Z" fill="#407BFF"/>
<path d="M1240.57 189.781L1241.39 182.688C1241.38 181.912 1241.09 181.168 1240.56 180.601C1240.03 180.034 1239.31 179.685 1238.53 179.622L1209.35 174.108C1207.19 173.696 1205.2 174.909 1205.21 176.625V185.708L1240.57 189.781Z" fill="#407BFF"/>
<path d="M1207.93 183.614L1220.29 185.044L1220.71 181.441L1207.94 179.977L1207.93 183.614Z" fill="white"/>
</g>
<defs>
<clipPath id="clip0">
<rect width="1440" height="506" fill="white"/>
</clipPath>
</defs>
</svg>
