<svg width="46" height="47" viewBox="0 0 46 47" fill="none" xmlns="http://www.w3.org/2000/svg">
<g clip-path="url(#clip0)">
<circle cx="23" cy="23.5" r="23" fill="#F3F3F3"/>
<path d="M17.9691 22.6611C17.8032 22.6611 17.6411 22.7103 17.5032 22.8025C17.3653 22.8946 17.2578 23.0256 17.1944 23.1788C17.1309 23.332 17.1143 23.5006 17.1466 23.6633C17.179 23.8259 17.2589 23.9753 17.3761 24.0926C17.4934 24.2099 17.6428 24.2897 17.8055 24.3221C17.9681 24.3545 18.1367 24.3379 18.29 24.2744C18.4432 24.2109 18.5742 24.1034 18.6663 23.9655C18.7584 23.8276 18.8076 23.6655 18.8076 23.4997C18.8076 23.2773 18.7193 23.064 18.562 22.9067C18.4048 22.7495 18.1915 22.6611 17.9691 22.6611ZM28.0316 22.6611C27.8657 22.6611 27.7036 22.7103 27.5657 22.8025C27.4278 22.8946 27.3203 23.0256 27.2569 23.1788C27.1934 23.332 27.1768 23.5006 27.2091 23.6633C27.2415 23.8259 27.3214 23.9753 27.4386 24.0926C27.5559 24.2099 27.7053 24.2897 27.868 24.3221C28.0306 24.3545 28.1992 24.3379 28.3525 24.2744C28.5057 24.2109 28.6367 24.1034 28.7288 23.9655C28.8209 23.8276 28.8701 23.6655 28.8701 23.4997C28.8701 23.2773 28.7818 23.064 28.6245 22.9067C28.4673 22.7495 28.254 22.6611 28.0316 22.6611ZM29.7087 17.6299H16.292C15.6248 17.6299 14.9849 17.8949 14.5132 18.3667C14.0414 18.8385 13.7764 19.4783 13.7764 20.1455V26.8538C13.7764 27.521 14.0414 28.1609 14.5132 28.6327C14.9849 29.1044 15.6248 29.3695 16.292 29.3695H29.7087C30.3758 29.3695 31.0157 29.1044 31.4875 28.6327C31.9592 28.1609 32.2243 27.521 32.2243 26.8538V20.1455C32.2243 19.4783 31.9592 18.8385 31.4875 18.3667C31.0157 17.8949 30.3758 17.6299 29.7087 17.6299ZM30.5472 26.8538C30.5472 27.0762 30.4589 27.2895 30.3016 27.4468C30.1443 27.604 29.9311 27.6924 29.7087 27.6924H16.292C16.0696 27.6924 15.8563 27.604 15.6991 27.4468C15.5418 27.2895 15.4535 27.0762 15.4535 26.8538V20.1455C15.4535 19.9231 15.5418 19.7098 15.6991 19.5526C15.8563 19.3953 16.0696 19.307 16.292 19.307H29.7087C29.9311 19.307 30.1443 19.3953 30.3016 19.5526C30.4589 19.7098 30.5472 19.9231 30.5472 20.1455V26.8538ZM23.0003 20.984C22.5028 20.984 22.0164 21.1316 21.6027 21.408C21.189 21.6844 20.8666 22.0773 20.6762 22.537C20.4858 22.9967 20.436 23.5025 20.533 23.9904C20.6301 24.4784 20.8697 24.9267 21.2215 25.2785C21.5733 25.6303 22.0216 25.8699 22.5096 25.967C22.9975 26.064 23.5033 26.0142 23.963 25.8238C24.4227 25.6334 24.8156 25.311 25.092 24.8973C25.3684 24.4836 25.516 23.9972 25.516 23.4997C25.516 22.8325 25.2509 22.1926 24.7791 21.7209C24.3074 21.2491 23.6675 20.984 23.0003 20.984ZM23.0003 24.3382C22.8345 24.3382 22.6724 24.289 22.5345 24.1969C22.3966 24.1048 22.2891 23.9738 22.2256 23.8206C22.1621 23.6673 22.1455 23.4987 22.1779 23.3361C22.2103 23.1734 22.2901 23.024 22.4074 22.9067C22.5247 22.7895 22.6741 22.7096 22.8367 22.6772C22.9994 22.6449 23.168 22.6615 23.3212 22.725C23.4744 22.7884 23.6054 22.8959 23.6975 23.0338C23.7897 23.1717 23.8389 23.3338 23.8389 23.4997C23.8389 23.7221 23.7505 23.9354 23.5933 24.0926C23.436 24.2499 23.2227 24.3382 23.0003 24.3382Z" fill="#3F3F3F"/>
</g>
<defs>
<clipPath id="clip0">
<rect width="46" height="46" fill="white" transform="translate(0 0.5)"/>
</clipPath>
</defs>
</svg>
