<svg width="46" height="47" viewBox="0 0 46 47" fill="none" xmlns="http://www.w3.org/2000/svg">
<g clip-path="url(#clip0)">
<circle cx="23" cy="23.5" r="23" fill="#F3F3F3"/>
<path d="M18.807 26.0153H21.3226C21.545 26.0153 21.7583 25.927 21.9155 25.7697C22.0728 25.6124 22.1611 25.3992 22.1611 25.1768C22.1611 24.9544 22.0728 24.7411 21.9155 24.5838C21.7583 24.4266 21.545 24.3382 21.3226 24.3382H18.807C18.5846 24.3382 18.3713 24.4266 18.214 24.5838C18.0568 24.7411 17.9684 24.9544 17.9684 25.1768C17.9684 25.3992 18.0568 25.6124 18.214 25.7697C18.3713 25.927 18.5846 26.0153 18.807 26.0153ZM28.8695 17.6299H17.1299C16.4627 17.6299 15.8228 17.8949 15.3511 18.3667C14.8793 18.8385 14.6143 19.4783 14.6143 20.1455V27.6924C14.6143 28.3596 14.8793 28.9994 15.3511 29.4712C15.8228 29.943 16.4627 30.208 17.1299 30.208H28.8695C29.5367 30.208 30.1765 29.943 30.6483 29.4712C31.1201 28.9994 31.3851 28.3596 31.3851 27.6924V20.1455C31.3851 19.4783 31.1201 18.8385 30.6483 18.3667C30.1765 17.8949 29.5367 17.6299 28.8695 17.6299ZM29.708 27.6924C29.708 27.9148 29.6197 28.1281 29.4624 28.2853C29.3051 28.4426 29.0919 28.5309 28.8695 28.5309H17.1299C16.9075 28.5309 16.6942 28.4426 16.5369 28.2853C16.3797 28.1281 16.2913 27.9148 16.2913 27.6924V22.6611H29.708V27.6924ZM29.708 20.984H16.2913V20.1455C16.2913 19.9231 16.3797 19.7098 16.5369 19.5526C16.6942 19.3953 16.9075 19.307 17.1299 19.307H28.8695C29.0919 19.307 29.3051 19.3953 29.4624 19.5526C29.6197 19.7098 29.708 19.9231 29.708 20.1455V20.984Z" fill="#3F3F3F"/>
</g>
<defs>
<clipPath id="clip0">
<rect width="46" height="46" fill="white" transform="translate(0 0.5)"/>
</clipPath>
</defs>
</svg>
