<svg width="39" height="38" viewBox="0 0 39 38" fill="none" xmlns="http://www.w3.org/2000/svg">
<path d="M28.0723 28.811L27.7688 28.4522L12.1378 28.4449L11.834 28.8023C11.0932 29.6735 10.6852 30.7838 10.6852 31.9288V34.31H29.2136V31.9288C29.2136 30.7881 28.8084 29.6808 28.0723 28.811Z" fill="#99DDFF"/>
<path d="M28.0724 28.811L27.7688 28.4522L19.9535 28.4486V34.3099H29.2137V31.9287C29.2137 30.7881 28.8084 29.6809 28.0724 28.811Z" fill="#66B3FF"/>
<path d="M4.60124 13.1508V17.1947L5.55349 19.0992C6.44598 19.0992 6.86215 19.2205 7.34394 19.3609C7.88725 19.5192 8.50316 19.6986 9.66784 19.6986C10.8322 19.6986 11.4478 19.5192 11.9911 19.3609C12.4729 19.2205 12.889 19.0992 13.7815 19.0992C14.6744 19.0992 15.0907 19.2205 15.5727 19.3609C16.1159 19.5192 16.7316 19.6985 17.8959 19.6985C19.0602 19.6985 19.6759 19.5192 20.2191 19.3609C20.701 19.2205 21.1173 19.0992 22.0103 19.0992C22.9027 19.0992 23.3189 19.2204 23.8008 19.3609C24.3441 19.5192 24.96 19.6986 26.1247 19.6986C27.289 19.6986 27.9047 19.5193 28.4479 19.361C28.9298 19.2206 29.3461 19.0993 30.239 19.0993C31.1315 19.0993 31.5477 19.2206 32.0296 19.361C32.5729 19.5193 33.1888 19.6986 34.3535 19.6986L35.3057 17.7942V13.151H4.60124V13.1508Z" fill="#DFFBFC"/>
<path d="M19.9535 13.1508V19.4369C20.045 19.4115 20.1332 19.386 20.2192 19.361C20.7011 19.2205 21.1175 19.0992 22.0104 19.0992C22.9028 19.0992 23.319 19.2204 23.8009 19.3609C24.3442 19.5192 24.9601 19.6986 26.1248 19.6986C27.2891 19.6986 27.9047 19.5193 28.448 19.361C28.9299 19.2205 29.3462 19.0992 30.2391 19.0992C31.1316 19.0992 31.5478 19.2205 32.0297 19.3609C32.573 19.5192 33.1889 19.6986 34.3536 19.6986L35.3058 17.7941V13.1509H19.9535V13.1508Z" fill="#A8EBFA"/>
<path d="M25.2498 18.0161L34.4542 4.00001L36.1494 5.11326L26.9451 19.1293L25.2498 18.0161Z" fill="#FF9933"/>
<path d="M34.3533 17.794C33.4604 17.794 33.0441 17.6727 32.5621 17.5324C32.0189 17.3741 31.4032 17.1947 30.239 17.1947C29.0743 17.1947 28.4584 17.3741 27.9151 17.5324C27.4333 17.6728 27.0171 17.7941 26.1247 17.7941C25.2317 17.7941 24.8155 17.6728 24.3335 17.5324C23.7902 17.3741 23.1745 17.1948 22.0103 17.1948C20.8456 17.1948 20.2297 17.3742 19.6864 17.5325C19.2046 17.6729 18.7884 17.7941 17.896 17.7941C17.0035 17.7941 16.5873 17.6729 16.1055 17.5325C15.5622 17.3742 14.9463 17.1948 13.7817 17.1948C12.6173 17.1948 12.0016 17.3742 11.4584 17.5325C10.9766 17.6729 10.5604 17.7941 9.66791 17.7941C8.77501 17.7941 8.35871 17.6729 7.87671 17.5325C7.33347 17.3742 6.71777 17.1949 5.55349 17.1949H4.60124V21.1797C4.60124 26.0083 8.52959 29.9366 13.3582 29.9366H26.5487C31.3774 29.9366 35.3057 26.0083 35.3057 21.1797V17.7941H34.3533V17.794Z" fill="#FF4DC3"/>
<path d="M34.3534 17.794C33.4605 17.794 33.0442 17.6728 32.5622 17.5323C32.0191 17.374 31.4034 17.1947 30.2391 17.1947C29.0745 17.1947 28.4585 17.3741 27.9152 17.5324C27.4334 17.6727 27.0172 17.794 26.1247 17.794C25.2317 17.794 24.8155 17.6728 24.3335 17.5323C23.7903 17.374 23.1746 17.1947 22.0104 17.1947C21.0309 17.1947 20.4399 17.3216 19.9534 17.4561V29.9365H26.5487C31.3773 29.9365 35.3057 26.0082 35.3057 21.1796V17.794H34.3534Z" fill="#FF3377"/>
<path d="M10.1146 21.0621H12.1424V22.9335H10.1146V21.0621Z" fill="#FF80D4"/>
<path d="M20.2914 24.1288L19.9535 24.8047H18.9396V22.9334H19.9535L20.2914 23.6093V24.1288Z" fill="#FF80D4"/>
<path d="M27.6794 21.0621H29.7072V22.9335H27.6794V21.0621Z" fill="#FF4DC3"/>
<path d="M26.9758 29.8038L19.9534 30.4797H12.931C7.78998 30.4797 3.60748 26.2972 3.60748 21.1562V12.6078H36.2992V21.1562C36.2992 26.2972 32.1167 29.8038 26.9758 29.8038ZM5.63533 13.2838V21.1562C5.63533 25.1791 8.90816 28.4519 12.9311 28.4519H19.9534L26.9758 29.1279C30.9987 29.1279 34.9474 25.1791 34.9474 21.1562V13.2838H5.63533Z" fill="#A8EBFA"/>
<path d="M2.66666 11.9319H37.2402V13.9597H2.66666V11.9319Z" fill="#99DDFF"/>
<path d="M19.9535 22.9334H20.9674V24.8047H19.9535V22.9334Z" fill="#FF4DC3"/>
<path d="M34.2716 13.2838V21.1562C34.2716 25.1791 30.9987 28.452 26.9758 28.452H19.9535V30.4797H26.9759C32.1169 30.4797 36.2994 26.2972 36.2994 21.1562V13.2838H34.2716Z" fill="#99DDFF"/>
<path d="M19.9535 11.9319H37.2403V13.9597H19.9535V11.9319Z" fill="#66B3FF"/>
</svg>
