<svg width="38" height="38" viewBox="0 0 38 38" fill="none" xmlns="http://www.w3.org/2000/svg">
<path d="M10.9375 22.3546V27.5431C10.9375 28.2858 11.2326 28.9982 11.7578 29.5234C12.2831 30.0486 12.9954 30.3437 13.7382 30.3438H32.1993C32.9421 30.3437 33.6544 30.0486 34.1797 29.5234C34.7049 28.9982 35 28.2858 35 27.5431V26.8772C35.0001 19.0706 33.3286 11.3544 30.0979 4.24756L29.5312 3H16.3071C15.7072 2.99999 15.124 3.19727 14.6473 3.56144C14.1706 3.92561 13.8269 4.43645 13.6691 5.01523L12.8646 7.96562C11.5856 12.655 10.9375 17.4939 10.9375 22.3546Z" fill="#EEDC9A"/>
<path d="M12.8646 7.96562L13.6691 5.01523C13.8067 4.51051 14.0862 4.05585 14.4744 3.70518C14.8626 3.35452 15.3433 3.12257 15.8594 3.03685V3H20.7812V7.375H18.2781C20.6557 13.6022 21.8747 20.2116 21.875 26.8772V27.5431C21.875 28.2859 21.5799 28.9982 21.0547 29.5234C20.5295 30.0487 19.8171 30.3437 19.0743 30.3438H13.7382C12.9954 30.3437 12.283 30.0487 11.7578 29.5234C11.2326 28.9982 10.9375 28.2859 10.9375 27.5431V22.3546C10.9375 17.4939 11.5856 12.655 12.8646 7.96562Z" fill="#E88604"/>
<path d="M19.1406 7.92188C19.1406 8.357 18.9678 8.7743 18.6601 9.08197C18.3524 9.38965 17.9351 9.5625 17.5 9.5625H32.2656C32.7007 9.5625 33.118 9.38965 33.4257 9.08197C33.7334 8.7743 33.9062 8.357 33.9062 7.92188V5.73438C33.9062 5.00917 33.6182 4.31367 33.1054 3.80088C32.5926 3.28809 31.8971 3 31.1719 3H16.4062C17.1315 3 17.827 3.28809 18.3397 3.80088C18.8525 4.31367 19.1406 5.00917 19.1406 5.73438V7.92188Z" fill="#ECE9C0"/>
<path d="M19.1406 6.28125H15.8594V7.92188C15.8594 8.357 16.0322 8.7743 16.3399 9.08197C16.6476 9.38965 17.0649 9.5625 17.5 9.5625C17.9351 9.5625 18.3524 9.38965 18.6601 9.08197C18.9678 8.7743 19.1406 8.357 19.1406 7.92188V6.28125Z" fill="#EEBE33"/>
<path d="M29.5312 20.5C29.5313 21.5843 29.3296 22.6591 28.9366 23.6697L27.059 28.4978C26.6596 29.5248 25.9593 30.4072 25.0498 31.0293C24.1403 31.6515 23.0641 31.9844 21.9621 31.9844H10.8504C9.74843 31.9844 8.67219 31.6515 7.76269 31.0293C6.85319 30.4072 6.15286 29.5248 5.75347 28.4978L3.87589 23.6697C3.48289 22.6591 3.28125 21.5843 3.28125 20.5H29.5312Z" fill="#379EC3"/>
<path d="M3.28125 20.5C3.28125 21.4851 4.55752 22.3833 6.65479 23.0621C9.05693 23.8394 12.5357 24.3281 16.4062 24.3281C20.2768 24.3281 23.7556 23.8394 26.1577 23.0621C28.255 22.3833 29.5312 21.4851 29.5312 20.5C29.5312 18.3856 23.6551 16.6719 16.4062 16.6719C9.15742 16.6719 3.28125 18.3856 3.28125 20.5Z" fill="#8ACCE7"/>
<path d="M6.5625 22.6875C6.56359 22.8179 6.5952 22.9462 6.65479 23.0621C9.05693 23.8394 12.5357 24.3281 16.4062 24.3281C20.2768 24.3281 23.7556 23.8394 26.1577 23.0621C26.2173 22.9462 26.2489 22.8179 26.25 22.6875C26.25 21.1774 21.8429 19.9531 16.4062 19.9531C10.9696 19.9531 6.5625 21.1774 6.5625 22.6875Z" fill="#EEDC9A"/>
<path d="M9.12161 14.9769L9.30022 13.3696L9.64036 13.4073L9.66481 13.1873L10.0049 13.2251L10.0294 13.005L10.8892 13.1005L11.0561 12.3492C12.6743 12.7055 14.1921 13.4198 15.4982 14.4395C16.8042 15.4592 17.8652 16.7585 18.6033 18.2419L20.1766 21.3885L19.1984 21.8776L17.6251 18.731C17.0133 17.5015 16.1548 16.4112 15.1032 15.5281C14.0515 14.645 12.8293 13.9879 11.5125 13.5979C13.3447 14.8891 15.0219 16.8759 16.1936 19.1671L17.8039 22.2942L16.8315 22.7949L15.2205 19.6665C14.0978 17.471 12.4903 15.584 10.7502 14.3998C11.1128 15.0853 11.5186 15.8428 11.9452 16.639C12.5402 17.7495 13.153 18.9006 13.7838 20.0924L15.0237 22.4314L14.0573 22.9437L12.8166 20.6031C12.1894 19.4106 11.5775 18.2614 10.9811 17.1556C10.6979 16.6269 10.4241 16.1158 10.1653 15.6303C10.0541 17.504 10.473 19.3711 11.3739 21.0177L12.1419 22.4256L11.1817 22.9494L10.4137 21.5414C9.31729 19.5385 8.86603 17.2459 9.12161 14.9769Z" fill="#C4D4E0"/>
<path d="M11.74 12.566L7.38713 5.44317C7.16781 5.08428 6.81555 4.82659 6.4071 4.72624C5.99864 4.62589 5.56708 4.691 5.20642 4.9074C5.02595 5.01568 4.8687 5.15863 4.74375 5.32798C4.6188 5.49734 4.52862 5.68976 4.4784 5.89415C4.42819 6.09853 4.41894 6.31084 4.45118 6.51882C4.48343 6.72679 4.55653 6.92633 4.66628 7.10592L9.0191 14.2287C9.23842 14.5876 9.59068 14.8453 9.99913 14.9456C10.4076 15.046 10.8391 14.9809 11.1998 14.7645C11.3803 14.6562 11.5375 14.5133 11.6625 14.3439C11.7874 14.1745 11.8776 13.9821 11.9278 13.7777C11.978 13.5734 11.9873 13.3611 11.9551 13.1531C11.9228 12.9451 11.8497 12.7456 11.74 12.566Z" fill="#A6B2BC"/>
<path d="M14.2188 30.3437L9.83701 29.9454C9.62968 29.9266 9.42069 29.9511 9.22338 30.0175C9.02607 30.084 8.84478 30.1908 8.69104 30.3312C8.53731 30.4716 8.41453 30.6424 8.33052 30.8329C8.24651 31.0234 8.20312 31.2293 8.20312 31.4375C8.20312 31.6457 8.24651 31.8516 8.33052 32.0421C8.41453 32.2326 8.53731 32.4034 8.69104 32.5438C8.84478 32.6842 9.02607 32.791 9.22338 32.8574C9.42069 32.9239 9.62968 32.9484 9.83701 32.9296L14.2188 32.5312V30.3437Z" fill="#966342"/>
<path d="M13.6719 28.1562H29.5312C31.3434 28.1562 32.8125 29.6253 32.8125 31.4375C32.8125 33.2497 31.3434 34.7188 29.5312 34.7188H13.6719C11.8597 34.7188 10.3906 33.2497 10.3906 31.4375C10.3906 29.6253 11.8597 28.1562 13.6719 28.1562Z" fill="#723024"/>
<path d="M29.5312 34.7188C27.7191 34.7188 26.25 33.2497 26.25 31.4375C26.25 29.6253 27.7191 28.1562 29.5312 28.1562C31.3434 28.1562 32.8125 29.6253 32.8125 31.4375C32.8125 33.2497 31.3434 34.7188 29.5312 34.7188Z" fill="#984E3C"/>
<path d="M30.0736 32.6303L33.3661 32.9296C33.5734 32.9484 33.7824 32.9239 33.9797 32.8574C34.177 32.791 34.3584 32.6842 34.5121 32.5438C34.6658 32.4034 34.7886 32.2326 34.8726 32.0421C34.9566 31.8516 35 31.6457 35 31.4375C35 31.2293 34.9566 31.0234 34.8726 30.8329C34.7886 30.6424 34.6658 30.4715 34.5121 30.3312C34.3584 30.1908 34.177 30.084 33.9797 30.0175C33.7824 29.9511 33.5734 29.9266 33.3661 29.9454L30.0736 30.2447C29.776 30.2718 29.4992 30.4091 29.2977 30.6298C29.0961 30.8505 28.9844 31.1386 28.9844 31.4375C28.9844 31.7364 29.0961 32.0244 29.2977 32.2451C29.4992 32.4658 29.776 32.6032 30.0736 32.6303Z" fill="#AD7D4D"/>
</svg>
