<svg width="19" height="19" viewBox="0 0 19 19" fill="none" xmlns="http://www.w3.org/2000/svg">
<path d="M9.50035 5.00684C8.61172 5.00684 7.74304 5.27035 7.00416 5.76405C6.26529 6.25775 5.6894 6.95946 5.34934 7.78046C5.00927 8.60145 4.92029 9.50485 5.09366 10.3764C5.26702 11.248 5.69494 12.0486 6.3233 12.6769C6.95166 13.3053 7.75225 13.7332 8.62381 13.9066C9.49537 14.0799 10.3988 13.9909 11.2198 13.6509C12.0408 13.3108 12.7425 12.7349 13.2362 11.9961C13.7299 11.2572 13.9934 10.3885 13.9934 9.49986C13.9934 8.90983 13.8772 8.32557 13.6514 7.78044C13.4256 7.23532 13.0946 6.74001 12.6774 6.32279C12.2602 5.90557 11.7649 5.57462 11.2198 5.34882C10.6747 5.12303 10.0904 5.00682 9.50035 5.00684ZM9.50035 12.4167C8.92345 12.4167 8.35949 12.2457 7.87981 11.9251C7.40013 11.6046 7.02627 11.1491 6.80549 10.6161C6.58472 10.0831 6.52696 9.49659 6.63951 8.93076C6.75207 8.36494 7.02988 7.8452 7.43782 7.43727C7.84575 7.02933 8.3655 6.75153 8.93132 6.63898C9.49715 6.52644 10.0836 6.5842 10.6166 6.80498C11.1496 7.02576 11.6052 7.39963 11.9257 7.87932C12.2462 8.359 12.4173 8.92296 12.4173 9.49986C12.4173 9.88293 12.3419 10.2623 12.1953 10.6162C12.0487 10.9701 11.8339 11.2917 11.563 11.5625C11.2922 11.8334 10.9706 12.0482 10.6167 12.1948C10.2627 12.3414 9.88342 12.4168 9.50035 12.4167Z" fill="#E3168F"/>
<path d="M18.1974 5.89254C18.1831 5.1667 18.0456 4.44855 17.791 3.76869C17.5709 3.18496 17.2265 2.65607 16.7817 2.21866C16.3449 1.77341 15.8162 1.42895 15.2324 1.20938C14.5526 0.95456 13.8344 0.817136 13.1085 0.802972C12.1756 0.7605 11.8773 0.75 9.50109 0.75C7.12487 0.75 6.82638 0.759852 5.8929 0.802972C5.16706 0.817316 4.44891 0.954734 3.76905 1.20938C3.18517 1.42915 2.65621 1.77358 2.21903 2.21866C1.77353 2.6555 1.42906 3.18455 1.2098 3.76869C0.955165 4.44855 0.817746 5.1667 0.8034 5.89254C0.760271 6.82548 0.750366 7.12378 0.750366 9.5C0.750366 11.8762 0.760271 12.1745 0.803382 13.1074C0.817731 13.8333 0.955156 14.5514 1.2098 15.2313C1.42913 15.8154 1.77359 16.3445 2.21903 16.7813C2.65642 17.2261 3.18532 17.5705 3.76905 17.7906C4.44894 18.0451 5.16707 18.1825 5.8929 18.197C6.82638 18.2394 7.12415 18.25 9.50037 18.25C11.8766 18.25 12.1749 18.2401 13.1078 18.197C13.8337 18.1826 14.5518 18.0452 15.2317 17.7906C15.813 17.5658 16.341 17.222 16.7817 16.7813C17.2224 16.3406 17.5662 15.8127 17.791 15.2313C18.0459 14.5515 18.1833 13.8333 18.1974 13.1074C18.2398 12.1738 18.2497 11.8762 18.2497 9.5C18.2497 7.12378 18.2398 6.82548 18.1974 5.89254ZM16.6233 13.0361C16.6165 13.591 16.5147 14.1406 16.3223 14.661C16.1766 15.0384 15.9536 15.381 15.6675 15.667C15.3815 15.9529 15.0387 16.1758 14.6613 16.3213C14.141 16.5142 13.5913 16.616 13.0364 16.6223C12.114 16.6647 11.837 16.6732 9.50031 16.6732C7.16362 16.6732 6.88736 16.6647 5.96531 16.6223C5.41041 16.6159 4.86073 16.5141 4.34037 16.3213C3.96031 16.1808 3.61644 15.9572 3.33391 15.6668C3.04305 15.3849 2.81936 15.0411 2.67941 14.661C2.48649 14.1407 2.38467 13.591 2.37841 13.0361C2.33597 12.1138 2.32753 11.8368 2.32753 9.50006C2.32753 7.16336 2.33671 6.88711 2.37841 5.96401C2.3854 5.40919 2.4872 4.85965 2.67941 4.33914C2.81986 3.95907 3.04348 3.61521 3.33391 3.33268C3.61595 3.04165 3.95996 2.81794 4.34037 2.67818C4.86072 2.48528 5.4104 2.38346 5.96531 2.37718C6.88762 2.33475 7.16466 2.3263 9.50031 2.3263C11.836 2.3263 12.1133 2.33547 13.0364 2.37718C13.5912 2.38417 14.1408 2.48597 14.6613 2.67818C15.0388 2.82365 15.3817 3.04661 15.6678 3.33269C15.9538 3.61877 16.1768 3.96162 16.3223 4.33915C16.5152 4.85947 16.617 5.40913 16.6233 5.96402C16.6657 6.88715 16.6741 7.16342 16.6741 9.50007C16.6741 11.8367 16.6657 12.113 16.6233 13.0361H16.6233Z" fill="#E3168F"/>
<path d="M14.1717 3.7793H14.1713C13.8929 3.77935 13.6259 3.88999 13.429 4.08688C13.2322 4.28378 13.1216 4.5508 13.1216 4.82921C13.1217 5.10762 13.2323 5.37462 13.4292 5.57148C13.626 5.76834 13.893 5.87893 14.1715 5.87893C14.4499 5.87893 14.7169 5.76834 14.9138 5.57148C15.1106 5.37462 15.2212 5.10762 15.2213 4.82921C15.2213 4.5508 15.1107 4.28378 14.9139 4.08688C14.7171 3.88999 14.4501 3.77935 14.1717 3.7793Z" fill="#E3168F"/>
</svg>
