<svg width="38" height="38" viewBox="0 0 38 38" fill="none" xmlns="http://www.w3.org/2000/svg">
<path d="M8.59023 37L4.50282 28.5479C1.43059 22.1951 3.23031 14.7478 8.42921 10.4369C11.6655 7.7533 14.7531 4.89538 17.5866 1.78954L18.3069 1L19.9818 3.21295C22.0485 5.94346 23.6256 8.84694 24.5573 11.789L8.59023 37Z" fill="#00AA95"/>
<path d="M33.5553 11.5425L33.0109 8.82114C30.3201 15.1638 23.4184 18.534 19.4624 22.9106C12.5442 30.5642 8.59021 37 8.59021 37H12.6863C30.8922 37 36.19 24.7123 33.5553 11.5425Z" fill="#00CC76"/>
<path d="M33.0108 8.82114L32.0186 9.21833C29.5737 10.197 27.0814 11.0447 24.5572 11.789V11.789C23.0517 12.233 21.5348 12.6401 20.0098 13.0163C13.4526 14.6338 8.59015 20.5547 8.59015 27.6114V37C8.59022 37 25.6144 26.2558 33.0108 8.82114Z" fill="#A5E887"/>
</svg>
