<svg width="434" height="434" viewBox="0 0 434 434" fill="none" xmlns="http://www.w3.org/2000/svg">
<path d="M368.362 96.7039L366.426 93.501C350.065 66.5409 320.483 50.2919 289.296 52.2623C285.282 52.5134 281.293 53.0618 277.361 53.9028C249.003 59.9788 224.335 81.4097 214.11 108.873C208.094 125.027 206.411 143.593 195.014 156.44C180.162 173.123 154.947 173.643 132.769 172.932C110.592 172.22 85.3679 172.827 70.5859 189.58C61.3243 200.065 58.3818 214.986 59.1283 229.03C61.1073 266.224 87.0258 299.477 119.984 316.013C152.942 332.548 191.75 334.024 227.824 326.75C278.35 316.56 326.411 288.558 355.299 245.384C384.186 202.209 391.468 143.333 368.362 96.7039Z" fill="#EBEBEB"/>
<path d="M257.171 408.628L121.763 408.698C116.528 408.7 111.505 406.623 107.801 402.923C104.096 399.224 102.012 394.204 102.008 388.968L101.852 83.9443C101.849 80.989 102.429 78.0622 103.558 75.3312C104.687 72.6001 106.344 70.1182 108.432 68.0273C110.521 65.9364 113.001 64.2774 115.73 63.1451C118.46 62.0129 121.386 61.4295 124.341 61.4284L257.25 61.3589C262.544 61.3589 267.622 63.4623 271.366 67.2063C275.11 70.9502 277.214 76.0282 277.214 81.3229L277.379 388.439C277.374 393.795 275.243 398.93 271.454 402.716C267.665 406.502 262.528 408.628 257.171 408.628Z" fill="#455A64"/>
<path d="M104.759 381.92L104.603 88.1975C104.614 81.839 107.147 75.7447 111.647 71.2518C116.146 66.7589 122.244 64.2343 128.603 64.232L250.418 64.1626C253.571 64.1603 256.695 64.7794 259.609 65.9844C262.523 67.1894 265.172 68.9567 267.403 71.1854C269.634 73.4142 271.404 76.0606 272.612 78.9737C273.821 81.8867 274.443 85.0092 274.444 88.1628L274.6 381.885C274.603 385.039 273.984 388.162 272.779 391.076C271.574 393.991 269.806 396.639 267.577 398.87C265.349 401.101 262.702 402.872 259.789 404.08C256.876 405.288 253.754 405.91 250.6 405.912L128.785 405.981C125.627 405.982 122.499 405.36 119.581 404.151C116.663 402.942 114.013 401.169 111.781 398.934C109.549 396.699 107.78 394.046 106.575 391.127C105.37 388.207 104.753 385.078 104.759 381.92Z" fill="#263238"/>
<path d="M176.925 75.108C176.407 75.108 175.91 74.9023 175.544 74.536C175.177 74.1698 174.972 73.673 174.972 73.155C174.972 72.6371 175.177 72.1403 175.544 71.7741C175.91 71.4078 176.407 71.202 176.925 71.202H202.001C202.268 71.1842 202.536 71.2214 202.788 71.3113C203.039 71.4011 203.27 71.5418 203.465 71.7244C203.661 71.9071 203.816 72.128 203.923 72.3733C204.029 72.6187 204.084 72.8833 204.084 73.1507C204.084 73.4181 204.029 73.6827 203.923 73.9281C203.816 74.1734 203.661 74.3942 203.465 74.5769C203.27 74.7596 203.039 74.9003 202.788 74.9901C202.536 75.08 202.268 75.1172 202.001 75.0994L176.925 75.108Z" fill="#455A64"/>
<path d="M163.479 75.1167C163.093 75.1185 162.714 75.0054 162.392 74.7918C162.07 74.5783 161.818 74.2739 161.669 73.9171C161.52 73.5604 161.48 73.1675 161.554 72.7881C161.628 72.4087 161.814 72.0599 162.087 71.7859C162.359 71.5119 162.707 71.325 163.086 71.2489C163.465 71.1729 163.859 71.211 164.216 71.3586C164.573 71.5061 164.879 71.7565 165.094 72.0778C165.309 72.3992 165.424 72.7771 165.424 73.1637C165.424 73.6802 165.219 74.1756 164.855 74.5417C164.49 74.9077 163.996 75.1144 163.479 75.1167Z" fill="#455A64"/>
<path d="M170.658 75.1081C170.271 75.1098 169.893 74.9967 169.571 74.7832C169.248 74.5696 168.997 74.2652 168.847 73.9085C168.698 73.5518 168.658 73.1588 168.733 72.7794C168.807 72.4 168.992 72.0512 169.265 71.7772C169.538 71.5032 169.886 71.3163 170.265 71.2403C170.644 71.1642 171.037 71.2024 171.395 71.3499C171.752 71.4975 172.058 71.7478 172.273 72.0691C172.488 72.3905 172.602 72.7684 172.602 73.1551C172.602 73.6715 172.398 74.167 172.033 74.533C171.669 74.899 171.174 75.1058 170.658 75.1081Z" fill="#455A64"/>
<path d="M215.559 75.082C215.173 75.082 214.795 74.9673 214.474 74.7523C214.152 74.5373 213.902 74.2318 213.754 73.8744C213.607 73.517 213.569 73.1239 213.645 72.7448C213.721 72.3657 213.908 72.0178 214.182 71.745C214.456 71.4722 214.804 71.2869 215.184 71.2125C215.563 71.1381 215.956 71.178 216.313 71.3272C216.67 71.4763 216.974 71.728 217.188 72.0503C217.401 72.3726 217.514 72.7511 217.512 73.1377C217.512 73.3938 217.462 73.6473 217.364 73.8838C217.265 74.1202 217.121 74.335 216.94 74.5156C216.758 74.6963 216.543 74.8393 216.306 74.9365C216.069 75.0337 215.815 75.0832 215.559 75.082Z" fill="#455A64"/>
<path d="M208.381 75.0907C207.994 75.0907 207.617 74.9762 207.296 74.7616C206.975 74.547 206.724 74.2419 206.576 73.8851C206.429 73.5282 206.39 73.1355 206.465 72.7567C206.541 72.3778 206.727 72.0298 207 71.7567C207.273 71.4836 207.621 71.2976 208 71.2222C208.379 71.1469 208.771 71.1855 209.128 71.3334C209.485 71.4812 209.79 71.7315 210.005 72.0527C210.219 72.3738 210.334 72.7514 210.334 73.1377C210.335 73.3945 210.285 73.649 210.187 73.8864C210.09 74.1239 209.946 74.3397 209.764 74.5212C209.583 74.7028 209.367 74.8466 209.129 74.9444C208.892 75.0421 208.638 75.0919 208.381 75.0907Z" fill="#455A64"/>
<path d="M251.721 68.1467H228.111C226.998 68.1462 225.914 68.5062 225.022 69.1727C224.131 69.8392 223.478 70.7765 223.164 71.8444L221.237 78.4585C220.888 79.6548 220.161 80.7055 219.164 81.4523C218.166 82.1991 216.953 82.6015 215.707 82.5989H163.402C162.157 82.5997 160.944 82.1978 159.946 81.4531C158.948 80.7085 158.218 79.6611 157.864 78.4672L155.928 71.8531C155.614 70.7853 154.962 69.8483 154.07 69.1831C153.178 68.5178 152.094 68.1602 150.981 68.1641H127.354C122.38 68.1548 117.607 70.121 114.083 73.6304C110.559 77.1397 108.573 81.9048 108.562 86.8781L108.718 382.536C108.726 384.998 109.219 387.435 110.168 389.707C111.118 391.978 112.505 394.041 114.252 395.776C115.999 397.511 118.07 398.886 120.348 399.82C122.626 400.755 125.065 401.232 127.527 401.224L251.868 401.164C256.842 401.173 261.615 399.207 265.139 395.697C268.663 392.188 270.649 387.423 270.661 382.449L270.504 86.8C270.479 81.8381 268.488 77.0885 264.967 73.592C261.446 70.0956 256.683 68.1374 251.721 68.1467Z" fill="#FAFAFA"/>
<path d="M277.23 136.823C277.536 136.825 277.828 136.948 278.044 137.164C278.26 137.38 278.383 137.672 278.385 137.977V175.588C278.385 175.892 278.264 176.185 278.05 176.401C277.835 176.617 277.544 176.74 277.239 176.742L277.23 136.823Z" fill="#455A64"/>
<path d="M101.878 161.517C101.562 161.517 101.26 161.643 101.037 161.866C100.814 162.089 100.688 162.391 100.688 162.707V185.596C100.691 185.912 100.818 186.214 101.042 186.437C101.267 186.66 101.57 186.785 101.886 186.785L101.878 161.517Z" fill="#455A64"/>
<path d="M101.86 128.464C101.703 128.464 101.548 128.495 101.403 128.555C101.258 128.616 101.127 128.704 101.016 128.815C100.906 128.927 100.818 129.059 100.759 129.204C100.7 129.349 100.67 129.505 100.671 129.662V152.542C100.673 152.859 100.8 153.163 101.024 153.387C101.248 153.611 101.552 153.738 101.869 153.74L101.86 128.464Z" fill="#455A64"/>
<path d="M101.851 103.717C101.577 103.717 101.315 103.826 101.121 104.02C100.927 104.214 100.818 104.476 100.818 104.75V114.446C100.818 114.581 100.845 114.715 100.897 114.84C100.949 114.965 101.025 115.078 101.121 115.173C101.217 115.268 101.331 115.344 101.457 115.395C101.582 115.446 101.716 115.471 101.851 115.47V103.717Z" fill="#455A64"/>
<path d="M232.381 77.7728H231.175V79.4654H232.381V77.7728Z" fill="white"/>
<path d="M234.343 77.0177H233.137V79.4568H234.343V77.0177Z" fill="white"/>
<path d="M236.304 76.4535H235.098V79.4568H236.304V76.4535Z" fill="white"/>
<path d="M238.266 75.3598H237.06V79.4568H238.266V75.3598Z" fill="white"/>
<path d="M256.06 79.5348H249.984C249.927 79.536 249.871 79.5259 249.818 79.505C249.766 79.4841 249.718 79.453 249.677 79.4134C249.637 79.3738 249.605 79.3265 249.583 79.2743C249.561 79.2221 249.55 79.1661 249.55 79.1095V76.0976C249.55 75.984 249.594 75.8749 249.674 75.7937C249.753 75.7126 249.862 75.6658 249.975 75.6636H256.051C256.08 75.6656 256.108 75.6781 256.129 75.6989C256.149 75.7196 256.162 75.7472 256.164 75.7764V76.7659H256.815C256.829 76.7659 256.844 76.7688 256.857 76.7746C256.87 76.7804 256.882 76.7888 256.892 76.7994C256.902 76.8101 256.909 76.8226 256.914 76.8362C256.919 76.8499 256.92 76.8644 256.919 76.8788V78.3197C256.919 78.3496 256.907 78.3783 256.886 78.3994C256.865 78.4206 256.836 78.4325 256.806 78.4325H256.155V79.422C256.156 79.4357 256.155 79.4495 256.151 79.4626C256.147 79.4757 256.14 79.4878 256.131 79.4983C256.122 79.5088 256.111 79.5174 256.099 79.5237C256.087 79.53 256.074 79.5338 256.06 79.5348ZM255.947 75.8806H249.984C249.929 75.8806 249.876 75.9025 249.836 75.9416C249.797 75.9807 249.775 76.0336 249.775 76.0889V79.1008C249.775 79.1561 249.797 79.2091 249.836 79.2482C249.876 79.2872 249.929 79.3092 249.984 79.3092H255.921V78.3197C255.921 78.292 255.932 78.2655 255.951 78.246C255.971 78.2265 255.997 78.2155 256.025 78.2155H256.676V76.9829H256.06C256.032 76.9829 256.006 76.972 255.986 76.9524C255.967 76.9329 255.956 76.9064 255.956 76.8788L255.947 75.8806Z" fill="white"/>
<path d="M250.279 78.8231V76.384L255.444 76.3754V77.4777V77.7208V78.8231H250.279Z" fill="white"/>
<path d="M244.03 79.3092C244.03 79.2216 244.004 79.1361 243.955 79.0633C243.907 78.9905 243.838 78.9337 243.757 78.9002C243.676 78.8667 243.587 78.8579 243.501 78.875C243.415 78.8921 243.336 78.9343 243.274 78.9962C243.212 79.0581 243.17 79.137 243.153 79.2228C243.136 79.3087 243.145 79.3977 243.178 79.4786C243.212 79.5595 243.268 79.6286 243.341 79.6773C243.414 79.7259 243.5 79.7519 243.587 79.7519C243.705 79.7519 243.817 79.7052 243.9 79.6222C243.983 79.5392 244.03 79.4266 244.03 79.3092Z" fill="white"/>
<path d="M242.077 78.2502L242.641 78.8057C242.893 78.5566 243.233 78.4169 243.587 78.4169C243.942 78.4169 244.282 78.5566 244.534 78.8057L245.098 78.2415C244.696 77.8428 244.153 77.6182 243.587 77.6166C243.306 77.6171 243.028 77.6734 242.769 77.7822C242.51 77.8909 242.275 78.05 242.077 78.2502Z" fill="white"/>
<path d="M243.587 76.3841C242.689 76.3849 241.828 76.7406 241.191 77.3736L241.756 77.9378C242.243 77.4554 242.901 77.1848 243.587 77.1848C244.273 77.1848 244.931 77.4554 245.419 77.9378L245.983 77.3736C245.669 77.0586 245.295 76.809 244.884 76.6391C244.473 76.4693 244.032 76.3826 243.587 76.3841Z" fill="white"/>
<path d="M240.271 76.4448L240.836 77.009C241.195 76.6445 241.623 76.3554 242.096 76.1586C242.568 75.9619 243.075 75.8615 243.587 75.8632C244.619 75.8641 245.608 76.2729 246.339 77.0003L246.903 76.4361C246.468 76.0004 245.951 75.6548 245.382 75.419C244.813 75.1832 244.203 75.0618 243.587 75.0618C242.971 75.0618 242.362 75.1832 241.793 75.419C241.224 75.6548 240.707 76.0004 240.271 76.4361V76.4448Z" fill="white"/>
<path d="M141.892 150.772C141.873 152.984 141.199 155.142 139.954 156.971C138.708 158.8 136.949 160.219 134.897 161.049C132.846 161.878 130.594 162.08 128.428 161.63C126.261 161.18 124.277 160.097 122.725 158.519C121.174 156.941 120.126 154.939 119.712 152.765C119.299 150.591 119.54 148.343 120.404 146.306C121.268 144.269 122.717 142.534 124.568 141.32C126.418 140.107 128.586 139.469 130.799 139.488C132.269 139.5 133.721 139.802 135.074 140.376C136.426 140.95 137.653 141.784 138.683 142.832C139.713 143.88 140.527 145.12 141.077 146.483C141.628 147.845 141.905 149.302 141.892 150.772Z" fill="#2A4E96"/>
<path d="M197.818 142.152C197.818 142.274 187.402 142.291 174.642 142.152C161.883 142.014 151.458 141.866 151.458 141.736C151.458 141.606 161.874 141.597 174.642 141.736C187.411 141.875 197.827 142.031 197.818 142.152Z" fill="#263238"/>
<path d="M235.654 152.768C235.654 152.89 216.731 152.837 193.391 152.646C170.05 152.456 151.128 152.195 151.128 152.074C151.128 151.952 170.05 152.004 193.4 152.195C216.749 152.386 235.654 152.638 235.654 152.768Z" fill="#E0E0E0"/>
<path d="M235.584 161.109C235.584 161.231 216.662 161.179 193.321 160.988C169.981 160.797 151.032 160.58 151.032 160.415C151.032 160.25 169.946 160.346 193.295 160.537C216.644 160.728 235.584 160.979 235.584 161.109Z" fill="#E0E0E0"/>
<path d="M260.53 140.547C260.53 140.677 256.433 140.738 251.39 140.703C246.347 140.668 242.259 140.521 242.259 140.399C242.259 140.277 246.347 140.208 251.399 140.251C256.451 140.295 260.53 140.425 260.53 140.547Z" fill="#263238"/>
<path d="M253.456 152.186L254.211 153.749C254.274 153.883 254.369 153.999 254.487 154.089C254.605 154.178 254.743 154.237 254.889 154.261L256.625 154.521C256.802 154.529 256.974 154.591 257.115 154.699C257.256 154.807 257.361 154.956 257.415 155.125C257.469 155.295 257.47 155.477 257.417 155.647C257.364 155.817 257.26 155.966 257.119 156.075L255.861 157.282C255.755 157.385 255.675 157.512 255.628 157.653C255.581 157.793 255.569 157.943 255.592 158.089L255.878 159.825C255.904 159.993 255.883 160.165 255.817 160.322C255.75 160.479 255.642 160.615 255.503 160.714C255.365 160.813 255.202 160.871 255.032 160.883C254.862 160.894 254.692 160.859 254.541 160.78L253.014 159.955C252.88 159.884 252.731 159.846 252.58 159.846C252.428 159.846 252.279 159.884 252.146 159.955L250.601 160.754C250.452 160.852 250.277 160.902 250.098 160.897C249.92 160.893 249.748 160.833 249.605 160.727C249.461 160.621 249.354 160.473 249.298 160.304C249.242 160.135 249.239 159.952 249.29 159.781L249.594 158.045C249.624 157.901 249.617 157.75 249.573 157.609C249.529 157.468 249.449 157.34 249.342 157.238L248.109 156.014C247.988 155.895 247.902 155.743 247.862 155.577C247.822 155.411 247.83 155.237 247.884 155.075C247.938 154.913 248.037 154.769 248.169 154.661C248.301 154.552 248.461 154.483 248.63 154.461L250.366 154.226C250.513 154.209 250.653 154.155 250.773 154.068C250.893 153.981 250.989 153.866 251.052 153.731L251.833 152.186C251.912 152.039 252.029 151.917 252.172 151.831C252.315 151.745 252.478 151.7 252.645 151.7C252.811 151.7 252.975 151.745 253.118 151.831C253.261 151.917 253.378 152.039 253.456 152.186Z" fill="#2A4E96"/>
<path d="M210.195 141.649C210.192 142.064 210.065 142.469 209.832 142.813C209.598 143.156 209.268 143.423 208.882 143.579C208.497 143.735 208.075 143.773 207.668 143.688C207.261 143.604 206.888 143.401 206.597 143.104C206.306 142.808 206.109 142.432 206.031 142.024C205.954 141.616 205.999 141.194 206.161 140.812C206.323 140.429 206.595 140.103 206.942 139.875C207.289 139.647 207.697 139.528 208.112 139.531C208.388 139.533 208.661 139.59 208.915 139.698C209.169 139.805 209.399 139.962 209.592 140.159C209.786 140.355 209.939 140.588 210.042 140.844C210.145 141.099 210.197 141.373 210.195 141.649Z" fill="#2A4E96"/>
<path d="M269.861 121.381C269.861 121.503 233.709 121.312 189.137 120.947C144.565 120.583 108.413 120.183 108.413 120.079C108.413 119.975 144.557 120.149 189.137 120.513C233.718 120.878 269.87 121.26 269.861 121.381Z" fill="#E0E0E0"/>
<path d="M269.392 179.207C269.392 179.338 233.231 179.138 188.668 178.773C144.105 178.409 107.944 178.009 107.944 177.905C107.944 177.801 144.097 177.975 188.668 178.339C233.24 178.704 269.392 179.086 269.392 179.207Z" fill="#E0E0E0"/>
<path d="M137.67 274.05C142.039 269.68 142.039 262.596 137.67 258.227C133.301 253.857 126.216 253.857 121.847 258.227C117.478 262.596 117.478 269.68 121.847 274.05C126.216 278.419 133.301 278.419 137.67 274.05Z" fill="#2A4E96"/>
<path d="M196.872 257.614C196.872 257.735 186.499 257.753 173.696 257.614C160.893 257.475 150.512 257.327 150.512 257.197C150.512 257.067 160.928 257.058 173.696 257.197C186.464 257.336 196.88 257.492 196.872 257.614Z" fill="#263238"/>
<path d="M234.707 268.212C234.707 268.334 215.785 268.281 192.445 268.091C169.104 267.9 150.182 267.639 150.182 267.518C150.182 267.396 169.104 267.448 192.453 267.639C215.802 267.83 234.707 268.099 234.707 268.212Z" fill="#E0E0E0"/>
<path d="M234.638 276.571C234.638 276.692 215.716 276.64 192.375 276.449C169.035 276.258 150.112 275.998 150.121 275.876C150.13 275.755 169.035 275.807 192.384 275.998C215.733 276.189 234.638 276.441 234.638 276.571Z" fill="#E0E0E0"/>
<path d="M259.584 256.008C259.584 256.138 255.496 256.199 250.444 256.164C245.392 256.129 241.312 255.982 241.312 255.86C241.312 255.739 245.401 255.669 250.453 255.713C255.504 255.756 259.584 255.886 259.584 256.008Z" fill="#263238"/>
<path d="M252.501 267.648L253.256 269.21C253.319 269.344 253.414 269.461 253.532 269.55C253.65 269.639 253.788 269.698 253.933 269.722L255.669 269.983C255.847 269.99 256.018 270.052 256.16 270.16C256.301 270.268 256.406 270.417 256.46 270.587C256.514 270.756 256.515 270.938 256.462 271.108C256.409 271.278 256.305 271.428 256.164 271.536L254.906 272.743C254.8 272.846 254.72 272.974 254.673 273.114C254.626 273.254 254.614 273.404 254.637 273.55L254.923 275.286C254.949 275.454 254.928 275.627 254.861 275.784C254.795 275.94 254.687 276.076 254.548 276.175C254.41 276.274 254.247 276.332 254.077 276.344C253.907 276.356 253.737 276.32 253.586 276.241L252.059 275.373C251.925 275.302 251.776 275.264 251.625 275.264C251.473 275.264 251.324 275.302 251.191 275.373L249.646 276.172C249.497 276.27 249.321 276.32 249.143 276.315C248.965 276.311 248.793 276.251 248.649 276.145C248.506 276.039 248.399 275.891 248.343 275.722C248.287 275.553 248.284 275.37 248.335 275.199L248.647 273.463C248.677 273.318 248.668 273.167 248.622 273.026C248.577 272.884 248.496 272.757 248.387 272.656L247.154 271.432C247.033 271.313 246.947 271.161 246.907 270.995C246.867 270.829 246.875 270.655 246.929 270.493C246.983 270.331 247.082 270.187 247.214 270.079C247.346 269.97 247.506 269.901 247.675 269.879L249.411 269.644C249.558 269.627 249.698 269.573 249.818 269.486C249.938 269.399 250.034 269.284 250.097 269.149L250.878 267.604C250.96 267.459 251.081 267.34 251.226 267.258C251.371 267.176 251.536 267.135 251.703 267.139C251.869 267.144 252.032 267.193 252.172 267.283C252.313 267.372 252.427 267.499 252.501 267.648Z" fill="#2A4E96"/>
<path d="M209.215 257.529C209.441 256.391 208.702 255.285 207.564 255.059C206.426 254.833 205.32 255.572 205.094 256.71C204.868 257.848 205.607 258.954 206.745 259.18C207.883 259.406 208.988 258.667 209.215 257.529Z" fill="#2A4E96"/>
<path d="M268.916 236.843C268.916 236.964 232.764 236.773 188.192 236.409C143.62 236.044 107.468 235.645 107.468 235.541C107.468 235.436 143.611 235.61 188.192 235.975C232.772 236.339 268.924 236.721 268.916 236.843Z" fill="#E0E0E0"/>
<path d="M268.447 294.669C268.447 294.799 232.859 294.565 188.946 294.148C145.034 293.731 109.446 293.28 109.446 293.176C109.446 293.072 145.034 293.28 188.955 293.696C232.876 294.113 268.447 294.547 268.447 294.669Z" fill="#E0E0E0"/>
<path d="M140.052 376.035C140.033 378.247 139.359 380.404 138.114 382.234C136.87 384.063 135.111 385.482 133.059 386.311C131.008 387.141 128.757 387.344 126.591 386.894C124.425 386.445 122.44 385.363 120.889 383.786C119.337 382.209 118.288 380.207 117.874 378.034C117.459 375.86 117.699 373.613 118.562 371.576C119.425 369.538 120.872 367.803 122.721 366.588C124.57 365.373 126.738 364.734 128.951 364.751C131.919 364.776 134.756 365.979 136.837 368.095C138.919 370.211 140.076 373.067 140.052 376.035Z" fill="#E0E0E0"/>
<path d="M195.977 367.424C195.977 367.546 185.561 367.563 172.793 367.424C160.025 367.286 149.617 367.138 149.617 367.008C149.617 366.878 160.033 366.869 172.801 367.008C185.57 367.147 195.977 367.303 195.977 367.424Z" fill="#263238"/>
<path d="M233.805 378.04C233.805 378.162 214.883 378.11 191.551 377.919C168.219 377.728 149.288 377.467 149.288 377.346C149.288 377.224 168.21 377.276 191.551 377.467C214.892 377.658 233.805 377.91 233.805 378.04Z" fill="#E0E0E0"/>
<path d="M233.735 386.373C233.735 386.503 214.813 386.451 191.481 386.26C168.149 386.069 149.218 385.809 149.218 385.687C149.218 385.566 168.14 385.609 191.481 385.8C214.821 385.991 233.744 386.26 233.735 386.373Z" fill="#E0E0E0"/>
<path d="M258.664 365.819C258.664 365.94 254.576 366.01 249.533 365.966C244.49 365.923 240.393 365.793 240.393 365.671C240.393 365.55 244.49 365.48 249.533 365.515C254.576 365.55 258.664 365.697 258.664 365.819Z" fill="#263238"/>
<path d="M208.32 366.921C208.317 367.336 208.19 367.742 207.957 368.085C207.723 368.429 207.393 368.695 207.007 368.851C206.622 369.007 206.2 369.045 205.793 368.96C205.386 368.876 205.013 368.673 204.722 368.377C204.431 368.08 204.234 367.704 204.156 367.296C204.079 366.888 204.124 366.466 204.286 366.084C204.448 365.701 204.72 365.375 205.067 365.147C205.414 364.92 205.822 364.8 206.237 364.803C206.513 364.805 206.786 364.862 207.04 364.97C207.294 365.077 207.524 365.234 207.717 365.431C207.911 365.627 208.064 365.86 208.167 366.116C208.27 366.372 208.322 366.645 208.32 366.921Z" fill="#2A4E96"/>
<path d="M270.288 179.221L109.323 177.9L108.849 235.724L269.814 237.045L270.288 179.221Z" fill="#F5F5F5"/>
<path d="M138.477 215.193C142.846 210.824 142.846 203.74 138.477 199.371C134.107 195.001 127.023 195.001 122.654 199.371C118.284 203.74 118.284 210.824 122.654 215.193C127.023 219.563 134.107 219.563 138.477 215.193Z" fill="#455A64"/>
<path d="M197.678 198.772C197.678 198.902 187.262 198.92 174.503 198.815C161.743 198.711 151.318 198.52 151.318 198.399C151.318 198.277 161.734 198.251 174.503 198.399C187.271 198.546 197.678 198.633 197.678 198.772Z" fill="#263238"/>
<path d="M235.515 209.37C235.515 209.5 216.593 209.44 193.252 209.249C169.912 209.058 150.989 208.806 150.989 208.676C150.989 208.546 169.912 208.606 193.252 208.797C216.593 208.988 235.515 209.249 235.515 209.37Z" fill="#E0E0E0"/>
<path d="M235.446 217.712C235.446 217.833 216.523 217.781 193.183 217.59C169.842 217.399 150.92 217.148 150.92 217.017C150.92 216.887 169.842 216.948 193.192 217.139C216.541 217.33 235.446 217.59 235.446 217.712Z" fill="#E0E0E0"/>
<path d="M260.4 197.158C260.4 197.279 256.303 197.349 251.26 197.305C248.213 197.357 245.166 197.256 242.129 197.001C242.129 196.88 246.217 196.81 251.269 196.854C254.316 196.802 257.364 196.903 260.4 197.158Z" fill="#263238"/>
<path d="M253.309 208.797C253.309 208.797 253.239 208.702 253.083 208.563C252.973 208.471 252.841 208.408 252.7 208.379C252.559 208.35 252.414 208.357 252.276 208.398C252.082 208.451 251.916 208.579 251.816 208.754C251.703 208.945 251.59 209.205 251.469 209.457L251.069 210.325C250.999 210.507 250.882 210.668 250.729 210.79C250.577 210.912 250.395 210.991 250.201 211.02L249.082 211.193L248.491 211.28C248.325 211.308 248.175 211.394 248.066 211.523C247.952 211.654 247.889 211.822 247.889 211.996C247.889 212.17 247.952 212.338 248.066 212.469L249.056 213.441L249.316 213.693C249.421 213.792 249.506 213.91 249.568 214.04C249.689 214.313 249.71 214.621 249.628 214.908C249.542 215.4 249.455 215.903 249.368 216.418C249.34 216.519 249.336 216.624 249.355 216.726C249.374 216.829 249.416 216.925 249.478 217.009C249.54 217.093 249.62 217.161 249.712 217.209C249.804 217.257 249.906 217.284 250.01 217.286C250.21 217.286 250.392 217.182 250.653 217.052L251.39 216.679C251.642 216.527 251.91 216.405 252.189 216.314C252.347 216.283 252.51 216.284 252.668 216.317C252.826 216.349 252.976 216.413 253.109 216.505L254.498 217.252C254.585 217.294 254.68 217.319 254.777 217.323C254.874 217.327 254.971 217.311 255.061 217.276C255.152 217.241 255.234 217.188 255.303 217.119C255.372 217.051 255.426 216.969 255.461 216.878C255.522 216.678 255.522 216.463 255.461 216.262C255.461 216.019 255.392 215.785 255.349 215.55L255.244 214.847C255.192 214.572 255.245 214.287 255.392 214.049C255.539 213.859 255.705 213.685 255.887 213.528L256.364 213.085L256.815 212.66C256.938 212.55 257.023 212.404 257.058 212.243C257.087 212.09 257.067 211.932 257.001 211.791C256.936 211.649 256.829 211.532 256.694 211.454C256.383 211.353 256.063 211.283 255.739 211.245L254.871 211.089C254.723 211.076 254.58 211.032 254.45 210.96C254.32 210.889 254.206 210.79 254.116 210.672C254 210.471 253.899 210.262 253.812 210.047C253.621 209.676 253.467 209.286 253.352 208.884C253.592 209.227 253.801 209.59 253.977 209.969C254.069 210.166 254.174 210.358 254.29 210.542C254.368 210.631 254.464 210.704 254.571 210.755C254.679 210.805 254.796 210.833 254.915 210.837L255.783 210.959C256.143 210.985 256.499 211.058 256.841 211.176C256.991 211.258 257.119 211.374 257.215 211.515C257.311 211.656 257.372 211.817 257.394 211.987C257.416 212.156 257.398 212.328 257.341 212.488C257.285 212.649 257.191 212.794 257.067 212.912L256.616 213.346L256.156 213.806C255.998 213.938 255.856 214.086 255.73 214.248C255.641 214.406 255.61 214.591 255.644 214.769C255.687 215.004 255.722 215.238 255.765 215.472C255.809 215.707 255.843 215.941 255.887 216.184C255.974 216.467 255.974 216.769 255.887 217.052C255.832 217.201 255.746 217.336 255.635 217.449C255.524 217.562 255.39 217.651 255.243 217.709C255.096 217.767 254.938 217.793 254.779 217.786C254.621 217.779 254.466 217.739 254.324 217.668L252.927 216.922C252.839 216.855 252.738 216.807 252.63 216.782C252.522 216.756 252.411 216.754 252.302 216.774C252.066 216.864 251.836 216.971 251.616 217.095L250.887 217.469L250.514 217.66C250.359 217.73 250.189 217.763 250.019 217.755C249.855 217.747 249.695 217.704 249.549 217.628C249.403 217.553 249.275 217.447 249.174 217.317C249.073 217.188 249.001 217.039 248.962 216.879C248.924 216.72 248.92 216.554 248.951 216.392C249.047 215.88 249.142 215.377 249.229 214.891C249.3 214.697 249.3 214.485 249.229 214.292C249.119 214.105 248.975 213.94 248.804 213.806L247.771 212.66C247.597 212.457 247.501 212.198 247.501 211.931C247.501 211.663 247.597 211.405 247.771 211.202C247.941 211.014 248.171 210.891 248.422 210.855L249.021 210.776L250.149 210.638C250.297 210.621 250.437 210.565 250.555 210.474C250.672 210.384 250.763 210.264 250.818 210.125L251.243 209.31C251.382 209.058 251.495 208.832 251.633 208.598C251.774 208.391 251.988 208.245 252.232 208.19C252.395 208.15 252.566 208.155 252.726 208.204C252.886 208.253 253.031 208.344 253.144 208.468C253.291 208.667 253.317 208.789 253.309 208.797Z" fill="#263238"/>
<path d="M210.057 198.26C210.053 198.675 209.927 199.08 209.693 199.424C209.459 199.767 209.129 200.034 208.744 200.19C208.359 200.346 207.936 200.384 207.529 200.299C207.122 200.215 206.75 200.012 206.458 199.715C206.167 199.419 205.97 199.043 205.893 198.635C205.815 198.227 205.86 197.805 206.022 197.423C206.184 197.04 206.456 196.714 206.803 196.486C207.151 196.258 207.558 196.139 207.973 196.142C208.53 196.149 209.061 196.375 209.451 196.772C209.841 197.169 210.059 197.703 210.057 198.26Z" fill="#2A4E96"/>
<path d="M270.41 294.497L109.445 293.176L108.971 351.001L269.936 352.321L270.41 294.497Z" fill="#F5F5F5"/>
<path d="M138.598 330.465C142.967 326.096 142.967 319.012 138.598 314.642C134.228 310.273 127.144 310.273 122.775 314.642C118.405 319.012 118.405 326.096 122.775 330.465C127.144 334.835 134.228 334.835 138.598 330.465Z" fill="#455A64"/>
<path d="M197.8 314.034C197.8 314.155 187.384 314.173 174.625 314.034C161.865 313.895 151.44 313.747 151.44 313.617C151.44 313.487 161.856 313.478 174.625 313.617C187.393 313.756 197.8 313.912 197.8 314.034Z" fill="#263238"/>
<path d="M235.636 324.632C235.636 324.754 216.714 324.701 193.373 324.511C170.033 324.32 151.11 324.059 151.11 323.938C151.11 323.816 170.033 323.868 193.373 324.059C216.714 324.25 235.636 324.519 235.636 324.632Z" fill="#E0E0E0"/>
<path d="M235.567 332.991C235.567 333.112 216.644 333.06 193.304 332.869C169.963 332.678 151.032 332.444 151.032 332.296C151.032 332.149 169.955 332.227 193.304 332.418C216.653 332.609 235.567 332.861 235.567 332.991Z" fill="#E0E0E0"/>
<path d="M260.514 312.428C260.514 312.558 256.417 312.619 251.374 312.584C246.33 312.55 242.242 312.402 242.242 312.28C242.242 312.159 246.33 312.089 251.382 312.133C256.434 312.176 260.514 312.306 260.514 312.428Z" fill="#263238"/>
<path d="M253.456 324.068C253.456 324.068 253.386 323.972 253.23 323.842C253.121 323.749 252.989 323.684 252.849 323.653C252.708 323.623 252.561 323.628 252.423 323.669C252.23 323.725 252.066 323.852 251.963 324.024C251.85 324.224 251.737 324.485 251.616 324.736C251.494 324.988 251.355 325.274 251.216 325.561C251.148 325.745 251.032 325.908 250.879 326.032C250.726 326.155 250.543 326.236 250.348 326.264L249.229 326.429L248.638 326.524C248.51 326.543 248.389 326.597 248.289 326.68C248.189 326.762 248.114 326.871 248.071 326.993C248.028 327.115 248.019 327.247 248.046 327.374C248.073 327.501 248.133 327.619 248.222 327.713L249.211 328.677L249.472 328.929C249.579 329.029 249.664 329.15 249.723 329.285C249.85 329.556 249.872 329.866 249.784 330.153C249.697 330.65 249.611 331.154 249.524 331.663C249.502 331.76 249.502 331.861 249.524 331.959C249.546 332.056 249.589 332.148 249.65 332.227C249.712 332.306 249.79 332.37 249.879 332.415C249.968 332.46 250.066 332.485 250.166 332.487C250.397 332.474 250.62 332.396 250.808 332.262L251.546 331.88C251.799 331.732 252.067 331.61 252.345 331.515C252.666 331.458 252.996 331.53 253.265 331.715L254.654 332.461C254.741 332.504 254.836 332.528 254.933 332.533C255.03 332.537 255.127 332.521 255.217 332.486C255.308 332.451 255.39 332.397 255.459 332.329C255.528 332.26 255.582 332.178 255.617 332.088C255.678 331.887 255.678 331.673 255.617 331.472C255.617 331.229 255.548 330.986 255.504 330.751L255.4 330.057C255.347 329.782 255.4 329.497 255.548 329.259C255.695 329.069 255.861 328.895 256.043 328.738L256.52 328.295L256.971 327.861C257.097 327.753 257.182 327.607 257.214 327.444C257.242 327.292 257.222 327.136 257.156 326.996C257.091 326.856 256.984 326.74 256.85 326.663C256.54 326.559 256.22 326.489 255.895 326.455L255.027 326.299C254.878 326.284 254.735 326.239 254.605 326.165C254.475 326.092 254.361 325.993 254.272 325.873C254.156 325.675 254.055 325.469 253.968 325.257C253.774 324.884 253.62 324.491 253.508 324.085C253.746 324.432 253.955 324.798 254.133 325.179C254.225 325.373 254.33 325.562 254.445 325.743C254.523 325.834 254.619 325.908 254.726 325.96C254.834 326.013 254.951 326.042 255.07 326.047L255.938 326.168C256.275 326.198 256.606 326.265 256.928 326.368C257.127 326.474 257.288 326.64 257.388 326.843C257.487 327.045 257.521 327.274 257.483 327.496C257.445 327.735 257.329 327.955 257.154 328.121L256.702 328.555L256.242 329.007C256.087 329.144 255.944 329.295 255.817 329.458C255.726 329.616 255.695 329.801 255.73 329.979C255.773 330.213 255.808 330.439 255.852 330.673C255.895 330.908 255.93 331.151 255.973 331.394C256.057 331.677 256.057 331.978 255.973 332.262C255.915 332.409 255.827 332.543 255.715 332.654C255.602 332.766 255.468 332.853 255.321 332.91C255.173 332.967 255.015 332.993 254.857 332.986C254.699 332.979 254.544 332.939 254.402 332.869C253.942 332.626 253.473 332.383 253.005 332.123C252.823 331.996 252.599 331.943 252.38 331.975C252.143 332.068 251.914 332.179 251.694 332.305L250.965 332.678L250.591 332.869C250.435 332.933 250.266 332.963 250.097 332.956C249.934 332.948 249.774 332.905 249.629 332.83C249.484 332.755 249.357 332.65 249.256 332.521C249.155 332.393 249.082 332.245 249.043 332.086C249.004 331.928 248.999 331.763 249.029 331.602C249.125 331.09 249.22 330.587 249.307 330.092C249.378 329.898 249.378 329.686 249.307 329.493C249.192 329.309 249.048 329.145 248.882 329.007L247.892 328.009C247.718 327.806 247.622 327.547 247.622 327.279C247.622 327.012 247.718 326.753 247.892 326.55C248.064 326.363 248.293 326.238 248.543 326.194L249.142 326.116L250.27 325.977C250.418 325.965 250.558 325.911 250.677 325.822C250.795 325.733 250.886 325.612 250.939 325.474L251.364 324.658C251.503 324.398 251.616 324.172 251.755 323.946C251.893 323.735 252.107 323.586 252.354 323.53C252.51 323.5 252.671 323.51 252.823 323.558C252.974 323.607 253.111 323.692 253.222 323.807C253.456 323.946 253.456 324.068 253.456 324.068Z" fill="#263238"/>
<path d="M210.178 313.53C210.174 313.946 210.048 314.351 209.814 314.694C209.58 315.038 209.25 315.304 208.865 315.46C208.48 315.616 208.057 315.654 207.65 315.57C207.244 315.485 206.871 315.282 206.58 314.986C206.288 314.69 206.091 314.314 206.014 313.906C205.936 313.498 205.981 313.076 206.143 312.693C206.305 312.311 206.577 311.985 206.925 311.757C207.272 311.529 207.679 311.409 208.094 311.412C208.37 311.415 208.643 311.471 208.897 311.579C209.151 311.687 209.381 311.843 209.575 312.04C209.768 312.237 209.921 312.469 210.024 312.725C210.128 312.981 210.18 313.254 210.178 313.53Z" fill="#2A4E96"/>
<path d="M196.341 99.9425L182.852 99.8318C181.774 99.823 180.892 100.69 180.883 101.769L180.8 111.907C180.791 112.985 181.659 113.867 182.737 113.876L196.225 113.986C197.304 113.995 198.186 113.128 198.194 112.049L198.278 101.911C198.286 100.833 197.419 99.9513 196.341 99.9425Z" fill="#2A4E96"/>
<path d="M197.34 100.48C197.195 100.746 197.014 100.992 196.802 101.209C196.438 101.66 195.934 102.303 195.214 103.092L192.818 105.844L191.386 107.458C191.137 107.761 190.874 108.051 190.596 108.326C190.244 108.617 189.792 108.757 189.337 108.717C188.887 108.67 188.473 108.449 188.183 108.101L187.41 107.233L185.961 105.636L183.53 102.919C182.836 102.138 182.289 101.504 181.916 101.053C181.703 100.837 181.519 100.595 181.369 100.332C181.369 100.332 181.63 100.523 182.046 100.94C182.463 101.356 183.044 101.947 183.782 102.676L186.282 105.332L187.758 106.912L188.53 107.78C188.635 107.911 188.766 108.019 188.913 108.1C189.061 108.18 189.223 108.23 189.39 108.247C189.558 108.264 189.726 108.247 189.887 108.198C190.048 108.15 190.198 108.069 190.327 107.962C190.561 107.754 190.83 107.415 191.073 107.155L192.523 105.558L194.997 102.867C195.7 102.112 196.281 101.495 196.733 101.131C196.907 100.889 197.111 100.67 197.34 100.48Z" fill="white"/>
<path d="M186.89 106.842C186.049 107.967 185.117 109.021 184.103 109.993C183.191 111.072 182.14 112.027 180.979 112.831C181.822 111.706 182.756 110.652 183.773 109.681C184.684 108.603 185.732 107.649 186.89 106.842Z" fill="white"/>
<path d="M198.182 113.161C197.002 112.219 195.923 111.158 194.962 109.993C193.886 108.932 192.915 107.769 192.062 106.521C193.244 107.464 194.326 108.525 195.291 109.689C196.366 110.749 197.335 111.912 198.182 113.161Z" fill="white"/>
<path d="M133.473 105.584C133.473 105.662 130.504 105.722 126.841 105.722C123.179 105.722 120.21 105.662 120.21 105.584C120.21 105.505 123.179 105.445 126.841 105.445C130.504 105.445 133.473 105.505 133.473 105.584Z" fill="#263238"/>
<path d="M133.473 108.977C133.473 109.056 130.504 109.116 126.841 109.116C123.179 109.116 120.21 109.056 120.21 108.977C120.21 108.899 123.179 108.839 126.841 108.839C130.504 108.839 133.473 108.899 133.473 108.977Z" fill="#263238"/>
<path d="M133.473 112.371C133.473 112.449 130.504 112.519 126.841 112.519C123.179 112.519 120.21 112.449 120.21 112.38C120.21 112.311 123.179 112.232 126.841 112.232C130.504 112.232 133.473 112.302 133.473 112.371Z" fill="#263238"/>
<path d="M257.952 107.745C257.909 107.745 257.952 107.415 257.761 106.877C257.547 106.108 257.083 105.433 256.442 104.959C255.929 104.569 255.317 104.33 254.676 104.268C254.035 104.206 253.389 104.324 252.811 104.608C252.233 104.893 251.745 105.332 251.403 105.878C251.06 106.423 250.876 107.053 250.871 107.697C250.866 108.341 251.04 108.974 251.374 109.525C251.708 110.076 252.189 110.523 252.763 110.816C253.336 111.109 253.98 111.237 254.622 111.185C255.264 111.133 255.879 110.904 256.398 110.522C257.043 110.052 257.518 109.385 257.752 108.622C257.909 108.075 257.909 107.754 257.952 107.754C257.963 107.831 257.963 107.91 257.952 107.988C257.957 108.216 257.934 108.443 257.883 108.665C257.694 109.497 257.221 110.236 256.546 110.757C255.976 111.183 255.298 111.442 254.589 111.504C253.88 111.566 253.168 111.428 252.533 111.107C251.898 110.785 251.366 110.293 250.996 109.685C250.625 109.077 250.433 108.378 250.439 107.666C250.445 106.955 250.65 106.259 251.03 105.657C251.41 105.056 251.951 104.573 252.592 104.262C253.232 103.952 253.947 103.826 254.655 103.9C255.362 103.974 256.036 104.245 256.598 104.681C257.265 105.213 257.723 105.963 257.891 106.799C257.941 107.021 257.961 107.248 257.952 107.476C257.973 107.564 257.973 107.656 257.952 107.745Z" fill="#263238"/>
<path d="M259.906 114.047C259.24 113.601 258.653 113.046 258.17 112.406C257.577 111.853 257.081 111.205 256.703 110.488C257.37 110.934 257.956 111.488 258.439 112.128C259.034 112.679 259.53 113.328 259.906 114.047Z" fill="#263238"/>
<path d="M249.819 289.044L249.698 335.69L229.083 331.454L211.723 327.826C211.723 327.826 235.488 374.698 261.338 374.698C287.187 374.698 290.528 335.699 290.528 335.699L292.065 289.044H249.819Z" fill="#F0B79D"/>
<path d="M356.904 168.713C355.012 169.789 352.408 168.392 351.54 166.378C350.672 164.364 351.071 162.038 351.731 159.92C352.391 157.802 353.311 155.771 353.467 153.575C353.544 151.571 352.975 149.594 351.844 147.937C350.712 146.281 349.078 145.032 347.183 144.374C350.915 141.415 351.219 135.069 347.79 131.762C346.185 130.217 344.049 129.375 342.183 128.16C341.122 127.459 340.133 126.654 339.232 125.756C340.897 126.166 342.631 126.22 344.318 125.912C345.671 125.615 346.927 124.983 347.971 124.072C349.014 123.162 349.812 122.004 350.29 120.704C350.731 119.388 350.795 117.974 350.477 116.623C350.158 115.272 349.468 114.037 348.485 113.057C347.471 112.108 346.192 111.49 344.818 111.285C343.444 111.08 342.041 111.299 340.794 111.911C338.381 113.187 337.062 115.809 335.89 118.274L334.796 120.557C331.402 116.06 328.208 111.416 322.974 109.837C318.226 108.405 313.122 110.002 308.175 109.646C304.573 109.377 301.118 108.083 297.524 107.684C293.931 107.285 289.843 108.057 287.725 110.982C286.475 112.718 286.084 114.923 284.826 116.633C282.222 120.157 276.614 120.635 274.479 124.445C272.743 127.553 274.08 131.476 273.333 134.957C272.526 138.741 269.401 141.51 266.849 144.418C264.297 147.326 262.067 151.318 263.499 154.912C264.766 158.08 268.455 159.781 269.653 162.967C270.521 165.293 269.896 167.871 269.853 170.354C269.809 172.836 270.799 175.787 273.22 176.352L300.762 183.625C310.249 187.479 320.032 191.437 330.274 191.385C340.516 191.333 351.445 186.455 355.446 177.046C353.957 176.99 352.545 176.369 351.497 175.31C352.834 174.685 354.014 173.768 354.95 172.626C355.886 171.484 356.554 170.147 356.904 168.713Z" fill="#263238"/>
<path d="M334.327 177.35C336.601 170.406 338.841 163.332 339.874 156.058C340.907 148.784 340.69 141.198 338.138 134.358C337.756 133.316 334.449 126.311 333.338 126.424C332.548 126.502 334.579 133.03 334.206 133.724C330.386 140.286 329.345 148.176 329.961 155.754C330.619 163.108 332.095 170.366 334.362 177.393" fill="#263238"/>
<path d="M310.006 238.405C321.394 238.162 334.31 213.233 334.31 213.233L335.048 149.296C335.638 130.886 325.422 115.192 307.003 115.105L305.267 115.192C297.005 115.644 289.215 119.184 283.442 125.11C277.668 131.037 274.333 138.916 274.097 147.187C273.672 163.149 273.394 180.796 273.958 189.319C275.121 206.957 292.924 208.754 292.924 208.754C292.924 208.754 293.028 212.851 293.08 218.042C293.202 229.69 305.397 238.769 309.963 238.379L310.006 238.405Z" fill="#F0B79D"/>
<path d="M292.968 208.78C292.968 208.78 304.13 208.841 315.588 200.751C315.588 200.751 310.675 213.893 292.976 213.25L292.968 208.78Z" fill="#7F6358"/>
<path d="M281.762 161.066C281.791 161.73 282.081 162.356 282.568 162.807C283.056 163.259 283.702 163.5 284.366 163.479C284.687 163.487 285.007 163.431 285.306 163.314C285.605 163.197 285.878 163.021 286.108 162.797C286.339 162.573 286.522 162.306 286.648 162.01C286.773 161.714 286.838 161.396 286.84 161.075C286.812 160.409 286.524 159.782 286.036 159.328C285.548 158.874 284.901 158.632 284.236 158.653C283.914 158.645 283.593 158.701 283.293 158.819C282.994 158.937 282.72 159.113 282.49 159.338C282.259 159.563 282.076 159.832 281.951 160.128C281.826 160.425 281.762 160.744 281.762 161.066Z" fill="#263238"/>
<path d="M278.307 154.339C278.637 154.652 280.468 153.133 283.185 152.994C285.902 152.855 287.959 154.113 288.237 153.757C288.367 153.61 288.02 153.028 287.117 152.447C285.902 151.694 284.482 151.339 283.055 151.431C281.643 151.501 280.291 152.018 279.192 152.907C278.394 153.636 278.142 154.2 278.307 154.339Z" fill="#263238"/>
<path d="M306.195 160.415C306.225 161.079 306.514 161.705 307.002 162.156C307.489 162.608 308.135 162.849 308.799 162.828C309.121 162.836 309.442 162.78 309.741 162.662C310.041 162.545 310.314 162.368 310.545 162.143C310.776 161.918 310.959 161.65 311.084 161.353C311.209 161.056 311.273 160.737 311.273 160.415C311.244 159.759 310.96 159.14 310.482 158.689C310.004 158.239 309.369 157.992 308.712 158.002C308.387 157.989 308.063 158.042 307.758 158.157C307.454 158.273 307.176 158.448 306.941 158.674C306.706 158.899 306.519 159.169 306.391 159.468C306.263 159.768 306.196 160.09 306.195 160.415Z" fill="#263238"/>
<path d="M304.937 154.009C305.266 154.322 307.107 152.811 309.815 152.672C312.523 152.534 314.589 153.784 314.866 153.436C315.005 153.28 314.658 152.707 313.747 152.117C312.529 151.369 311.111 151.014 309.685 151.101C308.274 151.173 306.921 151.69 305.822 152.577C305.032 153.263 304.78 153.87 304.937 154.009Z" fill="#263238"/>
<path d="M296.326 175.379C296.326 175.223 294.59 175.024 291.874 174.824C291.179 174.824 290.519 174.685 290.372 174.216C290.273 173.505 290.397 172.78 290.728 172.142C291.306 170.406 291.885 168.609 292.464 166.751C294.912 159.096 296.639 152.803 296.326 152.707C296.014 152.612 293.783 158.783 291.344 166.413C290.762 168.297 290.198 170.102 289.669 171.821C289.275 172.68 289.198 173.652 289.452 174.563C289.566 174.802 289.734 175.011 289.941 175.175C290.149 175.339 290.391 175.454 290.65 175.51C291.037 175.596 291.434 175.631 291.83 175.614C294.616 175.614 296.318 175.536 296.326 175.379Z" fill="#263238"/>
<path d="M304.408 176.829C303.965 176.829 304.122 179.771 301.709 181.994C299.295 184.216 296.153 184.068 296.153 184.476C296.153 184.667 296.882 185.014 298.202 184.979C299.929 184.91 301.576 184.234 302.854 183.07C304.084 181.948 304.828 180.391 304.929 178.73C304.981 177.515 304.608 176.803 304.408 176.829Z" fill="#263238"/>
<path d="M304.494 142.994C304.807 143.723 307.498 143.229 310.7 143.437C313.903 143.645 316.525 144.383 316.907 143.697C317.08 143.368 316.594 142.699 315.518 142.039C314.086 141.24 312.49 140.777 310.853 140.686C309.215 140.594 307.578 140.876 306.065 141.51C304.92 142.039 304.364 142.656 304.494 142.994Z" fill="#263238"/>
<path d="M278.941 145.26C279.453 145.85 281.293 145.112 283.532 144.965C285.772 144.817 287.708 145.156 288.107 144.487C288.289 144.166 287.951 143.559 287.091 143.02C285.936 142.383 284.618 142.102 283.303 142.213C281.988 142.324 280.736 142.823 279.705 143.645C278.941 144.322 278.715 144.956 278.941 145.26Z" fill="#263238"/>
<path d="M334.311 162.472C334.606 162.325 346.246 158.236 346.515 170.284C346.784 182.332 334.58 180.136 334.554 179.832C334.528 179.528 334.311 162.472 334.311 162.472Z" fill="#F0B79D"/>
<path d="M338.147 175.18C338.199 175.18 338.364 175.319 338.72 175.475C339.224 175.678 339.787 175.678 340.291 175.475C341.558 174.98 342.591 172.923 342.609 170.744C342.612 169.707 342.387 168.682 341.949 167.741C341.827 167.367 341.617 167.028 341.336 166.753C341.054 166.478 340.711 166.275 340.334 166.161C340.09 166.103 339.834 166.132 339.609 166.243C339.384 166.354 339.204 166.54 339.102 166.769C338.946 167.107 339.032 167.35 338.963 167.368C338.894 167.385 338.703 167.168 338.789 166.673C338.851 166.371 339.013 166.099 339.249 165.901C339.41 165.772 339.595 165.676 339.793 165.619C339.992 165.563 340.199 165.546 340.404 165.571C340.902 165.658 341.369 165.872 341.761 166.191C342.153 166.51 342.457 166.924 342.643 167.394C343.184 168.43 343.461 169.584 343.451 170.753C343.451 173.192 342.227 175.492 340.491 176.039C340.168 176.142 339.826 176.17 339.491 176.122C339.156 176.074 338.836 175.95 338.555 175.761C338.173 175.466 338.104 175.197 338.147 175.18Z" fill="#7F6358"/>
<path d="M281.71 127.084C279.74 126.034 285.529 119.619 290.312 117.371C297.534 113.986 308.609 111.816 315.328 113.63C323.426 115.809 330.179 119.706 334.328 127.032C338.477 134.358 340.109 142.855 339.979 151.24C339.935 153.801 339.71 156.448 338.364 158.653C336.715 161.344 333.495 163.071 333.686 166.76C333.74 167.427 333.661 168.098 333.454 168.734C333.247 169.37 332.915 169.959 332.479 170.466C330.292 172.845 327.558 170.666 326.29 168.47C323.565 163.766 323.2 158.115 322.896 152.699C322.679 148.845 322.471 144.887 323.513 141.189C324.077 139.166 325.006 137.248 325.457 135.2C325.908 133.151 325.822 130.86 324.52 129.167C324.221 128.81 323.89 128.482 323.53 128.186C321.823 126.738 319.763 125.77 317.559 125.379C315.356 124.989 313.088 125.191 310.988 125.964C304.208 128.464 292.629 132.214 289.565 129.94C285.156 126.667 284.08 124.515 284.08 124.515L281.71 127.084Z" fill="#263238"/>
<path d="M314.676 111.972C308.009 109.837 300.44 110.054 294.269 113.361C290.988 115.097 288.037 117.892 287.082 121.477C286.127 125.061 287.707 129.462 291.162 130.816L291.405 130.964C296.613 132.63 299.928 131.901 305.05 130.052C309.39 128.499 313.174 125.782 317.488 124.246C322.113 122.618 327.118 122.41 331.862 123.647C327.175 118.456 321.351 114.133 314.676 111.972Z" fill="#263238"/>
<path d="M337.652 123.95C337.548 124.037 336.576 122.883 334.614 121.52C333.472 120.723 332.24 120.064 330.942 119.558C329.39 118.904 327.711 118.608 326.029 118.69C322.95 119.033 320.029 120.236 317.601 122.162C315.726 123.647 314.858 124.897 314.745 124.81C314.633 124.723 314.876 124.437 315.275 123.881C315.844 123.093 316.499 122.371 317.228 121.728C319.669 119.571 322.721 118.228 325.96 117.883C327.763 117.78 329.564 118.101 331.22 118.821C332.558 119.38 333.813 120.119 334.953 121.017C336.906 122.588 337.739 123.898 337.652 123.95Z" fill="#455A64"/>
<path d="M338.875 128.23C338.775 129.432 338.463 130.607 337.955 131.702C335.783 137.121 331.794 141.616 326.671 144.418C325.653 145.051 324.53 145.498 323.356 145.737C323.208 145.503 328.433 143.524 332.817 138.507C337.2 133.49 338.624 128.117 338.875 128.23Z" fill="#455A64"/>
<path d="M343.797 130.2C343.892 130.651 343.907 131.115 343.841 131.571C343.778 132.823 343.603 134.066 343.32 135.286C342.392 139.355 340.472 143.13 337.731 146.275C334.989 149.421 331.512 151.839 327.609 153.315C326.438 153.76 325.229 154.103 323.998 154.339C323.553 154.468 323.089 154.515 322.627 154.478C322.627 154.339 324.528 154.009 327.392 152.742C331.129 151.168 334.457 148.761 337.121 145.704C339.786 142.647 341.716 139.021 342.765 135.104C343.58 132.136 343.65 130.2 343.797 130.2Z" fill="#455A64"/>
<path d="M300.831 110.887C300.831 111.026 299.573 111.321 297.628 112.093C292.526 114.121 288.188 117.697 285.224 122.319C284.677 123.318 284.077 124.289 283.428 125.226C283.659 124.087 284.1 123.001 284.73 122.023C286.117 119.575 287.941 117.401 290.111 115.609C292.282 113.819 294.766 112.447 297.437 111.564C298.519 111.137 299.668 110.908 300.831 110.887Z" fill="#455A64"/>
<path d="M347.59 112.406C347.79 112.406 347.26 115.878 344.526 119.133C341.792 122.388 338.45 123.516 338.45 123.317C338.45 123.117 341.375 121.702 343.927 118.612C346.479 115.522 347.347 112.328 347.59 112.406Z" fill="#455A64"/>
<path d="M219.135 328.217L226.305 323.816C227.522 323.076 228.917 322.683 230.341 322.679H244.229L258.568 335.742L262.848 337.878L261.251 360.446L251.928 359.3C251.928 359.3 232.025 360.168 230.098 358.875C228.171 357.581 225.385 353.519 225.385 353.519C225.385 353.519 214.474 349.986 213.406 349.031C209.353 345.395 210.985 344.527 210.985 344.527L209.118 343.659C208.771 344.318 206.054 339.891 206.341 337.669C206.506 336.376 206.124 336.385 206.124 336.385C205.219 335.865 204.44 335.154 203.84 334.301C203.24 333.447 202.834 332.473 202.652 331.446C202.452 330.126 207.86 331.073 207.86 331.073L221.34 331.255L219.135 328.217Z" fill="#F0B79D"/>
<path d="M231.123 330.951L218.441 313.687C217.982 313.058 217.381 312.548 216.687 312.196C215.993 311.845 215.226 311.662 214.448 311.664H189.38C188.897 311.664 188.433 311.856 188.091 312.198C187.75 312.54 187.558 313.003 187.558 313.487C187.562 313.923 187.718 314.344 188 314.676L202.366 331.342L231.123 330.951Z" fill="#455A64"/>
<path d="M224.977 338.025C224.054 338.273 223.103 338.399 222.147 338.398C217.554 338.666 212.947 338.269 208.468 337.218C207.526 337.048 206.609 336.756 205.742 336.35C206.69 336.415 207.63 336.557 208.555 336.775C210.291 337.079 212.66 337.452 215.316 337.643C217.972 337.834 220.385 337.921 222.13 337.912C223.081 337.866 224.033 337.904 224.977 338.025Z" fill="#7F6358"/>
<path d="M228.579 345.586C227.655 345.832 226.704 345.957 225.749 345.959C223.455 346.096 221.155 346.064 218.866 345.863C216.574 345.668 214.3 345.305 212.061 344.778C211.121 344.609 210.207 344.317 209.344 343.91C210.291 343.975 211.232 344.118 212.156 344.336C213.892 344.639 216.262 345.013 218.918 345.204C221.574 345.395 223.987 345.481 225.732 345.473C226.682 345.426 227.635 345.464 228.579 345.586Z" fill="#7F6358"/>
<path d="M202.687 331.446C202.791 331.981 202.931 332.508 203.103 333.026C203.673 334.454 204.775 335.605 206.176 336.237L206.272 336.281V336.385C206.241 337.912 206.577 339.424 207.252 340.794C208.086 342.479 209.466 343.831 211.167 344.631L211.401 344.735L211.289 344.952C211.158 345.223 211.091 345.519 211.091 345.82C211.091 346.12 211.158 346.417 211.289 346.688C211.584 347.273 212.005 347.786 212.521 348.19C213.668 349.073 214.93 349.797 216.271 350.342C219.243 351.576 222.319 352.54 225.463 353.224H225.585L225.645 353.328C226.45 354.495 227.398 355.556 228.466 356.488C229.494 357.507 230.759 358.255 232.147 358.666C233.216 358.929 234.318 359.041 235.419 358.996L238.717 359.083L245.08 359.257L256.537 359.578H256.581L270.234 362.364L274.028 363.18L275.017 363.414C275.135 363.428 275.25 363.463 275.356 363.518C275.24 363.532 275.124 363.532 275.008 363.518L274.002 363.362L270.174 362.685L256.477 360.081H256.52L245.062 359.838L238.709 359.691L235.402 359.612C234.25 359.648 233.1 359.525 231.982 359.248C230.503 358.814 229.155 358.021 228.058 356.939C226.952 355.972 225.975 354.866 225.151 353.649L225.333 353.779C222.155 353.081 219.049 352.09 216.054 350.82C214.67 350.246 213.37 349.487 212.191 348.563C211.612 348.094 211.146 347.501 210.829 346.827C210.678 346.492 210.605 346.128 210.614 345.762C210.623 345.395 210.714 345.035 210.881 344.709L211.002 345.03C209.211 344.169 207.766 342.724 206.905 340.933C206.227 339.498 205.908 337.919 205.976 336.333L206.072 336.48C205.346 336.141 204.697 335.659 204.163 335.062C203.629 334.466 203.221 333.767 202.964 333.008C202.777 332.509 202.682 331.979 202.687 331.446Z" fill="#7F6358"/>
<path d="M232.685 352.226C232.754 352.365 231.071 353.224 228.788 353.528C226.505 353.831 224.665 353.45 224.691 353.302C224.717 353.154 226.522 353.224 228.71 352.92C230.897 352.616 232.624 352.061 232.685 352.226Z" fill="#7F6358"/>
<path d="M239.125 330.925C239.125 331.09 236.373 331.324 232.953 331.454C229.534 331.585 226.765 331.541 226.765 331.368C226.765 331.194 229.516 330.968 232.936 330.838C236.356 330.708 239.125 330.751 239.125 330.925Z" fill="#7F6358"/>
<path d="M262.579 336.029C262.579 336.029 262.319 336.281 261.711 336.376C260.839 336.47 259.961 336.275 259.211 335.821C258.163 335.136 257.183 334.351 256.286 333.477L252.866 330.482L246.617 325.109C245.709 324.414 244.861 323.645 244.082 322.809C245.078 323.374 246.017 324.034 246.886 324.78C248.561 326.064 250.835 327.904 253.274 329.988C254.489 331.047 255.635 332.071 256.659 333.017C257.515 333.89 258.441 334.692 259.428 335.413C260.097 335.86 260.881 336.101 261.685 336.107C262.258 336.116 262.562 335.977 262.579 336.029Z" fill="#7F6358"/>
<path d="M228.449 331.324C228.323 331.212 228.21 331.087 228.11 330.951L227.242 329.84L223.944 325.682L219.187 319.485L216.392 315.822C215.899 315.221 215.251 314.768 214.517 314.511C214.142 314.381 213.751 314.302 213.354 314.277C212.964 314.277 212.486 314.277 212.104 314.277L194.744 314.207L189.476 314.138H188.043C187.875 314.142 187.706 314.127 187.54 314.094C187.705 314.055 187.874 314.041 188.043 314.051L189.476 314.008L194.744 313.93L212.104 313.869C212.538 313.869 212.972 313.869 213.389 313.869C213.824 313.898 214.253 313.986 214.665 314.129C215.474 314.418 216.188 314.922 216.731 315.587L219.517 319.276L224.196 325.535C225.489 327.271 226.548 328.72 227.321 329.779C227.659 330.248 227.928 330.647 228.189 330.942C228.291 331.058 228.378 331.187 228.449 331.324Z" fill="#263238"/>
<path d="M201.185 316.724C201.346 316.6 201.54 316.527 201.743 316.512C201.945 316.498 202.148 316.544 202.325 316.644C202.502 316.745 202.645 316.895 202.737 317.076C202.828 317.258 202.865 317.462 202.841 317.664C202.817 317.866 202.734 318.056 202.602 318.211C202.471 318.366 202.296 318.479 202.101 318.535C201.906 318.592 201.698 318.589 201.504 318.528C201.31 318.467 201.139 318.35 201.011 318.191C200.85 317.979 200.774 317.714 200.8 317.448C200.826 317.183 200.951 316.937 201.15 316.759" fill="#F5F5F5"/>
<path d="M335.551 208.207L370.862 228.961L377.354 343.537L385.791 408.359H258.89C258.89 408.359 260.287 329.467 260.721 305.605C261.034 288.879 260.582 256.459 266.242 236.521C268.655 228.024 292.282 217.043 292.282 217.043C305.223 228.475 319.693 225.064 335.551 208.207Z" fill="#2A4E96"/>
<path d="M382.059 379.715C382.059 379.837 354.665 379.941 320.865 379.941C287.065 379.941 259.671 379.837 259.671 379.715C259.671 379.594 287.065 379.49 320.865 379.49C354.665 379.49 382.059 379.585 382.059 379.715Z" fill="white"/>
<g opacity="0.3">
<path opacity="0.3" d="M259.593 360.22C269.419 368.457 284.687 372.919 297.255 375.462C309.824 378.005 322.662 378.934 335.265 381.243C344.075 382.883 353.319 385.201 361.817 382.337C366.048 380.834 369.758 378.148 372.506 374.598C375.254 371.048 376.925 366.784 377.32 362.312C377.383 362.012 377.381 361.702 377.315 361.403C377.249 361.103 377.121 360.822 376.938 360.576C376.684 360.383 376.394 360.245 376.085 360.17C375.776 360.096 375.454 360.086 375.141 360.142C337.201 361.826 297.021 361.591 259.593 360.194" fill="black"/>
</g>
<path d="M252.874 336.472H341.549L341.983 289.747L382.9 284.47C382.9 284.47 383.083 331.923 383.083 347.486C383.083 366.166 366.938 379.151 353.38 377.155C339.822 375.158 252.874 358.927 252.874 358.927V336.472Z" fill="#F0B79D"/>
<path d="M385.739 294.174L338.051 299.13V243.179C338.051 243.179 342.738 224.274 359.213 225.064C375.687 225.854 385.391 243.674 385.739 260.018C386.086 276.362 385.739 294.174 385.739 294.174Z" fill="#2A4E96"/>
<path d="M271.285 229.959C271.285 229.959 255.999 240.019 251.902 251.121C247.606 262.761 241.573 300.467 241.573 300.467H263.004L271.285 229.959Z" fill="#2A4E96"/>
<path d="M337.652 245.401C337.708 246.08 337.708 246.762 337.652 247.441C337.608 248.856 337.548 250.731 337.478 253.005C337.339 257.692 337.192 264.176 337.209 271.337C337.227 278.498 337.418 284.982 337.6 289.669C337.687 291.943 337.756 293.818 337.808 295.233C337.861 295.912 337.861 296.594 337.808 297.273C337.671 296.603 337.59 295.924 337.565 295.242C337.444 293.94 337.296 292.039 337.157 289.695C336.871 284.999 336.619 278.515 336.593 271.337C336.567 264.158 336.784 257.675 337.044 252.979C337.166 250.635 337.296 248.743 337.409 247.432C337.437 246.75 337.519 246.071 337.652 245.401Z" fill="#263238"/>
<path d="M361.661 225.966C361.661 226.088 360.064 225.663 357.477 225.706C354.11 225.741 350.814 226.689 347.944 228.45C345.073 230.212 342.734 232.719 341.176 235.705C339.97 237.988 339.631 239.585 339.519 239.559C339.526 239.176 339.59 238.795 339.71 238.431C339.971 237.424 340.334 236.447 340.795 235.514C342.293 232.381 344.664 229.747 347.624 227.93C350.584 226.113 354.005 225.19 357.477 225.272C358.519 225.29 359.557 225.409 360.576 225.628C360.953 225.684 361.319 225.798 361.661 225.966Z" fill="#263238"/>
<path d="M261.467 256.312C261.508 256.521 261.528 256.733 261.528 256.945C261.528 257.431 261.528 258.03 261.58 258.76C261.58 260.331 261.632 262.605 261.632 265.417C261.632 271.042 261.546 278.81 261.381 287.386C261.216 295.962 261.051 303.644 260.938 309.347C260.886 312.089 260.843 314.346 260.808 316.004C260.808 316.733 260.756 317.332 260.738 317.818C260.749 318.028 260.729 318.239 260.678 318.443C260.632 318.238 260.612 318.028 260.617 317.818C260.617 317.332 260.617 316.733 260.565 316.004C260.565 314.433 260.513 312.159 260.513 309.347C260.513 303.722 260.599 295.953 260.764 287.369C260.929 278.784 261.086 271.111 261.198 265.417C261.259 262.666 261.303 260.417 261.337 258.76C261.337 258.03 261.389 257.431 261.398 256.945C261.392 256.732 261.415 256.519 261.467 256.312Z" fill="#263238"/>
<path d="M260.921 275.052C258.508 275.256 256.085 275.311 253.665 275.217C251.242 275.269 248.819 275.17 246.408 274.922C248.821 274.718 251.245 274.663 253.665 274.757C256.087 274.699 258.511 274.798 260.921 275.052Z" fill="white"/>
<path d="M336.836 262.136C336.836 262.257 320.344 262.362 300.076 262.362C279.808 262.362 263.299 262.257 263.299 262.136C263.299 262.014 279.791 261.91 300.076 261.91C320.361 261.91 336.836 261.988 336.836 262.136Z" fill="white"/>
<path d="M384.706 254.48C384.545 254.499 384.382 254.499 384.22 254.48L382.849 254.367L377.814 253.933C373.553 253.578 367.668 253.187 361.158 253.005C354.648 252.822 348.745 252.901 344.475 253.005L339.414 253.161H338.043C337.882 253.184 337.718 253.184 337.557 253.161C337.713 253.12 337.873 253.097 338.034 253.091L339.405 252.97C340.603 252.874 342.322 252.77 344.466 252.666C348.736 252.466 354.639 252.354 361.166 252.527C367.694 252.701 373.587 253.152 377.841 253.586C379.967 253.803 381.686 254.003 382.866 254.168L384.229 254.359C384.393 254.378 384.553 254.419 384.706 254.48Z" fill="white"/>
<path d="M385.158 287.629C385.158 287.759 374.386 287.629 361.114 287.317C347.842 287.004 337.062 286.666 337.07 286.544C337.079 286.423 347.834 286.544 361.123 286.865C374.412 287.186 385.158 287.508 385.158 287.629Z" fill="white"/>
<path d="M341.836 234.265C341.836 234.395 324.841 234.49 303.879 234.49C282.916 234.49 265.921 234.395 265.921 234.265C265.921 234.134 282.916 234.039 303.879 234.039C324.841 234.039 341.836 234.143 341.836 234.265Z" fill="white"/>
<path d="M337.079 297.333C337.079 297.455 320.032 297.559 299 297.559C277.968 297.559 260.921 297.455 260.921 297.333C260.921 297.212 277.968 297.108 299 297.108C320.032 297.108 337.079 297.203 337.079 297.333Z" fill="white"/>
<path d="M342.547 325.179C342.547 325.3 324.007 325.405 301.144 325.405C278.281 325.405 259.731 325.3 259.731 325.179C259.731 325.057 278.272 324.953 301.144 324.953C324.016 324.953 342.547 325.049 342.547 325.179Z" fill="white"/>
<path d="M384.463 405.469C384.463 405.59 356.505 405.695 322.028 405.695C287.551 405.695 259.593 405.59 259.593 405.469C259.593 405.347 287.542 405.243 322.028 405.243C356.514 405.243 384.463 405.356 384.463 405.469Z" fill="white"/>
<g opacity="0.3">
<path opacity="0.3" d="M337.47 299.66C336.914 288.601 337.313 278.255 336.749 267.205C332.984 283.421 331.206 300.035 331.454 316.681C331.515 320.63 331.706 324.649 332.982 328.39C334.258 332.131 337.791 335.334 341.402 336.932L341.749 299.182C340.126 299.304 339.102 299.581 337.47 299.66Z" fill="black"/>
</g>
<path d="M91.7657 367.581L85.5074 408.698H49.1469L40.71 368.171L91.7657 367.581Z" fill="#2A4E96"/>
<path d="M45.7959 393.933C45.7959 394.055 55.1095 394.15 66.6279 394.15C78.1463 394.15 87.4599 394.055 87.4599 393.933C87.4599 393.812 78.1463 393.725 66.6279 393.725C55.1095 393.725 45.7959 393.82 45.7959 393.933Z" fill="#FAFAFA"/>
<path d="M45.6572 391.911C45.6572 392.032 55.0316 392.128 66.6021 392.128C78.1725 392.128 87.5469 392.032 87.5469 391.911C87.5469 391.789 78.1725 391.702 66.6021 391.702C55.0316 391.702 45.6572 391.798 45.6572 391.911Z" fill="#FAFAFA"/>
<path d="M45.7266 389.628C45.7266 389.749 55.101 389.845 66.6714 389.845C78.2418 389.845 87.6162 389.749 87.6162 389.628C87.6162 389.506 78.2418 389.411 66.6714 389.411C55.101 389.411 45.7266 389.506 45.7266 389.628Z" fill="#FAFAFA"/>
<path d="M81.332 406.354C81.8361 404.649 82.2075 402.908 82.4431 401.146C82.815 399.417 83.0472 397.661 83.1375 395.895C82.626 397.598 82.2544 399.339 82.0264 401.103C81.6495 402.831 81.4172 404.587 81.332 406.354Z" fill="#FAFAFA"/>
<path d="M78.8584 405.92C79.1056 404.246 79.2563 402.56 79.3098 400.868C79.4932 399.185 79.5715 397.492 79.5441 395.799C79.1477 397.45 78.9266 399.137 78.8845 400.834C78.6909 402.523 78.6821 404.229 78.8584 405.92Z" fill="#FAFAFA"/>
<path d="M74.3447 405.92C75.1944 402.514 75.6057 399.014 75.5686 395.504C75.2378 397.226 75.0031 398.965 74.8655 400.712C74.5985 402.438 74.4247 404.176 74.3447 405.92Z" fill="#FAFAFA"/>
<path d="M71.1762 406.137C71.7341 402.647 71.8479 399.101 71.5147 395.582C71.3266 397.335 71.2396 399.097 71.2543 400.86C71.1235 402.616 71.0975 404.378 71.1762 406.137Z" fill="#FAFAFA"/>
<path d="M65.5778 405.92C65.8529 404.268 65.9836 402.595 65.9684 400.921C66.0937 399.253 66.0763 397.577 65.9164 395.912C65.6522 397.565 65.5244 399.238 65.5344 400.912C65.4144 402.58 65.4289 404.255 65.5778 405.92Z" fill="#FAFAFA"/>
<path d="M61.4896 406.137C61.6959 404.409 61.754 402.667 61.6632 400.929C61.7201 399.203 61.633 397.476 61.4028 395.765C61.208 397.493 61.1529 399.235 61.2379 400.973C61.181 402.698 61.2652 404.425 61.4896 406.137Z" fill="#FAFAFA"/>
<path d="M57.6527 405.582C57.696 403.777 57.5915 401.971 57.3402 400.183C57.2355 398.381 56.9917 396.591 56.6111 394.827C56.5677 396.632 56.6722 398.438 56.9236 400.226C57.0284 402.027 57.2721 403.818 57.6527 405.582Z" fill="#FAFAFA"/>
<path d="M52.7058 405.044C52.6994 403.493 52.4952 401.95 52.0982 400.452C51.8368 398.925 51.3818 397.437 50.7441 396.025C50.9745 397.548 51.2874 399.058 51.6816 400.547C51.9353 402.065 52.2773 403.566 52.7058 405.044Z" fill="#FAFAFA"/>
<path d="M56.2121 286.44C56.2014 286.509 56.2014 286.579 56.2121 286.648C56.2121 286.805 56.3075 286.996 56.377 287.23C56.5506 287.768 56.7763 288.506 57.0714 289.443C57.3665 290.381 57.7571 291.587 58.139 292.967C58.5209 294.347 59.007 295.901 59.4497 297.655C59.8924 299.408 60.4132 301.309 60.8645 303.383C61.3159 305.458 61.7933 307.663 62.2707 310.006C63.1387 314.693 63.9373 319.875 64.4928 325.344C65.0483 330.812 65.274 336.064 65.3608 340.838C65.3608 343.216 65.3608 345.481 65.3 347.608C65.2393 349.735 65.1438 351.696 65.0396 353.502C64.9355 355.307 64.7966 356.922 64.6837 358.354C64.5709 359.786 64.4494 361.01 64.3279 362.017C64.2063 363.024 64.1456 363.753 64.0935 364.326C64.0935 364.569 64.0761 364.768 64.0414 364.925C64.0414 365.063 64.0414 365.133 64.0414 365.133C64.0705 365.07 64.0882 365.002 64.0935 364.933C64.0935 364.777 64.1456 364.577 64.189 364.334C64.2584 363.779 64.3713 363.006 64.5015 362.034C64.6317 361.062 64.7966 359.803 64.9268 358.38C65.057 356.956 65.2479 355.324 65.3521 353.519C65.4563 351.714 65.6038 349.743 65.6559 347.617C65.708 345.49 65.7514 343.225 65.7687 340.829C65.7167 336.055 65.4823 330.795 64.9007 325.309C64.3192 319.823 63.5293 314.624 62.6353 309.928C62.1492 307.584 61.7152 305.362 61.1944 303.297C60.6736 301.231 60.2049 299.312 59.7275 297.576C59.2501 295.84 58.764 294.269 58.3473 292.898C57.9307 291.526 57.5488 290.346 57.2103 289.426C56.8717 288.506 56.6287 287.768 56.4464 287.23C56.3596 287.004 56.2902 286.813 56.2381 286.666C56.2344 286.59 56.2257 286.515 56.2121 286.44Z" fill="#263238"/>
<path d="M62.7743 311.898C61.7731 308.933 59.7726 306.408 57.1149 304.755C56.2469 304.199 55.0838 303.748 54.129 304.208C52.8617 304.824 52.7576 306.604 53.1395 307.966C53.7989 310.276 55.2729 312.268 57.2885 313.574C59.0599 314.886 61.2784 315.444 63.46 315.127" fill="#263238"/>
<path d="M64.9794 329.094C64.0419 325.543 61.2122 320.5 58.2697 318.296C57.819 317.928 57.2997 317.654 56.742 317.488C56.4628 317.405 56.1669 317.392 55.8817 317.453C55.5965 317.514 55.3311 317.645 55.1102 317.836C54.8593 318.168 54.6948 318.558 54.6311 318.97C54.5675 319.382 54.6069 319.803 54.7456 320.197C55.3488 322.785 56.6605 325.155 58.5337 327.04C60.407 328.926 62.768 330.253 65.3526 330.873" fill="#263238"/>
<path d="M65.5864 344.223C64.1266 340.835 61.7895 337.899 58.816 335.716C58.5017 335.419 58.1304 335.189 57.7246 335.04C57.3187 334.891 56.8868 334.826 56.455 334.848C55.1704 335.074 54.5888 336.645 54.719 337.947C54.9534 340.621 57.0019 342.773 59.1111 344.431C61.0472 345.774 63.1513 346.857 65.3694 347.651" fill="#263238"/>
<path d="M65.2477 355.107C63.8368 352.52 61.8681 350.278 59.4842 348.545C58.973 348.157 58.3788 347.893 57.7482 347.773C57.4277 347.705 57.0946 347.73 56.7874 347.843C56.4802 347.957 56.2115 348.155 56.0122 348.415C55.4306 349.283 56.0122 350.412 56.6024 351.236C58.6347 354.065 61.5132 356.174 64.8224 357.26" fill="#263238"/>
<path d="M65.5346 350.672C68.0173 347.63 70.7779 344.826 73.7806 342.296C73.9807 342.064 74.2358 341.886 74.5224 341.779C74.8089 341.671 75.1179 341.637 75.4211 341.68C75.6403 341.77 75.8283 341.923 75.9624 342.119C76.0965 342.314 76.1708 342.545 76.1763 342.782C76.1763 343.259 76.0695 343.731 75.8638 344.162C74.8787 346.349 73.4136 348.286 71.5773 349.829C69.7411 351.373 67.5808 352.482 65.2568 353.076" fill="#263238"/>
<path d="M65.2656 336.532L71.7409 328.642C72.3104 327.851 73.0229 327.174 73.8415 326.646C74.258 326.395 74.7352 326.262 75.2216 326.262C75.708 326.262 76.1851 326.395 76.6017 326.646C76.9745 326.956 77.2533 327.364 77.4067 327.824C77.56 328.284 77.5818 328.778 77.4697 329.25C77.2382 330.198 76.8061 331.086 76.2024 331.854C74.9451 333.765 73.3545 335.435 71.5065 336.784C69.6056 338.095 67.8783 338.945 65.5955 338.607" fill="#263238"/>
<path d="M64.3711 320.587C65.635 316.809 67.8819 313.436 70.8811 310.813C71.3593 310.332 71.9594 309.99 72.6171 309.824C73.2769 309.772 73.9342 309.952 74.476 310.332C75.0177 310.712 75.4101 311.269 75.5857 311.907C75.7936 312.622 75.8485 313.372 75.7468 314.11C75.6451 314.847 75.389 315.555 74.9954 316.186C74.2075 317.452 73.1746 318.546 71.9574 319.407C69.7766 321.071 67.3486 322.383 64.7617 323.295" fill="#263238"/>
<path d="M61.7852 306.404C62.4101 301.83 64.7884 298.019 67.5487 294.321C68.1302 293.54 68.9462 292.716 69.901 292.863C70.2052 292.927 70.4887 293.066 70.7252 293.268C70.9618 293.469 71.144 293.727 71.255 294.018C71.4695 294.603 71.5554 295.228 71.5068 295.849C71.3884 298.621 70.4558 301.296 68.8256 303.541C67.1954 305.785 64.9398 307.5 62.3407 308.47" fill="#263238"/>
<path d="M59.9703 299.113C60.2694 296.77 60.3479 294.405 60.2046 292.047C60.0577 289.675 59.2455 287.391 57.861 285.459C57.2825 284.63 56.4824 283.98 55.5522 283.584C55.0794 283.395 54.566 283.331 54.0613 283.398C53.5567 283.465 53.0777 283.661 52.6704 283.966C52.3259 284.289 52.0581 284.685 51.8869 285.125C51.7157 285.566 51.6453 286.038 51.6809 286.509C51.7677 287.447 52.0143 288.363 52.41 289.218C54.146 293.367 57.0104 297.958 60.0137 299.113" fill="#263238"/>
<path d="M88.1629 304.564C88.1423 304.757 88.1423 304.952 88.1629 305.145C88.1629 305.571 88.1629 306.118 88.1629 306.803C88.1629 307.489 88.1629 308.409 88.1195 309.407C88.0761 310.405 88.1195 311.595 87.998 312.879C87.8851 315.483 87.6334 318.504 87.2428 321.889C86.8522 325.274 86.1925 328.972 85.4026 332.835C84.6128 336.697 83.6666 340.299 82.6511 343.563C81.6355 346.827 80.646 349.709 79.7172 352.113C79.2832 353.319 78.8492 354.396 78.4413 355.342C78.0333 356.288 77.7122 357.078 77.417 357.764L76.7747 359.291C76.69 359.467 76.6203 359.65 76.5664 359.838C76.678 359.677 76.7739 359.505 76.8528 359.326C77.0351 358.944 77.2695 358.458 77.5733 357.833C77.8771 357.208 78.259 356.383 78.6583 355.437C79.0576 354.491 79.5263 353.432 80.0037 352.226C80.9672 349.83 82.0001 346.931 83.0243 343.676C84.0486 340.421 84.9947 336.775 85.8193 332.921C86.6439 329.067 87.182 325.352 87.5553 321.959C87.9285 318.565 88.1455 315.501 88.215 312.914C88.2844 311.629 88.267 310.458 88.2757 309.442C88.2844 308.426 88.2757 307.532 88.2757 306.838C88.2757 306.144 88.2757 305.605 88.215 305.18C88.2226 304.973 88.2052 304.766 88.1629 304.564Z" fill="#263238"/>
<path d="M87.1475 323.313C87.1035 321.081 86.2875 318.934 84.8386 317.237C84.6255 316.924 84.3394 316.668 84.0052 316.491C83.6709 316.314 83.2985 316.222 82.9203 316.221C81.9221 316.369 81.4708 317.558 81.436 318.565C81.3829 320.274 81.9502 321.945 83.0332 323.269C83.9568 324.542 85.3445 325.399 86.8958 325.656" fill="#263238"/>
<path d="M84.9512 335.499C85.0727 332.895 84.2307 328.833 82.703 326.707C82.4745 326.362 82.1794 326.067 81.835 325.839C81.6606 325.725 81.4609 325.656 81.2535 325.638C81.0461 325.619 80.8374 325.653 80.6459 325.734C80.4006 325.902 80.2024 326.129 80.0701 326.395C79.9379 326.661 79.8762 326.957 79.8907 327.253C79.7446 329.145 80.1276 331.039 80.9967 332.726C81.8659 334.412 83.187 335.823 84.8123 336.801" fill="#263238"/>
<path d="M82.1047 345.933C81.8434 343.311 80.8876 340.806 79.3358 338.676C79.1805 338.411 78.9738 338.179 78.7279 337.994C78.482 337.809 78.2018 337.675 77.9036 337.6C76.9835 337.478 76.2457 338.425 76.0461 339.336C75.6294 341.202 76.5582 343.103 77.6345 344.692C78.6659 346.021 79.8651 347.211 81.202 348.233" fill="#263238"/>
<path d="M79.5353 353.276C79.1282 351.214 78.2718 349.267 77.0268 347.573C76.7562 347.213 76.4094 346.916 76.0112 346.705C75.8088 346.6 75.5815 346.551 75.3537 346.565C75.1259 346.579 74.9061 346.654 74.7179 346.783C74.145 347.235 74.2752 348.129 74.5182 348.823C75.3007 351.195 76.8215 353.254 78.8582 354.7" fill="#263238"/>
<path d="M80.7245 350.316C83.0681 348.778 85.5497 347.462 88.1372 346.384C88.3226 346.268 88.5346 346.2 88.7532 346.188C88.9718 346.176 89.1899 346.219 89.3871 346.315C89.5093 346.419 89.6 346.556 89.6491 346.709C89.6981 346.863 89.7036 347.026 89.6649 347.183C89.5632 347.507 89.3879 347.805 89.1527 348.051C88.0127 349.33 86.5988 350.335 85.0163 350.992C83.4337 351.649 81.7234 351.94 80.0127 351.844" fill="#263238"/>
<path d="M83.5457 340.621C85.5826 339.301 87.6079 337.976 89.6217 336.645C90.1832 336.24 90.8165 335.946 91.4879 335.777C91.8215 335.662 92.1831 335.654 92.521 335.757C92.859 335.859 93.156 336.065 93.3697 336.346C93.5833 336.627 93.7028 336.969 93.7109 337.322C93.719 337.675 93.6154 338.021 93.4148 338.312C93.0503 338.904 92.5653 339.412 91.9913 339.805C90.7197 340.857 89.2666 341.669 87.7034 342.2C87.0062 342.497 86.2563 342.65 85.4987 342.65C84.741 342.65 83.9912 342.497 83.2939 342.2" fill="#263238"/>
<path d="M86.3667 329.58C88.0447 327.282 90.2993 325.467 92.9028 324.319C93.3271 324.105 93.7988 324 94.2742 324.016C94.7345 324.122 95.1432 324.386 95.4299 324.762C95.7167 325.137 95.8636 325.601 95.8453 326.073C95.8305 326.604 95.7047 327.127 95.476 327.606C95.2473 328.086 94.9207 328.513 94.5173 328.859C93.7096 329.551 92.7709 330.074 91.757 330.395C89.9144 331.061 87.9778 331.43 86.0195 331.489" fill="#263238"/>
<path d="M87.6681 319.346C89.0742 316.369 91.5133 314.285 94.1868 312.358C94.4362 312.117 94.7445 311.945 95.0811 311.86C95.4177 311.774 95.7707 311.779 96.105 311.872C96.2989 311.981 96.4625 312.136 96.5807 312.324C96.699 312.512 96.7682 312.727 96.7821 312.949C96.8027 313.394 96.7257 313.838 96.5564 314.251C95.8787 316.112 94.6678 317.733 93.0748 318.911C91.4818 320.089 89.5772 320.771 87.5986 320.874" fill="#263238"/>
<path d="M87.9983 314.016C88.7056 312.484 89.2665 310.889 89.6735 309.251C90.0862 307.604 90.026 305.874 89.4999 304.26C89.2682 303.582 88.8537 302.981 88.3021 302.524C88.0205 302.293 87.6842 302.138 87.3255 302.074C86.9668 302.01 86.5977 302.04 86.2536 302.16C85.9502 302.306 85.6835 302.518 85.4732 302.781C85.2629 303.044 85.1143 303.35 85.0384 303.679C84.8879 304.333 84.8585 305.01 84.9516 305.675C85.2294 308.869 86.2015 312.619 87.9983 314.06" fill="#263238"/>
<path d="M42.1937 304.165C42.1807 304.358 42.1807 304.552 42.1937 304.746C42.1937 305.171 42.1503 305.718 42.133 306.404C42.1156 307.09 42.0809 308.01 42.133 309.008C42.1851 310.006 42.133 311.204 42.1937 312.48C42.2719 315.084 42.4889 318.131 42.8534 321.525C43.218 324.918 43.8256 328.633 44.5894 332.487C45.3533 336.341 46.3775 339.978 47.3757 343.242C48.3739 346.506 49.4329 349.396 50.405 351.792C50.8651 352.998 51.3425 354.057 51.7504 355.003C52.1584 355.949 52.5143 356.739 52.8354 357.399L53.5559 358.892C53.6302 359.072 53.7233 359.244 53.8336 359.404C53.7808 359.217 53.7141 359.034 53.634 358.857L52.9483 357.364C52.6531 356.705 52.3059 355.897 51.9327 354.943C51.5595 353.988 51.0647 352.92 50.6481 351.714C49.7193 349.309 48.7211 346.41 47.7142 343.164C46.7073 339.917 45.7786 336.281 44.9627 332.444C44.1467 328.607 43.5912 324.901 43.1659 321.525C42.7406 318.148 42.5323 315.084 42.4194 312.48C42.3326 311.195 42.3239 310.032 42.2892 309.008C42.2545 307.984 42.2892 307.098 42.2892 306.404C42.2892 305.71 42.2892 305.171 42.2892 304.746C42.2821 304.549 42.25 304.354 42.1937 304.165Z" fill="#455A64"/>
<path d="M43.21 322.896C43.2535 320.663 44.0729 318.515 45.5275 316.82C45.7382 316.507 46.0225 316.251 46.3555 316.074C46.6885 315.897 47.06 315.804 47.4371 315.804C48.4353 315.952 48.8867 317.141 48.9214 318.148C48.9884 319.871 48.4235 321.56 47.333 322.896C46.4066 324.17 45.0158 325.027 43.4617 325.283" fill="#455A64"/>
<path d="M45.4061 335.1C45.2846 332.496 46.1265 328.434 47.6542 326.307C47.8833 325.963 48.1783 325.668 48.5222 325.439C48.695 325.326 48.8933 325.257 49.0993 325.238C49.3054 325.22 49.5127 325.253 49.7027 325.335C49.948 325.503 50.1462 325.73 50.2784 325.996C50.4107 326.262 50.4724 326.557 50.4579 326.854C50.606 328.746 50.2239 330.641 49.3546 332.328C48.4852 334.014 47.163 335.425 45.5363 336.402" fill="#455A64"/>
<path d="M48.2529 345.533C48.5213 342.912 49.4797 340.408 51.0305 338.277C51.1845 338.012 51.3897 337.78 51.6341 337.596C51.8785 337.411 52.1572 337.277 52.4541 337.201C53.3828 337.079 54.1119 338.025 54.3203 338.937C54.7369 340.803 53.8081 342.712 52.7231 344.292C51.6942 345.624 50.4947 346.814 49.1557 347.834" fill="#455A64"/>
<path d="M50.8311 352.868C51.2352 350.816 52.0922 348.879 53.3396 347.2C53.607 346.84 53.9509 346.543 54.3465 346.332C54.5489 346.227 54.7761 346.178 55.0039 346.192C55.2317 346.206 55.4515 346.281 55.6398 346.41C56.2126 346.861 56.0911 347.764 55.8481 348.45C55.0618 350.82 53.5418 352.878 51.5081 354.326" fill="#455A64"/>
<path d="M49.6852 349.917C47.3385 348.379 44.854 347.063 42.2638 345.985C42.0784 345.868 41.8664 345.801 41.6478 345.789C41.4292 345.777 41.2111 345.82 41.0139 345.915C40.8853 346.025 40.7913 346.169 40.7435 346.331C40.6957 346.493 40.6962 346.665 40.7448 346.827C40.8434 347.151 41.0157 347.448 41.2482 347.695C42.3886 348.973 43.8026 349.978 45.3851 350.635C46.9675 351.292 48.6776 351.583 50.3883 351.488" fill="#455A64"/>
<path d="M46.812 340.256L40.736 336.281C40.1765 335.878 39.5465 335.583 38.8784 335.413C38.5422 335.325 38.1883 335.332 37.8559 335.433C37.5234 335.534 37.2255 335.725 36.9949 335.985C36.8033 336.275 36.6976 336.613 36.6899 336.96C36.6822 337.307 36.7729 337.649 36.9515 337.947C37.311 338.517 37.7837 339.008 38.3403 339.388C39.6131 340.439 41.0659 341.251 42.6282 341.784C43.3269 342.08 44.0782 342.233 44.8373 342.233C45.5963 342.233 46.3476 342.08 47.0463 341.784" fill="#455A64"/>
<path d="M43.9905 329.18C42.3164 326.879 40.0608 325.063 37.4545 323.92C37.0332 323.705 36.5643 323.601 36.0917 323.616C35.6306 323.723 35.2209 323.986 34.9327 324.362C34.6445 324.737 34.4958 325.201 34.5119 325.674C34.5267 326.205 34.6525 326.727 34.8812 327.207C35.1099 327.687 35.4365 328.114 35.84 328.46C36.6476 329.152 37.5864 329.675 38.6002 329.996C40.4428 330.662 42.3794 331.031 44.3377 331.09" fill="#455A64"/>
<path d="M42.6974 318.947C41.2826 315.969 38.8435 313.886 36.1701 311.959C35.9211 311.717 35.6128 311.545 35.276 311.459C34.9393 311.374 34.5861 311.379 34.2518 311.473C34.06 311.583 33.8986 311.739 33.782 311.927C33.6653 312.115 33.5971 312.329 33.5834 312.549C33.5597 312.994 33.6338 313.439 33.8004 313.851C34.479 315.712 35.6902 317.333 37.283 318.51C38.8759 319.688 40.78 320.371 42.7582 320.474" fill="#455A64"/>
<path d="M42.3678 313.617C41.6577 312.085 41.0939 310.49 40.6839 308.852C40.2741 307.204 40.3373 305.474 40.8662 303.861C41.0811 303.158 41.4976 302.533 42.064 302.064C42.3439 301.833 42.6787 301.678 43.0361 301.614C43.3934 301.55 43.7612 301.58 44.1038 301.699C44.4084 301.845 44.6765 302.057 44.8884 302.32C45.1002 302.583 45.2503 302.89 45.3277 303.218C45.4695 303.874 45.4989 304.549 45.4145 305.215C45.1281 308.418 44.1646 312.159 42.3678 313.6" fill="#455A64"/>
<path d="M95.9314 359.439V367.164C95.9314 367.562 95.853 367.956 95.7008 368.323C95.5485 368.691 95.3254 369.025 95.0441 369.306C94.7628 369.587 94.4288 369.81 94.0613 369.963C93.6938 370.115 93.2999 370.193 92.902 370.193H40.2578C39.86 370.193 39.4661 370.115 39.0986 369.963C38.731 369.81 38.3971 369.587 38.1158 369.306C37.8345 369.025 37.6113 368.691 37.4591 368.323C37.3069 367.956 37.2285 367.562 37.2285 367.164V359.439H95.9314Z" fill="#2A4E96"/>
<g opacity="0.4">
<path opacity="0.4" d="M91.3658 370.159L90.9318 372.606L42.3585 376.07L41.126 370.159H91.3658Z" fill="black"/>
</g>
<path d="M408.897 408.533C408.897 408.654 322.965 408.759 217.009 408.759C111.052 408.759 25.1025 408.654 25.1025 408.533C25.1025 408.411 111.035 408.307 217.009 408.307C322.983 408.307 408.897 408.403 408.897 408.533Z" fill="#263238"/>
</svg>
