<svg width="404" height="379" viewBox="0 0 404 379" fill="none" xmlns="http://www.w3.org/2000/svg">
<path d="M378.244 63.7438H222.517V339.74H378.244V63.7438Z" fill="#BDD8FF"/>
<path d="M326.836 63.7438H225.049V339.74H326.836V63.7438Z" fill="#AFCDFB"/>
<path opacity="0.2" d="M148.13 34.3751L37.248 342.877H151.18L148.13 34.3751Z" fill="#599DAD"/>
<path d="M154.812 34.3751V341.135H222.516V60.741L154.812 34.3751Z" fill="#9FC1F4"/>
<path d="M154.813 34.3751H148.131V341.133H154.813V34.3751Z" fill="#77A4E5"/>
<path d="M371.93 318.452H228.825V342.006H371.93V318.452Z" fill="#599DAD"/>
<path d="M282.608 342.006H228.827V318.452H268.341L282.608 342.006Z" fill="#418A96"/>
<path d="M371.934 294.897H259.547V318.452H371.934V294.897Z" fill="#5FABB7"/>
<path d="M371.934 271.345H288.454V294.899H371.934V271.345Z" fill="#6BB7BF"/>
<path d="M371.935 247.79H317.385V271.345H371.935V247.79Z" fill="#79C8CC"/>
<path d="M222.517 61.1287V341.14H378.244V61.1287H222.517ZM371.926 334.514H228.828V67.7543H371.933L371.926 334.514Z" fill="#77A4E5"/>
<path d="M91.5942 300.116C91.5942 300.116 85.0028 292.421 91.1865 287.533C91.1865 287.533 95.7029 284.797 99.3858 285.025C99.3858 285.025 94.1678 293.784 95.8555 294.655C97.5432 295.526 100.969 284.475 100.969 284.475C100.969 284.475 111.247 283.477 114.554 285.068C114.554 285.068 105.765 292.266 107.617 292.695C109.469 293.123 118.959 286.057 118.959 286.057C118.959 286.057 128.525 287.688 128.015 293.529C127.505 299.37 124.214 301.169 122.761 301.012C121.307 300.855 112.837 297.617 112.653 298.805C112.468 299.993 117.568 303.878 121.141 304.06C121.141 304.06 114.397 311.505 109.913 309.357C105.428 307.209 105.048 303.8 102.256 302.517C99.4632 301.233 97.0763 301.242 98.2287 302.544C99.3812 303.846 104.44 305.114 106.036 307.943C107.633 310.773 109.068 312.681 104.431 311.983C99.7935 311.286 92.2546 307.879 91.9244 304.003L91.5942 300.116Z" fill="#418A96"/>
<path d="M123.314 293.679C123.314 293.679 97.3315 292.679 91.5943 300.116C91.5943 300.116 90.3234 303.921 86.4196 307.387L85.8115 309.047C85.8115 309.047 90.3143 304.295 91.9246 304.006C91.9246 304.006 89.4055 294.792 123.314 293.679Z" fill="#418A96"/>
<path d="M86.4191 307.396C86.4191 307.396 80.8413 311.525 80.4541 318.901L81.4676 318.992C81.4676 318.992 83.2487 311.363 86.4669 308.381C89.6851 305.399 86.4191 307.396 86.4191 307.396Z" fill="#418A96"/>
<path d="M68.5542 290.437C68.5542 290.437 79.0311 284.562 74.1434 276.586C74.1434 276.586 70.2305 271.689 66.0375 270.43C66.0375 270.43 68.274 282.323 66.0375 282.603C63.8009 282.884 64.5001 269.17 64.5001 269.17C64.5001 269.17 53.4584 263.853 49.1241 264.274C49.1241 264.274 55.9728 275.886 53.7385 275.606C51.5042 275.326 43.8151 263.574 43.8151 263.574C43.8151 263.574 32.4955 261.475 30.678 268.191C28.8604 274.908 31.7963 278.265 33.4726 278.679C35.1489 279.094 45.9127 278.958 45.6326 280.358C45.3524 281.757 38.0847 284.006 34.0328 282.736C34.0328 282.736 38.5037 293.789 44.3754 293.224C50.247 292.658 52.0622 289.026 55.6972 288.746C59.3322 288.465 61.9856 289.446 60.1681 290.424C58.3506 291.402 52.1966 290.745 49.2676 293.244C46.3386 295.743 43.9563 297.28 49.4065 298.399C54.8568 299.519 64.6413 298.821 66.5977 294.621L68.5542 290.437Z" fill="#6BB7BF"/>
<path d="M35.8428 270.289C35.8428 270.289 65.1963 279.803 68.5511 290.437C68.5511 290.437 68.4099 295.196 71.3457 300.652V302.752C71.3457 302.752 68.271 295.615 66.5924 294.635C66.5901 294.628 73.1655 285.401 35.8428 270.289Z" fill="#418A96"/>
<path d="M71.3491 300.652C71.3491 300.652 75.8746 307.533 73.2941 315.909L72.1303 315.597C72.1303 315.597 73.2691 306.37 70.8913 301.73C68.5135 297.09 71.3491 300.652 71.3491 300.652Z" fill="#418A96"/>
<path d="M85.2301 282.334C85.2301 282.334 71.4119 274.582 77.8598 264.074C77.8598 264.074 83.0185 257.619 88.5462 255.959C88.5462 255.959 85.599 271.637 88.5462 272.006C91.4934 272.375 90.5733 254.299 90.5733 254.299C90.5733 254.299 105.129 247.291 110.844 247.842C110.844 247.842 101.815 263.153 104.765 262.783C107.714 262.414 117.836 246.921 117.836 246.921C117.836 246.921 132.761 244.156 135.146 253.009C137.53 261.862 133.672 266.288 131.46 266.842C129.249 267.396 115.062 267.211 115.433 269.053C115.804 270.896 125.382 273.841 130.725 272.188C130.725 272.188 124.828 286.76 117.091 286.023C109.354 285.287 106.956 280.49 102.166 280.12C97.3764 279.751 93.8758 281.044 96.2718 282.334C98.6678 283.625 106.774 282.756 110.641 286.048C114.508 289.341 117.642 291.372 110.457 292.847C103.271 294.323 90.3751 293.399 87.7946 287.868L85.2301 282.334Z" fill="#6BB7BF"/>
<path d="M128.342 255.775C128.342 255.775 89.6509 268.315 85.2301 282.334C85.2301 282.334 85.4145 288.604 81.5449 295.798V298.563C81.5449 298.563 85.599 289.158 87.8083 287.868C87.8083 287.868 79.1489 275.704 128.342 255.775Z" fill="#418A96"/>
<path d="M81.5458 295.798C81.5458 295.798 75.5786 304.867 78.9813 315.909L80.5163 315.497C80.5163 315.497 79.0245 303.335 82.1471 297.218C85.2696 291.101 81.5458 295.798 81.5458 295.798Z" fill="#418A96"/>
<path d="M111.832 312.756C111.865 316.336 111.189 319.886 109.844 323.202C108.498 326.519 106.509 329.535 103.993 332.078C101.476 334.62 98.4809 336.639 95.1806 338.016C91.8803 339.393 88.34 340.103 84.7644 340.103C81.1887 340.103 77.6485 339.393 74.3482 338.016C71.0479 336.639 68.0528 334.62 65.5361 332.078C63.0193 329.535 61.0307 326.519 59.6852 323.202C58.3396 319.886 57.6637 316.336 57.6965 312.756H111.832Z" fill="#77A4E5"/>
<path d="M101.157 312.756C101.155 319.014 98.9899 325.078 95.0289 329.92C91.0678 334.761 85.5553 338.081 79.427 339.316C73.301 338.078 67.7914 334.757 63.8327 329.916C59.874 325.075 57.7101 319.012 57.708 312.756H101.157Z" fill="#9FC1F4"/>
<path d="M112.206 341.234H57.3164C57.3167 340.793 57.4037 340.358 57.5724 339.951C57.7412 339.545 57.9883 339.176 58.2997 338.865C58.6111 338.554 58.9807 338.308 59.3872 338.141C59.7938 337.973 60.2294 337.888 60.669 337.889H108.865C109.751 337.889 110.601 338.241 111.228 338.868C111.854 339.496 112.206 340.346 112.206 341.234Z" fill="#77A4E5"/>
<path d="M77.9299 337.889H81.5991C71.6711 333.874 67.7195 324.136 67.7195 312.756H60.9961C60.9956 318.158 62.6073 323.436 65.6246 327.914C68.6418 332.392 72.9269 335.866 77.9299 337.889Z" fill="#BDD8FF"/>
<path d="M86.5007 341.234H57.3203C57.3206 340.794 57.4075 340.358 57.5759 339.952C57.7444 339.546 57.9911 339.177 58.302 338.867C58.6129 338.556 58.982 338.31 59.388 338.142C59.794 337.974 60.2291 337.888 60.6684 337.889H84.2208C86.0634 337.889 86.5007 339.384 86.5007 341.234Z" fill="#9FC1F4"/>
<path d="M112.033 313.588H57.2225C57.1119 313.588 57.0059 313.545 56.9277 313.466C56.8496 313.388 56.8057 313.282 56.8057 313.171C56.8063 313.061 56.8505 312.955 56.9286 312.878C57.0067 312.8 57.1123 312.756 57.2225 312.756H112.033C112.142 312.756 112.248 312.8 112.326 312.878C112.403 312.956 112.447 313.061 112.447 313.171C112.447 313.226 112.437 313.28 112.416 313.331C112.395 313.381 112.365 313.427 112.326 313.466C112.288 313.505 112.242 313.536 112.192 313.557C112.141 313.578 112.087 313.588 112.033 313.588Z" fill="#2B478B"/>
<path d="M352.664 271.345H317.385V247.79H326.536L352.664 271.345Z" fill="#6BB7BF"/>
<path d="M333.395 294.897H288.454V271.345H310.501L333.395 294.897Z" fill="#599DAD"/>
<path d="M296.904 318.452H259.547V294.897H279.118L296.904 318.452Z" fill="#479199"/>
<path d="M168.41 183.052H166.75C164.917 183.052 163.432 184.539 163.432 186.374V207.557C163.432 209.392 164.917 210.879 166.75 210.879H168.41C170.243 210.879 171.729 209.392 171.729 207.557V186.374C171.729 184.539 170.243 183.052 168.41 183.052Z" fill="#77A4E5"/>
<path d="M233.74 179.488C234.314 176.791 232.971 176.139 232.971 176.139C232.971 176.139 206.025 167.197 203.779 166.12C201.533 165.044 184.397 141.268 184.397 141.268C184.397 141.268 177.924 131.464 171.342 132.499C165.623 133.391 162.873 137.367 161.566 141.344C160.813 143.662 160.775 146.155 161.457 148.495C162.14 150.836 163.511 152.916 165.392 154.465C174.009 161.599 191.286 175.699 195.55 177.637C205.043 181.948 232.03 183.052 232.03 183.052C232.866 182.011 233.452 180.792 233.74 179.488Z" fill="#1E3D70"/>
<path d="M231.669 177.493C231.669 177.493 238.73 175.179 239.946 175.151C241.162 175.124 245.574 176.519 245.663 176.848C245.752 177.176 245.576 177.486 244.847 177.602C244.119 177.719 241.677 177.632 241.857 177.91C242.037 178.188 249.113 178.918 249.318 180.311C249.523 181.704 245.954 184.659 242.752 185.129C239.55 185.598 232.879 182.438 232.332 182.441C227.695 182.463 231.669 177.493 231.669 177.493Z" fill="#ED975D"/>
<path d="M158.293 129.784C158.293 129.784 165.08 137.848 173.726 134.474C173.726 134.474 175.587 129.971 175.612 126.651C175.612 126.243 175.612 125.849 175.628 125.47C175.673 121.733 175.798 119.636 175.798 119.636C175.407 119.472 162.588 114.202 162.588 114.64C162.805 124.768 158.293 129.784 158.293 129.784Z" fill="#FFB27D"/>
<path d="M125.436 341.368H116.697C114.875 341.368 112.825 339.51 112.324 336.106C111.823 332.702 108.054 330.841 107.238 328.055C106.423 325.269 110.596 321.347 110.596 321.347L111.293 320.435L112.019 319.487L118.936 321.138C118.936 321.138 119.107 322.809 119.214 324.936C119.287 326.473 119.328 328.249 119.241 329.806C119.039 333.523 120.266 337.524 123.521 338.242C126.776 338.96 125.436 341.368 125.436 341.368Z" fill="#2C3A64"/>
<path d="M186.223 341.457H163.078C162.909 341.429 162.744 341.38 162.586 341.311C161.042 340.513 161.525 334.414 161.712 332.531C161.746 332.182 161.771 331.977 161.771 331.977C161.771 331.977 169.911 325.269 171.032 330.406C171.066 330.565 171.107 330.723 171.15 330.878C172.564 335.686 178.88 337.868 182.538 338.477C185.314 338.947 186.039 340.62 186.223 341.457Z" fill="#2C3A64"/>
<path d="M181.558 207.47C181.558 207.47 180.322 222.908 178.869 241.465C176.894 266.673 174.521 297.638 174.286 303.504C173.878 313.689 172.25 329.982 172.25 329.982C172.25 329.982 168.378 333.858 160.652 332.223C160.652 332.223 153.761 308.967 151.793 284.343C151.763 283.939 151.731 283.531 151.702 283.125C149.88 258.073 147.023 205.318 147.023 205.318L181.558 207.47Z" fill="#C65447"/>
<path d="M181.558 207.47C181.558 207.47 180.322 222.908 178.869 241.465L151.793 284.354C151.763 283.951 151.731 283.543 151.702 283.137C149.88 258.084 147.023 205.33 147.023 205.33L181.558 207.47Z" fill="#B2443B"/>
<path d="M175.914 209.304C175.914 209.304 153.635 265.216 138.986 291.486C124.336 317.756 119.758 325.096 119.758 325.096C119.758 325.096 111.366 321.733 110.603 319.444C110.603 319.444 116.203 268.718 126.015 256.351C131.559 249.365 138.07 228.399 138.375 221.066C138.681 213.734 140.359 199.221 140.359 199.221L175.914 209.304Z" fill="#C65447"/>
<path d="M186.262 163.108C186.176 167.896 185.898 173.264 185.524 178.722L185.456 179.693C185.217 183.074 184.957 186.465 184.659 189.769C184.537 191.095 184.411 192.403 184.278 193.69L184.258 193.866C184.258 194.347 184.19 194.869 184.137 195.345C182.919 207.726 181.643 217.507 181.404 217.658C181.127 217.85 180.79 217.936 180.454 217.899C177.211 217.491 167.534 218.227 159.612 216.502C152.928 215.09 147.17 212.416 141.07 208.807C140.262 208.328 138.417 207.058 138.565 206.109C138.711 205.067 138.984 203.56 139.33 201.668C140.533 195.083 142.605 183.756 143.314 170.498C143.453 168.029 143.653 165.589 143.913 163.202C144.524 157.305 145.606 151.467 147.149 145.744C149.866 135.954 153.857 128.457 158.865 125.523C159.519 125.156 163.04 127.399 166.274 129.476C169.26 131.391 172.403 131.923 175.46 131.656L178.152 134.634C181.411 138.425 184.88 143.475 185.827 150.651C185.897 151.183 185.958 151.747 186.009 152.342C186.274 155.263 186.335 158.968 186.262 163.108Z" fill="#2A4E96"/>
<path d="M124.897 199.992C124.897 199.992 124.32 206.973 123.897 208.045C123.473 209.117 120.658 212.441 120.332 212.395C120.007 212.35 119.811 212.085 119.975 211.408C120.139 210.731 121.114 208.64 120.804 208.695C120.494 208.75 117.274 214.637 115.989 214.306C114.705 213.975 113.45 209.787 114.213 206.832C114.976 203.877 120.162 199.233 120.362 198.756C122.047 194.716 124.897 199.992 124.897 199.992Z" fill="#ED975D"/>
<path d="M122.512 201.761C124.979 202.555 125.375 202.375 125.375 202.375C125.375 202.375 137.376 180.5 138.585 178.499C139.795 176.497 164.071 153.968 164.071 153.968L157.84 130.696C157.84 130.696 130.238 166.467 127.256 171.602C122.332 180.085 119.444 199.791 119.444 199.791C120.282 200.699 121.338 201.378 122.512 201.761Z" fill="#2A4E96"/>
<path d="M163.337 120.094C164.667 123.211 175.297 129.328 175.297 129.328L176.547 124.451L163.337 120.094Z" fill="#ED975D"/>
<path d="M177.992 124.444C177.992 124.444 160.377 125.012 160.192 114.025C160.008 103.037 157.614 95.7117 168.847 94.8727C180.08 94.0337 182.342 98.2038 183.294 101.856C184.246 105.509 182.57 124.016 177.992 124.444Z" fill="#FFB27D"/>
<path d="M160.199 114.405C160.199 114.405 158.286 113.899 158.284 108.997C158.281 104.095 153.555 95.0892 157.145 94.2342C160.734 93.3792 161.472 93.6642 161.472 93.6642C161.472 93.6642 160.675 88.5342 167.28 89.2182C173.885 89.9022 183.394 94.0632 185.728 92.6382C188.063 91.2132 188.519 103.297 182.426 103.069C176.333 102.841 167.679 97.9256 165.686 101.781C163.693 105.637 164.718 110.08 163.693 110.08C162.668 110.08 162.124 106.25 160.789 106.717C160.035 106.984 160.199 114.405 160.199 114.405Z" fill="#1E3D70"/>
<path d="M143.258 173.653L158.293 159.365L141.76 189.559L143.258 173.653Z" fill="#1E3D70"/>
<path d="M326.561 32.6355H278.344C277.316 32.6355 276.483 33.4695 276.483 34.4983V47.6447C276.483 48.6735 277.316 49.5075 278.344 49.5075H326.561C327.588 49.5075 328.421 48.6735 328.421 47.6447V34.4983C328.421 33.4695 327.588 32.6355 326.561 32.6355Z" fill="#5EA04E"/>
<path d="M292.324 45.1025C292.451 45.1043 292.573 45.1557 292.663 45.246C292.753 45.3363 292.805 45.4582 292.807 45.5858V46.8581C292.805 46.9857 292.753 47.1076 292.663 47.1979C292.573 47.2882 292.451 47.3397 292.324 47.3414H284.468C284.341 47.3397 284.219 47.2882 284.129 47.1979C284.039 47.1076 283.987 46.9857 283.985 46.8581V35.2848C283.984 35.2213 283.997 35.1583 284.021 35.0998C284.046 35.0413 284.083 34.9886 284.129 34.9451C284.172 34.8988 284.225 34.8621 284.283 34.8374C284.342 34.8127 284.405 34.8004 284.468 34.8015H292.18C292.244 34.8004 292.307 34.8127 292.365 34.8374C292.423 34.8621 292.476 34.8988 292.52 34.9451C292.566 34.9886 292.602 35.0413 292.627 35.0998C292.652 35.1583 292.664 35.2213 292.663 35.2848V36.557C292.661 36.6847 292.61 36.8066 292.52 36.8969C292.429 36.9872 292.308 37.0386 292.18 37.0404H286.4V39.8904H291.786C291.914 39.8904 292.037 39.9413 292.128 40.0318C292.219 40.1224 292.271 40.2454 292.271 40.3738V41.646C292.271 41.7094 292.259 41.7721 292.234 41.8304C292.209 41.8888 292.173 41.9416 292.128 41.9857C292.084 42.0323 292.031 42.0691 291.972 42.0939C291.913 42.1186 291.85 42.1307 291.786 42.1294H286.4V45.0934L292.324 45.1025Z" fill="white"/>
<path d="M303.134 47.3415C303.039 47.3505 302.944 47.3391 302.855 47.3081C302.765 47.277 302.683 47.2269 302.615 47.1614C302.508 47.0428 302.432 46.9539 302.387 46.8946L299.54 42.9342L296.713 46.8946C296.666 46.9539 296.59 47.0428 296.486 47.1614C296.417 47.2269 296.335 47.277 296.246 47.3081C296.156 47.3391 296.061 47.3505 295.966 47.3415H294.463C294.38 47.3482 294.297 47.3321 294.222 47.2948C294.148 47.2575 294.085 47.2005 294.041 47.13C293.996 47.0595 293.972 46.9782 293.971 46.8949C293.969 46.8116 293.991 46.7295 294.033 46.6575L298.132 40.9415L294.213 35.4695C294.179 35.4084 294.161 35.3406 294.158 35.2712C294.16 35.1431 294.211 35.0209 294.302 34.9305C294.393 34.8402 294.515 34.789 294.643 34.7878H296.144C296.238 34.7787 296.334 34.7902 296.423 34.8212C296.513 34.8523 296.595 34.9023 296.663 34.9679C296.77 35.0865 296.85 35.1754 296.891 35.237L299.588 39.04L302.273 35.262C302.318 35.2005 302.398 35.1116 302.501 34.993C302.569 34.9277 302.65 34.8779 302.74 34.8468C302.829 34.8157 302.924 34.8042 303.018 34.8129H304.521C304.649 34.8141 304.771 34.8653 304.862 34.9556C304.952 35.046 305.004 35.1682 305.006 35.2962C305.003 35.3657 304.984 35.4335 304.951 35.4946L300.997 41.0304L305.058 46.6734C305.092 46.7335 305.111 46.8007 305.113 46.8695C305.111 46.9972 305.06 47.1191 304.97 47.2093C304.879 47.2996 304.758 47.3511 304.63 47.3529L303.134 47.3415Z" fill="white"/>
<path d="M307.374 47.3415C307.31 47.3429 307.247 47.3308 307.188 47.306C307.129 47.2813 307.076 47.2444 307.032 47.1979C306.986 47.1544 306.949 47.1017 306.925 47.0432C306.9 46.9847 306.888 46.9216 306.889 46.8581V35.2849C306.891 35.1568 306.942 35.0346 307.033 34.9443C307.124 34.8539 307.246 34.8027 307.374 34.8015H308.822C308.95 34.8033 309.072 34.8548 309.162 34.945C309.252 35.0353 309.303 35.1572 309.305 35.2849V46.8581C309.303 46.9858 309.252 47.1077 309.162 47.198C309.072 47.2882 308.95 47.3397 308.822 47.3415H307.374Z" fill="white"/>
<path d="M320.436 34.8015C320.5 34.8001 320.563 34.8122 320.622 34.837C320.681 34.8617 320.734 34.8986 320.778 34.9451C320.823 34.9894 320.859 35.0423 320.883 35.1006C320.907 35.159 320.919 35.2216 320.919 35.2849V36.5571C320.918 36.6851 320.867 36.8077 320.777 36.8982C320.687 36.9887 320.564 37.0399 320.436 37.0405H317.216V46.8581C317.214 46.9858 317.162 47.1077 317.072 47.198C316.982 47.2882 316.86 47.3397 316.733 47.3415H315.282C315.154 47.3397 315.033 47.2882 314.942 47.198C314.852 47.1077 314.801 46.9858 314.799 46.8581V37.0405H311.579C311.451 37.0387 311.329 36.9872 311.239 36.8969C311.149 36.8067 311.097 36.6847 311.096 36.5571V35.2849C311.097 35.1572 311.149 35.0353 311.239 34.945C311.329 34.8548 311.451 34.8033 311.579 34.8015H320.436Z" fill="white"/>
</svg>
