<svg width="79" height="79" viewBox="0 0 79 79" fill="none" xmlns="http://www.w3.org/2000/svg">
<path d="M42.3423 52.084C42.3423 52.084 37.3661 60.7411 26.2345 59.4755C26.2345 59.4755 17.6927 58.3538 13.5789 50.3008C13.5789 50.3008 9.52356 43.0254 13.7517 35.1871L22.4656 41.9885L23.6177 54.9313L34.202 52.1729L42.3423 52.084Z" fill="#E50695"/>
<path d="M65.928 47.042C67.2043 44.6852 68.1646 41.5852 67.6816 37.8969C67.6816 37.8969 66.9879 30.2314 59.0508 26.2732C59.0508 26.2732 43.8376 19.3805 33.5692 21.2789C33.5692 21.2789 28.7963 22.3726 25.8338 25.6511L21.8649 29.8216C21.8649 29.8216 18.672 33.4425 14.875 32.9281C14.875 32.9281 12.0417 32.7356 13.2358 28.384C13.2358 28.384 18.5024 16.706 24.1946 18.7197C24.1946 18.7197 26.2362 19.8125 23.3313 24.3278C23.3313 24.3278 19.6751 29.7928 17.5479 29.1888C17.5479 29.1888 15.6263 28.8127 17.2055 25.6223C17.2055 25.6223 19.6792 22.1998 19.9088 25.3343C19.9088 25.3343 22.6985 22.8326 21.8649 21.3653C21.8649 21.3653 20.8864 20.0997 17.3207 23.8102C17.3207 23.8102 13.7534 27.6927 14.9614 30.6561C14.9614 30.6561 16.1695 33.3593 21.8065 28.3519C21.8065 28.3519 27.7315 23.3946 28.4803 17.8786C28.4803 17.8786 28.9115 13.2234 23.3025 15.4099C23.3025 15.4099 18.6613 17.1643 14.7121 23.5782C14.7121 23.5782 9.32363 31.6913 13.207 35.1813C13.9973 35.7144 14.7471 36.3052 15.4502 36.9489C15.4502 36.9489 17.2911 38.5306 18.6432 40.3714C18.6432 40.3714 15.5078 43.4491 16.8887 47.5621C16.8887 47.5621 17.5791 50.899 22.1554 50.6974L22.2994 52.3375L21.6954 52.7975H22.1842L22.1019 57.0824C22.1019 57.0824 28.0894 54.7033 37.1555 52.8312C45.7443 48.7166 56.5064 45.1962 65.9362 47.0362" fill="#F5A800"/>
<path d="M35.7845 14.9672C35.7845 14.9672 33.1668 14.6931 33.3108 13.7147C33.3108 13.7147 33.7708 12.2194 37.0214 12.765C37.0214 12.765 40.0118 13.1971 39.9839 15.2387C39.9839 15.2387 40.0703 17.5972 34.5485 17.5116C34.5485 17.5116 29.3131 17.4828 28.5371 14.4043C28.5371 14.4043 27.7315 11.5002 33.3693 10.7522C33.3693 10.7522 37.4641 10.2354 40.8759 13.0564C40.8759 13.0564 42.832 14.5812 42.5151 16.5365C42.5151 16.5365 42.1991 18.5501 42.2568 19.7006L42.228 21.6855C42.228 21.6855 34.6917 19.039 26.5522 25.0504C26.5522 25.0504 28.5371 22.4623 34.7205 19.9014C34.7205 19.9014 40.8471 17.6869 41.1055 15.4724C41.1055 15.4724 41.7959 12.6251 36.5901 11.7619C36.5901 11.7619 31.6905 10.8937 31.2692 13.8332C31.2692 13.8332 30.8363 16.6862 37.4822 16.3357C37.4822 16.3357 39.4012 15.4963 37.9134 14.0916C37.9134 14.0916 36.9646 13.4332 35.7853 13.574C35.7853 13.574 34.8933 13.9229 35.7853 14.9729" fill="#00B4D5"/>
<path d="M51.7976 19.3385C51.7976 19.3385 50.8702 18.4539 51.9482 18.1091C51.9482 18.1091 53.9331 17.8071 54.993 19.4463C54.993 19.4463 55.5328 20.4602 54.3034 20.9128C54.3034 20.9128 50.6356 21.4312 47.2263 19.2735C47.2263 19.2735 45.6949 18.0877 46.8379 16.9438C46.8379 16.9438 47.8081 15.6716 51.605 16.232C51.605 16.232 56.3722 16.8574 58.5513 19.5113C58.5513 19.5113 59.7593 21.5604 56.5236 22.3372C56.5236 22.3372 54.9485 23.0918 49.491 22.5956C49.491 22.5956 41.7901 20.8272 36.2889 21.5818C36.2889 21.5818 28.7181 22.7043 26.8624 26.8888C26.8624 26.8888 24.9203 29.6933 25.7836 31.9152C25.7836 31.9152 26.474 34.5896 30.3351 33.7256L30.6585 34.8686C30.6585 34.8686 28.1569 35.2801 27.7248 38.2771L27.013 36.9827C27.013 36.9827 24.7911 37.0905 23.6045 37.8237C23.6045 37.8237 18.4489 40.3912 17.5857 44.4465C17.5857 44.4465 16.3044 50.207 23.2383 49.384L23.2597 55.4029L25.568 54.4104C26.0634 54.1812 26.5044 53.849 26.8615 53.4361C27.2186 53.0232 27.4838 52.539 27.6392 52.0157C27.6392 52.0157 29.3855 53.5908 31.2839 51.7137C31.2839 51.7137 35.0595 51.8643 35.5557 48.7158C35.5557 48.7158 38.2302 49.1898 39.7411 46.9877C39.7411 46.9877 41.7251 47.3333 42.8681 45.9311C42.8681 45.9311 49.7288 42.1128 52.7481 43.5792C52.7481 43.5792 54.8407 44.4021 52.1449 47.4625C52.1449 47.4625 47.9595 52.2297 45.6949 50.5468C45.6949 50.5468 44.8966 49.9214 45.9532 48.4336C45.9532 48.4336 49.9222 43.7956 51.0446 45.7179C51.0446 45.7179 51.3894 46.6454 50.2464 47.5514C50.2464 47.5514 48.7577 49.0401 48.8219 47.2708C48.8219 47.2708 46.6824 48.6294 47.423 49.4491C47.423 49.4491 48.5232 50.1181 51.1335 47.5728C51.1335 47.5728 53.1612 45.4587 52.0832 44.4235C52.0832 44.4235 51.0257 43.0245 46.3664 46.494C46.3664 46.494 42.009 49.7733 43.3035 51.9515C43.3035 51.9515 44.5765 53.762 49.5576 50.8085C49.5576 50.8085 54.6482 48.2204 57.9267 44.0565C57.9267 44.0565 62.5655 38.5347 63.0831 34.2202C63.0831 34.2202 64.2483 28.6539 59.4162 29.56C59.4162 29.56 58.2509 27.1875 59.8902 22.701C59.8902 22.701 62.4791 18.9633 54.4976 16.0864C54.4976 16.0864 47.5365 13.7131 44.2803 15.8732C44.0126 16.053 43.7878 16.2895 43.6221 16.5661C43.4563 16.8426 43.3535 17.1523 43.3212 17.4731C43.2888 17.7939 43.3276 18.1179 43.4347 18.422C43.5419 18.7261 43.7148 19.0028 43.9412 19.2324C45.0933 20.3976 47.6312 21.734 53.2031 21.9241C53.2031 21.9241 58.0781 21.7941 56.7417 19.378C56.7417 19.378 55.9188 17.5676 51.7367 17.2212C51.7367 17.2212 49.2778 16.8327 48.8894 17.998C48.8894 17.998 48.9758 19.1632 51.8017 19.3352" fill="#E50695"/>
<path d="M41.3639 62.266C41.3639 62.0381 41.4314 61.8154 41.558 61.6259C41.6846 61.4364 41.8645 61.2888 42.0751 61.2016C42.2856 61.1144 42.5172 61.0916 42.7407 61.136C42.9642 61.1805 43.1695 61.2902 43.3306 61.4513C43.4917 61.6124 43.6014 61.8177 43.6459 62.0412C43.6903 62.2647 43.6675 62.4963 43.5803 62.7068C43.4931 62.9174 43.3455 63.0973 43.156 63.2239C42.9665 63.3505 42.7438 63.418 42.5159 63.418C42.2104 63.418 41.9174 63.2967 41.7013 63.0806C41.4852 62.8645 41.3639 62.5715 41.3639 62.266Z" fill="white"/>
<path d="M55.8307 48.6895C55.8307 48.4333 55.9067 48.1829 56.049 47.9699C56.1914 47.7569 56.3937 47.5909 56.6303 47.4928C56.867 47.3948 57.1275 47.3691 57.3787 47.4191C57.63 47.4691 57.8608 47.5925 58.0419 47.7736C58.2231 47.9548 58.3464 48.1856 58.3964 48.4368C58.4464 48.6881 58.4207 48.9485 58.3227 49.1852C58.2247 49.4219 58.0587 49.6242 57.8456 49.7665C57.6326 49.9088 57.3822 49.9848 57.126 49.9848C56.7825 49.9848 56.453 49.8483 56.2101 49.6054C55.9672 49.3625 55.8307 49.033 55.8307 48.6895Z" fill="white"/>
<path d="M57.0849 42.1333C57.0841 41.6774 57.2185 41.2315 57.4712 40.852C57.7239 40.4726 58.0835 40.1766 58.5044 40.0016C58.9254 39.8266 59.3888 39.7803 59.8361 39.8688C60.2833 39.9572 60.6942 40.1764 61.0169 40.4984C61.3396 40.8205 61.5594 41.2311 61.6486 41.6781C61.7379 42.1252 61.6925 42.5887 61.5182 43.01C61.344 43.4313 61.0486 43.7914 60.6696 44.0447C60.2906 44.2981 59.845 44.4333 59.3891 44.4333C58.7787 44.4333 58.1932 44.1911 57.7612 43.7599C57.3292 43.3287 57.086 42.7437 57.0849 42.1333Z" fill="white"/>
<path d="M43.822 27.506C43.822 27.2781 43.8895 27.0554 44.0161 26.8659C44.1427 26.6764 44.3226 26.5288 44.5332 26.4416C44.7437 26.3544 44.9753 26.3316 45.1988 26.376C45.4223 26.4205 45.6276 26.5302 45.7887 26.6913C45.9498 26.8524 46.0595 27.0577 46.104 27.2812C46.1484 27.5047 46.1256 27.7363 46.0384 27.9469C45.9512 28.1574 45.8036 28.3373 45.6141 28.4639C45.4246 28.5905 45.2019 28.6581 44.974 28.6581C44.6685 28.6581 44.3754 28.5367 44.1594 28.3206C43.9433 28.1046 43.822 27.8115 43.822 27.506Z" fill="white"/>
<path d="M46.8865 24.4291C46.8863 24.2526 46.9385 24.08 47.0365 23.9332C47.1344 23.7863 47.2737 23.6719 47.4368 23.6043C47.5998 23.5366 47.7792 23.5189 47.9523 23.5533C48.1255 23.5877 48.2845 23.6727 48.4093 23.7975C48.5341 23.9223 48.6191 24.0813 48.6534 24.2544C48.6878 24.4275 48.6701 24.6069 48.6025 24.77C48.5349 24.933 48.4204 25.0723 48.2736 25.1703C48.1268 25.2682 47.9542 25.3204 47.7777 25.3203C47.5413 25.3203 47.3146 25.2264 47.1475 25.0592C46.9804 24.8921 46.8865 24.6654 46.8865 24.4291Z" fill="white"/>
<path d="M44.2606 12.1331C44.2604 11.8526 44.3434 11.5784 44.4991 11.3451C44.6548 11.1118 44.8762 10.93 45.1353 10.8225C45.3943 10.7151 45.6795 10.6869 45.9546 10.7415C46.2297 10.7961 46.4824 10.9311 46.6808 11.1294C46.8791 11.3276 47.0143 11.5803 47.069 11.8553C47.1238 12.1304 47.0958 12.4155 46.9885 12.6747C46.8812 12.9338 46.6995 13.1553 46.4663 13.3111C46.2331 13.4669 45.9589 13.5501 45.6785 13.5501C45.4923 13.5502 45.3079 13.5137 45.1359 13.4425C44.9639 13.3713 44.8076 13.267 44.6759 13.1354C44.5442 13.0038 44.4398 12.8475 44.3685 12.6755C44.2972 12.5036 44.2606 12.3192 44.2606 12.1331Z" fill="#E50695"/>
<path d="M39.8827 9.80255C39.8827 9.54927 39.9578 9.30167 40.0985 9.09108C40.2392 8.8805 40.4393 8.71638 40.6733 8.61949C40.9073 8.52259 41.1648 8.49729 41.4132 8.54676C41.6616 8.59623 41.8898 8.71827 42.0688 8.89742C42.2479 9.07658 42.3697 9.30481 42.4191 9.55325C42.4684 9.80169 42.4429 10.0592 42.3459 10.2931C42.2488 10.5271 42.0846 10.727 41.8739 10.8676C41.6632 11.0082 41.4156 11.0832 41.1623 11.083C40.9942 11.083 40.8277 11.0499 40.6724 10.9855C40.5171 10.9212 40.376 10.8268 40.2572 10.7079C40.1383 10.589 40.0441 10.4478 39.9798 10.2925C39.9156 10.1372 39.8826 9.97067 39.8827 9.80255Z" fill="#FAB317"/>
<path d="M24.4587 11.083C24.4586 10.8908 24.5154 10.703 24.6221 10.5431C24.7288 10.3833 24.8805 10.2587 25.058 10.1851C25.2355 10.1116 25.4309 10.0923 25.6193 10.1298C25.8078 10.1673 25.9809 10.2599 26.1167 10.3958C26.2525 10.5318 26.345 10.705 26.3823 10.8935C26.4197 11.0819 26.4002 11.2773 26.3265 11.4547C26.2528 11.6322 26.1281 11.7838 25.9682 11.8903C25.8082 11.9969 25.6203 12.0536 25.4281 12.0532C25.1707 12.0532 24.9239 11.951 24.7418 11.7691C24.5597 11.5872 24.4573 11.3404 24.4571 11.083" fill="#FAB317"/>
<path d="M30.3196 19.0645C30.3197 18.8712 30.3772 18.6823 30.4847 18.5216C30.5923 18.3609 30.745 18.2358 30.9237 18.1619C31.1023 18.088 31.2989 18.0688 31.4884 18.1066C31.678 18.1444 31.8521 18.2376 31.9888 18.3743C32.1254 18.5111 32.2185 18.6853 32.2561 18.8749C32.2938 19.0645 32.2744 19.2611 32.2003 19.4396C32.1263 19.6182 32.001 19.7709 31.8403 19.8783C31.6795 19.9856 31.4905 20.043 31.2972 20.043C31.1688 20.043 31.0416 20.0176 30.9229 19.9685C30.8042 19.9193 30.6964 19.8472 30.6056 19.7563C30.5148 19.6655 30.4428 19.5576 30.3938 19.4389C30.3447 19.3202 30.3195 19.193 30.3196 19.0645Z" fill="#00B4D5"/>
<path d="M23.4449 34.6826C23.4449 34.3867 23.5326 34.0974 23.6971 33.8514C23.8615 33.6054 24.0952 33.4136 24.3686 33.3004C24.642 33.1872 24.9429 33.1576 25.2331 33.2154C25.5233 33.2732 25.7899 33.4158 25.9991 33.6251C26.2083 33.8344 26.3507 34.101 26.4084 34.3913C26.466 34.6815 26.4363 34.9824 26.3229 35.2557C26.2095 35.5291 26.0177 35.7627 25.7715 35.927C25.5254 36.0913 25.2361 36.1789 24.9401 36.1787C24.5435 36.1785 24.1632 36.0208 23.8828 35.7402C23.6024 35.4597 23.4449 35.0793 23.4449 34.6826Z" fill="#E9128B"/>
<path d="M17.3323 35.187C17.3323 34.9792 17.3939 34.776 17.5094 34.6032C17.6248 34.4304 17.789 34.2957 17.981 34.2162C18.173 34.1366 18.3843 34.1158 18.5882 34.1564C18.792 34.1969 18.9792 34.297 19.1262 34.444C19.2732 34.5909 19.3733 34.7782 19.4138 34.982C19.4544 35.1859 19.4336 35.3972 19.354 35.5892C19.2745 35.7812 19.1398 35.9453 18.967 36.0608C18.7942 36.1763 18.591 36.2379 18.3831 36.2379C18.1044 36.2379 17.8371 36.1272 17.6401 35.9301C17.443 35.733 17.3323 35.4657 17.3323 35.187Z" fill="#00B4D5"/>
<path d="M47.1062 27.1957C46.5343 27.8327 44.0046 30.926 45.1394 34.6703C45.2123 34.9095 45.3126 35.1395 45.4382 35.3558C46.1442 36.5819 48.7907 40.2933 53.3085 36.614C53.3401 36.5883 53.377 36.5701 53.4167 36.5608C53.4563 36.5515 53.4975 36.5513 53.5372 36.5604C53.5769 36.5694 53.614 36.5874 53.6456 36.613C53.6773 36.6385 53.7028 36.671 53.72 36.7078C53.9224 37.1374 54.1068 37.9348 53.0411 38.3973C53.0411 38.3973 52.0824 38.5191 52.4009 39.4827C52.4009 39.4827 52.6313 40.448 54.403 39.6111C54.403 39.6111 57.6396 38.2944 56.7442 34.709L56.0406 32.19C56.0406 32.19 55.6465 31.4675 56.4587 30.8948C56.577 30.8095 56.666 30.6896 56.7133 30.5517C56.7606 30.4137 56.764 30.2644 56.7228 30.1245C56.6076 29.7213 56.2785 29.3016 55.3667 29.5526L52.2684 30.8594C52.2684 30.8594 50.5682 31.4881 50.9616 32.8804C50.9616 32.8804 51.0825 33.5544 52.1293 33.1561C52.2306 33.1174 52.3424 33.1156 52.4449 33.1511C52.5474 33.1866 52.6341 33.2572 52.6897 33.3503C52.9654 33.8243 53.2493 34.6835 52.0964 35.1821C52.0964 35.1821 50.5978 35.7977 49.5552 33.3717C49.5552 33.3717 47.5975 28.2293 50.4061 27.8755C50.4061 27.8755 50.9822 27.7282 52.154 28.914C52.3212 29.0825 52.5365 29.1949 52.7704 29.2358C53.3563 29.3345 54.3216 29.2102 54.1759 27.241C54.1759 27.241 53.5875 25.1335 51.768 25.229C51.768 25.229 51.3837 25.2158 51.0422 25.6051C51.0075 25.6442 50.9641 25.6746 50.9156 25.6941C50.867 25.7135 50.8146 25.7213 50.7624 25.717C50.2744 25.6775 48.8417 25.6964 47.3111 26.9974C47.2384 27.0597 47.17 27.1268 47.1062 27.1982" fill="white"/>
<path d="M42.7966 31.2708C42.7966 31.2708 41.331 31.6172 40.3838 32.4904C40.0357 32.8173 39.7991 33.2454 39.7073 33.714L38.7338 38.4812C38.7268 38.5092 38.7125 38.5349 38.6924 38.5556C38.6723 38.5763 38.6471 38.5914 38.6194 38.5993C38.5916 38.6073 38.5622 38.6077 38.5342 38.6007C38.5062 38.5937 38.4806 38.5794 38.4598 38.5594L35.3327 35.2126C35.2328 35.1058 35.1029 35.0318 34.9601 35.0004C34.8173 34.969 34.6684 34.9815 34.5328 35.0365L32.6352 35.8092C32.6352 35.8092 30.3549 36.7012 31.1737 38.3043C31.1737 38.3043 31.5251 39.1362 32.7891 38.4828C32.8274 38.4632 32.8697 38.4526 32.9128 38.4516C32.9558 38.4507 32.9985 38.4596 33.0377 38.4776C33.0768 38.4956 33.1114 38.5222 33.1387 38.5555C33.1661 38.5887 33.1855 38.6278 33.1956 38.6696C33.3964 39.5197 33.6704 41.8379 31.9415 45.1929C31.7267 47.6008 30.113 49.1207 29.1041 49.8457C29.6702 49.8457 30.3179 49.728 31.0568 49.4408C31.0568 49.4408 33.8251 48.7002 34.6941 44.0441L35.0867 41.1762C35.0917 41.1396 35.1064 41.1049 35.1292 41.0758C35.1519 41.0466 35.182 41.024 35.2164 41.0102C35.2507 40.9964 35.2881 40.9919 35.3247 40.9973C35.3613 41.0026 35.3959 41.0175 35.4249 41.0405L35.7763 41.3203L38.1743 44.063C38.1743 44.063 39.2457 45.0958 39.6152 43.45L40.8989 38.101C40.9066 38.0694 40.9243 38.0411 40.9493 38.0202C40.9743 37.9993 41.0053 37.987 41.0378 37.9851C41.0703 37.9832 41.1026 37.9917 41.1298 38.0095C41.1571 38.0272 41.178 38.0532 41.1894 38.0837L42.3604 41.2281C42.4228 41.3967 42.4371 41.5793 42.4017 41.7555C42.3664 41.9317 42.2829 42.0947 42.1605 42.2263C42.0945 42.2975 42.0158 42.3559 41.9284 42.3983C41.7844 42.4666 41.4955 42.7143 41.9498 43.5265C41.9498 43.5265 42.1802 44.4918 44.8967 42.9554C44.8967 42.9554 47.9604 41.4857 47.5637 40.378C47.5637 40.378 47.2461 39.7542 46.5153 39.8481C46.4122 39.8615 46.3075 39.8407 46.2174 39.7888C46.1273 39.7369 46.0568 39.6568 46.0167 39.5609L43.7125 34.0317C43.7125 34.0317 43.3553 33.1857 44.221 32.5282C44.306 32.4618 44.3689 32.3713 44.4017 32.2685C44.4344 32.1657 44.4354 32.0555 44.4046 31.9522C44.2828 31.5407 43.9108 31.0042 42.7933 31.2708" fill="white"/>
<path d="M26.8798 38.3652C26.8798 38.3652 25.4495 38.5298 23.5 39.8086C23.0361 40.1141 22.6345 40.5051 22.3167 40.9607C21.4115 42.2477 19.9771 45.1098 21.632 48.7331C21.8431 49.2013 22.1451 49.6229 22.5207 49.9733C22.8962 50.3237 23.3376 50.5958 23.8193 50.774C24.8373 51.1418 26.3062 51.2299 28.2886 50.346C28.5723 50.1989 28.8441 50.03 29.1016 49.8408C30.1105 49.1158 31.7243 47.5959 31.939 45.188C31.9887 44.5984 31.9577 44.0049 31.8469 43.4237C31.8469 43.4237 31.047 37.669 26.8773 38.3652H26.8798ZM27.7479 48.1299C26.8147 49.1281 26.1688 48.0369 26.0042 47.7004C25.979 47.649 25.9576 47.5959 25.94 47.5415L25.5351 46.2981L24.8867 44.3075C24.0637 41.6799 25.3886 41.0487 25.3886 41.0487C26.0412 40.727 26.6353 41.4956 27.097 42.4658C27.6023 43.5257 27.9495 44.8243 28.0434 45.1971C28.0606 45.2637 28.0697 45.3016 28.0697 45.3016C28.2894 46.3467 28.2491 47.0215 28.1363 47.4494C27.9973 47.9802 27.7479 48.1299 27.7479 48.1299Z" fill="white"/>
<path d="M21.2312 50.4744C21.2312 50.4744 19.0809 52.5662 20.8239 53.9603C20.8239 53.9603 23.3231 56.2274 29.541 53.4377C29.541 53.4377 33.2606 51.9268 37.1538 48.6722C37.1538 48.6722 50.8422 38.1652 65.4712 38.2631C65.52 38.2637 65.5677 38.2776 65.6092 38.3033C65.6507 38.329 65.6844 38.3656 65.7066 38.409C65.7289 38.4524 65.7389 38.5011 65.7355 38.5498C65.7322 38.5985 65.7156 38.6453 65.6876 38.6853L62.8576 42.7349C62.7878 42.835 62.7561 42.9568 62.7681 43.0783C62.7802 43.1997 62.8353 43.3129 62.9235 43.3973L66.4192 46.7416C66.4491 46.7701 66.4702 46.8067 66.4799 46.8468C66.4896 46.887 66.4875 46.9291 66.4738 46.9681C66.4602 47.0071 66.4356 47.0413 66.403 47.0667C66.3704 47.0921 66.3312 47.1075 66.29 47.1111C65.5444 47.186 64.2113 47.5662 64.004 49.3083L63.776 57.3309C63.776 57.3309 64.0665 59.0163 62.4388 59.1907C62.4388 59.1907 61.1023 59.0163 61.3352 57.3894L61.5097 49.37C61.5097 49.37 61.3928 48.2073 60.2893 48.1497C60.0628 48.1476 59.8394 48.2034 59.6404 48.3116C59.4414 48.4199 59.2733 48.5772 59.152 48.7685C59.0177 48.9954 58.9472 49.2544 58.9479 49.5182L58.7784 59.6557C58.7784 59.6557 58.6616 61.6307 57.3252 61.806C57.3252 61.806 56.0472 61.9508 56.3377 60.0046L56.3665 51.8396C56.3665 51.8396 55.7567 49.0211 52.1531 50.3584C52.1531 50.3584 47.1712 52.2182 43.473 55.3856C43.473 55.3856 38.6129 60.0342 34.6612 61.6908C34.6612 61.6908 32.0172 62.3302 31.9011 63.8698L31.6979 68.3737C31.6979 68.3737 31.5819 69.0707 30.884 69.1579C30.884 69.1579 30.3903 69.3036 30.3903 68.3152V64.464C30.3908 64.3063 30.3321 64.1541 30.2257 64.0377L30.1088 63.9093C30.0114 63.803 29.878 63.7367 29.7344 63.7233C29.5908 63.7099 29.4474 63.7504 29.332 63.8369L29.1888 63.9439C29.1111 64.0021 29.0479 64.0775 29.0041 64.1641C28.9603 64.2508 28.937 64.3463 28.9362 64.4434L28.8852 69.4435C28.8815 69.6882 28.787 69.9228 28.6202 70.1018L28.3733 70.3635C28.3359 70.4033 28.29 70.4344 28.2392 70.4544C28.1883 70.4744 28.1336 70.4828 28.079 70.4791C28.0245 70.4754 27.9714 70.4597 27.9237 70.433C27.8759 70.4063 27.8347 70.3693 27.803 70.3248L27.6113 70.0549C27.4907 69.8847 27.427 69.6808 27.4294 69.4723L27.4837 64.9116C27.4837 64.9116 27.1644 63.953 24.9854 63.7497C24.9854 63.7497 24.1262 63.5654 23.523 63.2642C23.3746 63.1908 23.2488 63.0786 23.159 62.9395C23.0692 62.8004 23.0187 62.6396 23.0128 62.4742C22.9758 61.2719 22.5191 57.5243 18.6102 53.2402C18.5223 53.1457 18.4617 53.0291 18.4349 52.9029C18.4081 52.7767 18.4161 52.6455 18.458 52.5235C18.7164 51.7944 19.4159 50.2934 20.9827 49.5231C21.0119 49.5084 21.0444 49.5014 21.0771 49.5029C21.1098 49.5045 21.1415 49.5144 21.1693 49.5318C21.197 49.5491 21.2198 49.5734 21.2354 49.6021C21.251 49.6309 21.2589 49.6632 21.2584 49.6959L21.2312 50.4744Z" fill="#F5A800"/>
<path d="M49.6219 54.0771C49.6217 53.6977 49.7341 53.3267 49.9448 53.0111C50.1555 52.6955 50.4551 52.4495 50.8056 52.3043C51.1562 52.159 51.5419 52.1209 51.9141 52.1949C52.2863 52.2689 52.6282 52.4516 52.8965 52.7199C53.1648 52.9882 53.3475 53.3301 53.4215 53.7023C53.4955 54.0745 53.4574 54.4602 53.3121 54.8108C53.1668 55.1613 52.9209 55.4609 52.6053 55.6716C52.2897 55.8823 51.9187 55.9947 51.5393 55.9945C51.0308 55.9943 50.5432 55.7922 50.1837 55.4327C49.8242 55.0732 49.6221 54.5856 49.6219 54.0771Z" fill="#FABE16"/>
<path d="M46.2216 55.9945C46.2216 55.868 46.2591 55.7444 46.3294 55.6393C46.3996 55.5341 46.4995 55.4522 46.6163 55.4038C46.7332 55.3554 46.8617 55.3427 46.9858 55.3674C47.1098 55.3921 47.2237 55.453 47.3132 55.5424C47.4026 55.6318 47.4635 55.7457 47.4882 55.8698C47.5128 55.9938 47.5002 56.1224 47.4518 56.2392C47.4034 56.356 47.3214 56.4559 47.2163 56.5262C47.1111 56.5964 46.9875 56.6339 46.861 56.6339C46.6914 56.6339 46.5288 56.5665 46.4089 56.4466C46.289 56.3267 46.2216 56.1641 46.2216 55.9945Z" fill="#E50695"/>
<path d="M45.6118 59.0747C45.6118 58.8735 45.6714 58.6769 45.7832 58.5096C45.895 58.3423 46.0538 58.212 46.2397 58.135C46.4255 58.058 46.63 58.0379 46.8273 58.0771C47.0246 58.1163 47.2059 58.2132 47.3481 58.3555C47.4904 58.4977 47.5872 58.6789 47.6265 58.8763C47.6657 59.0736 47.6456 59.2781 47.5686 59.4639C47.4916 59.6498 47.3613 59.8086 47.194 59.9204C47.0267 60.0322 46.8301 60.0918 46.6289 60.0918C46.3592 60.0918 46.1004 59.9847 45.9097 59.7939C45.7189 59.6032 45.6118 59.3444 45.6118 59.0747Z" fill="#E50695"/>
<path d="M49.505 58.0576C49.505 57.9368 49.5408 57.8187 49.6079 57.7183C49.675 57.6179 49.7703 57.5397 49.8819 57.4934C49.9935 57.4472 50.1163 57.4351 50.2347 57.4587C50.3531 57.4823 50.4619 57.5404 50.5473 57.6258C50.6327 57.7112 50.6909 57.82 50.7144 57.9384C50.738 58.0569 50.7259 58.1797 50.6797 58.2912C50.6335 58.4028 50.5552 58.4982 50.4548 58.5653C50.3544 58.6324 50.2363 58.6682 50.1156 58.6682C49.9536 58.6682 49.7983 58.6038 49.6838 58.4893C49.5693 58.3748 49.505 58.2195 49.505 58.0576Z" fill="#F2E8DF"/>
<path d="M53.5151 59.9749C53.5152 59.8371 53.5563 59.7024 53.6329 59.5879C53.7096 59.4734 53.8185 59.3842 53.9459 59.3316C54.0733 59.2789 54.2134 59.2653 54.3486 59.2922C54.4837 59.3192 54.6078 59.3857 54.7052 59.4832C54.8026 59.5807 54.8689 59.7049 54.8958 59.8401C54.9226 59.9753 54.9087 60.1154 54.856 60.2427C54.8032 60.37 54.7138 60.4788 54.5992 60.5553C54.4846 60.6319 54.3499 60.6728 54.2121 60.6728C54.1205 60.6728 54.0298 60.6547 53.9452 60.6196C53.8605 60.5845 53.7837 60.5331 53.7189 60.4683C53.6542 60.4035 53.6029 60.3266 53.5679 60.2419C53.5329 60.1573 53.515 60.0665 53.5151 59.9749Z" fill="#13C2E9"/>
<path d="M44.3189 63.7234C44.3189 63.5939 44.3573 63.4674 44.4293 63.3598C44.5012 63.2522 44.6034 63.1684 44.723 63.1189C44.8426 63.0694 44.9742 63.0565 45.1011 63.0818C45.228 63.1071 45.3446 63.1695 45.436 63.2611C45.5275 63.3526 45.5897 63.4693 45.6149 63.5962C45.64 63.7232 45.627 63.8548 45.5773 63.9743C45.5277 64.0938 45.4437 64.1959 45.336 64.2677C45.2283 64.3395 45.1018 64.3777 44.9723 64.3776C44.8864 64.3777 44.8013 64.3608 44.722 64.328C44.6426 64.2951 44.5705 64.2469 44.5098 64.1862C44.4491 64.1254 44.401 64.0532 44.3682 63.9738C44.3355 63.8944 44.3187 63.8093 44.3189 63.7234Z" fill="#FABE16"/>
<path d="M41.4009 29.2242C41.3052 29.0611 41.1632 28.9301 40.993 28.8478C40.8227 28.7655 40.6319 28.7355 40.4446 28.7617C40.2573 28.7879 40.0821 28.8691 39.941 28.995C39.7999 29.1209 39.6993 29.2858 39.652 29.4689C39.6047 29.652 39.6128 29.845 39.6752 30.0235C39.7377 30.202 39.8517 30.3579 40.0029 30.4716C40.154 30.5852 40.3355 30.6514 40.5243 30.6619C40.7131 30.6723 40.9008 30.6265 41.0635 30.5302C41.1718 30.4667 41.2664 30.3825 41.3421 30.2824C41.4178 30.1824 41.4731 30.0683 41.5047 29.9469C41.5364 29.8255 41.5438 29.699 41.5265 29.5747C41.5093 29.4504 41.4677 29.3308 41.4042 29.2225" fill="white"/>
<path d="M32.0476 26.8337C31.8883 26.5622 31.652 26.3441 31.3687 26.2069C31.0854 26.0697 30.7678 26.0196 30.456 26.0629C30.1443 26.1063 29.8523 26.2411 29.6172 26.4503C29.382 26.6595 29.2142 26.9338 29.1349 27.2384C29.0556 27.543 29.0684 27.8643 29.1717 28.1617C29.275 28.459 29.4642 28.719 29.7153 28.9088C29.9663 29.0987 30.2681 29.2098 30.5823 29.2281C30.8965 29.2465 31.2092 29.1712 31.4806 29.0119C31.6609 28.9061 31.8185 28.7659 31.9446 28.5991C32.0706 28.4324 32.1626 28.2425 32.2153 28.0402C32.2679 27.8379 32.2802 27.6273 32.2514 27.4203C32.2227 27.2132 32.1534 27.0139 32.0476 26.8337Z" fill="#FABE16"/>
<path d="M35.2875 26.7769C35.2344 26.6864 35.1556 26.6136 35.0611 26.5679C34.9666 26.5221 34.8607 26.5054 34.7568 26.5199C34.6528 26.5343 34.5554 26.5793 34.477 26.649C34.3986 26.7188 34.3426 26.8102 34.3161 26.9118C34.2897 27.0134 34.2939 27.1205 34.3284 27.2197C34.3628 27.3189 34.4258 27.4056 34.5096 27.4689C34.5933 27.5322 34.6939 27.5693 34.7987 27.5755C34.9034 27.5816 35.0077 27.5566 35.0982 27.5035C35.1584 27.4682 35.211 27.4215 35.2531 27.3659C35.2952 27.3102 35.3259 27.2469 35.3434 27.1794C35.361 27.1119 35.3651 27.0416 35.3555 26.9726C35.3459 26.9035 35.3228 26.837 35.2875 26.7769Z" fill="#FAB317"/>
<path d="M37.0188 28.7255C36.9347 28.5811 36.8095 28.4648 36.6592 28.3916C36.5089 28.3183 36.3403 28.2913 36.1746 28.314C36.009 28.3367 35.8538 28.4081 35.7288 28.5191C35.6037 28.6301 35.5145 28.7757 35.4723 28.9375C35.4301 29.0993 35.4369 29.27 35.4918 29.4279C35.5468 29.5858 35.6473 29.7239 35.7808 29.8246C35.9143 29.9252 36.0747 29.984 36.2416 29.9935C36.4085 30.0029 36.5745 29.9626 36.7185 29.8776C36.9108 29.7644 37.0503 29.5795 37.1066 29.3636C37.1629 29.1477 37.1314 28.9182 37.0188 28.7255Z" fill="#00B4D5"/>
<path d="M33.8037 29.634C33.753 29.5477 33.6779 29.4784 33.5878 29.4348C33.4977 29.3913 33.3967 29.3754 33.2976 29.3892C33.1984 29.403 33.1056 29.4459 33.0309 29.5124C32.9561 29.579 32.9028 29.6662 32.8776 29.763C32.8524 29.8599 32.8565 29.9621 32.8894 30.0566C32.9222 30.1511 32.9824 30.2338 33.0622 30.2941C33.142 30.3545 33.238 30.3898 33.3379 30.3957C33.4378 30.4015 33.5372 30.3776 33.6235 30.3269C33.6809 30.2933 33.731 30.2487 33.7711 30.1956C33.8112 30.1426 33.8404 30.0822 33.8572 30.0178C33.8739 29.9535 33.8778 29.8865 33.8686 29.8206C33.8595 29.7548 33.8374 29.6914 33.8037 29.634Z" fill="#F2E8DF"/>
<path d="M31.7399 32.692C31.6818 32.5943 31.5961 32.5159 31.4935 32.4668C31.391 32.4177 31.2762 32.4001 31.1637 32.4161C31.0511 32.4321 30.9458 32.481 30.8611 32.5567C30.7763 32.6325 30.7158 32.7316 30.6872 32.8416C30.6586 32.9517 30.6633 33.0677 30.7005 33.1751C30.7378 33.2825 30.806 33.3765 30.8965 33.4452C30.9871 33.514 31.0959 33.5543 31.2094 33.5613C31.3229 33.5683 31.4359 33.5416 31.5342 33.4844C31.6 33.4462 31.6576 33.3953 31.7036 33.3346C31.7496 33.274 31.7832 33.2048 31.8023 33.1311C31.8215 33.0574 31.8258 32.9807 31.8151 32.9053C31.8044 32.8299 31.7788 32.7574 31.7399 32.692Z" fill="#13C2E9"/>
<path d="M39.8983 31.5095C39.8442 31.4167 39.7638 31.3422 39.6673 31.2952C39.5708 31.2482 39.4625 31.2309 39.3562 31.2454C39.2498 31.26 39.1502 31.3059 39.0699 31.3771C38.9896 31.4484 38.9323 31.5419 38.9052 31.6457C38.878 31.7496 38.8824 31.8592 38.9176 31.9606C38.9528 32.062 39.0173 32.1507 39.1029 32.2154C39.1886 32.2801 39.2915 32.3179 39.3987 32.3241C39.5058 32.3303 39.6124 32.3045 39.7049 32.2501C39.8286 32.1773 39.9183 32.0585 39.9546 31.9197C39.9908 31.7809 39.9706 31.6334 39.8983 31.5095Z" fill="#FABE16"/>
<path d="M29.0572 59.7158L28.4819 56.9911L29.095 56.8619L29.309 57.8749L29.6678 57.7992L29.4538 56.7854L30.0669 56.657L30.6421 59.3808L30.0298 59.5109L29.755 58.2098L29.3954 58.2855L29.6702 59.5866L29.0572 59.7158Z" fill="#E50695"/>
<path d="M31.4279 56.2628L32.5488 58.8385L31.9497 59.0146L31.6872 58.3769L31.358 58.4732L31.4526 59.1603L30.9457 59.3092L30.5976 56.5113L31.4279 56.2628ZM31.5242 57.9852L31.0692 56.8232H31.0609L31.3078 58.0461L31.5242 57.9852Z" fill="#E50695"/>
<path d="M31.8436 56.141L32.6583 55.8324L33.7511 57.5861L33.7577 57.5844L33.0401 55.6876L33.501 55.5131L34.4868 58.1177L33.733 58.4032L32.4723 56.3912L32.4657 56.3936L33.2903 58.5711L32.8295 58.7455L31.8436 56.141Z" fill="#E50695"/>
<path d="M33.5873 55.4761L34.1856 55.1988C34.5054 55.0446 34.7559 54.9875 34.9369 55.0276C35.1147 55.077 35.288 55.2871 35.457 55.6579L35.8792 56.559C35.9296 56.6642 35.9685 56.7746 35.9952 56.8882C36.0151 56.9895 36.0094 57.0941 35.9787 57.1927C35.9252 57.3819 35.7187 57.5589 35.3615 57.7251L34.7641 58.0024L33.5873 55.4761ZM35.1608 57.3786C35.3097 57.3095 35.3912 57.2363 35.4076 57.1581C35.4164 57.1144 35.4141 57.0691 35.401 57.0264C35.3838 56.9836 35.3615 56.9318 35.3336 56.8717L34.8505 55.8299C34.8085 55.712 34.7404 55.6052 34.6514 55.5172C34.6321 55.5054 34.6106 55.4978 34.5882 55.4946C34.5659 55.4915 34.5431 55.493 34.5214 55.4991C34.4543 55.518 34.389 55.5428 34.3263 55.5732L35.1608 57.3786Z" fill="#E50695"/>
<path d="M37.4049 55.458L37.5818 55.7806C37.8281 56.2299 37.7135 56.5851 37.2378 56.8463C37.1486 56.8955 37.0531 56.9323 36.9539 56.9557C36.8594 56.9798 36.7608 56.9826 36.6651 56.964C36.4659 56.9382 36.2909 56.79 36.14 56.5196L35.5303 55.4078C35.4606 55.2904 35.4161 55.1598 35.3994 55.0243C35.3862 54.9245 35.3973 54.8229 35.4317 54.7282C35.466 54.6335 35.5227 54.5485 35.5969 54.4804C35.6727 54.4138 35.7555 54.3556 35.8438 54.3067C36.0187 54.198 36.2223 54.1444 36.4281 54.1529C36.6091 54.1718 36.7712 54.31 36.9144 54.5643L37.0609 54.8326L36.5136 55.1354L36.3285 54.798C36.3038 54.7495 36.268 54.7075 36.224 54.6754C36.197 54.665 36.1678 54.6614 36.1391 54.665C36.1104 54.6686 36.083 54.6792 36.0594 54.696C36.0344 54.7058 36.0126 54.7222 35.9964 54.7436C35.9801 54.7649 35.97 54.7903 35.9672 54.817C35.9662 54.872 35.9801 54.9263 36.0075 54.9741L36.763 56.3525C36.7863 56.3995 36.8237 56.438 36.87 56.4628C36.8929 56.4783 36.92 56.4866 36.9477 56.4866C36.9754 56.4866 37.0025 56.4783 37.0255 56.4628C37.0532 56.4514 37.0773 56.4326 37.0951 56.4086C37.1129 56.3845 37.1239 56.356 37.1267 56.3262C37.1249 56.2749 37.1104 56.2249 37.0847 56.1805L36.8593 55.7617L37.4049 55.458Z" fill="#E50695"/>
<path d="M38.1784 56.2595L36.6848 53.9093L37.2172 53.571C37.4175 53.4261 37.6446 53.3226 37.8854 53.2666C38.0722 53.2443 38.2426 53.353 38.3964 53.5908C38.5907 53.887 38.5651 54.1545 38.3142 54.3923L38.3183 54.3989C38.425 54.3206 38.5568 54.2842 38.6886 54.2969C38.8038 54.3174 38.9141 54.4096 39.0178 54.5742L39.3305 55.0679C39.3654 55.1215 39.4059 55.1711 39.4514 55.216C39.4961 55.2705 39.5524 55.3143 39.616 55.3444L39.0885 55.6802C39.0248 55.6498 38.9686 55.6056 38.9239 55.551C38.8803 55.5047 38.8409 55.4546 38.8063 55.4012L38.4903 54.9033C38.4493 54.8328 38.3836 54.7801 38.3059 54.7552C38.2418 54.7426 38.1753 54.755 38.12 54.7898L38.0253 54.8499L38.7075 55.9238L38.1784 56.2595ZM37.8114 54.5149C37.9438 54.4326 38.013 54.3503 38.0187 54.2812C38.0187 54.1841 37.9853 54.09 37.9241 54.0146C37.8809 53.9275 37.8111 53.8563 37.7249 53.8113C37.6558 53.7932 37.5563 53.8261 37.4262 53.9084L37.8114 54.5149Z" fill="#E50695"/>
<path d="M39.2243 52.1968L41.1458 54.2442L40.6406 54.6112L40.1789 54.0994L39.9041 54.2993L40.2233 54.9149L39.7954 55.2251L38.5273 52.7037L39.2243 52.1968ZM39.8934 53.7866L39.0746 52.8452L39.068 52.8502L39.7098 53.92L39.8934 53.7866Z" fill="#E50695"/>
<path d="M41.3565 54.0747L39.5995 51.9145L40.6085 51.0941L40.8734 51.4199L40.3509 51.8446L40.7385 52.3227L41.2446 51.9112L41.5096 52.2371L41.0035 52.6485L41.842 53.6797L41.3565 54.0747Z" fill="#E50695"/>
<path d="M40.9434 51.364L40.662 51.0521L41.7828 50.0457L42.0634 50.3575L41.7351 50.6521L43.3159 52.4115L42.8501 52.8296L41.2701 51.071L40.9434 51.364Z" fill="#E50695"/>
<path d="M43.8285 51.9384L41.8741 49.9543L42.8007 49.0425L43.0953 49.3421L42.6147 49.8144L43.0468 50.253L43.5117 49.7955L43.8055 50.095L43.3414 50.5518L43.9799 51.1994L44.4597 50.7262L44.7551 51.0258L43.8285 51.9384Z" fill="#E50695"/>
<path d="M42.9562 48.8639L43.45 48.4245C43.7117 48.1831 43.9344 48.0553 44.1182 48.041C44.3036 48.0372 44.5308 48.1875 44.7996 48.492L45.4628 49.2326C45.5414 49.319 45.6104 49.4136 45.6686 49.5149C45.7179 49.6055 45.7431 49.7072 45.7418 49.8103C45.7456 50.0073 45.6008 50.2371 45.3073 50.4999L44.8136 50.9394L42.9562 48.8639ZM45.0135 50.2251C45.137 50.1156 45.1929 50.0218 45.183 49.9428C45.1778 49.8987 45.1623 49.8564 45.1378 49.8194C45.109 49.7831 45.0728 49.7371 45.0283 49.691L44.2622 48.8351C44.1879 48.7344 44.0917 48.652 43.9808 48.594C43.959 48.5884 43.9363 48.5874 43.914 48.5909C43.8918 48.5945 43.8706 48.6025 43.8516 48.6146C43.7928 48.6519 43.7377 48.6946 43.687 48.7422L45.0135 50.2251Z" fill="#E50695"/>
<path d="M45.7307 46.5951L45.2231 46.962L46.8545 49.2189L47.362 48.852L45.7307 46.5951Z" fill="#E50695"/>
<path d="M48.2402 46.9935L48.436 47.3053C48.7103 47.7387 48.6173 48.1003 48.157 48.3899C48.0708 48.4439 47.9779 48.4863 47.8805 48.5159C47.7873 48.5456 47.6887 48.5543 47.5917 48.5414C47.3915 48.5276 47.2079 48.3905 47.0412 48.1299L46.3655 47.0601C46.2889 46.9473 46.2365 46.8198 46.2117 46.6857C46.193 46.5838 46.1986 46.4789 46.2281 46.3796C46.2597 46.2876 46.3105 46.2035 46.3771 46.1327C46.4494 46.0618 46.5291 45.9989 46.6149 45.9451C46.7835 45.8255 46.9843 45.7596 47.1909 45.7558C47.3731 45.764 47.5434 45.8921 47.702 46.1401L47.8666 46.3977L47.3366 46.7318L47.1317 46.4026C47.1038 46.356 47.0655 46.3166 47.0198 46.2874C46.992 46.2782 46.9623 46.2762 46.9336 46.2815C46.9048 46.2868 46.8778 46.2993 46.8552 46.3178C46.8314 46.3294 46.8111 46.3473 46.7966 46.3694C46.7822 46.3916 46.7739 46.4173 46.7729 46.4438C46.7747 46.4989 46.7918 46.5525 46.8223 46.5985L47.66 47.9291C47.6866 47.974 47.7258 48.0101 47.7727 48.0328C47.7972 48.0461 47.8249 48.0519 47.8526 48.0494C47.8803 48.0469 47.9066 48.0362 47.9283 48.0188C47.9554 48.0057 47.9784 47.9855 47.9948 47.9602C48.0112 47.935 48.0203 47.9057 48.0213 47.8756C48.016 47.825 47.9985 47.7764 47.9702 47.7341L47.7234 47.3292L48.2402 46.9935Z" fill="#E50695"/>
<path d="M48.9594 47.832L47.6773 45.3599L48.8319 44.7609L49.0252 45.1336L48.4262 45.4447L48.7101 45.9903L49.2886 45.6908L49.482 46.0635L48.9035 46.3631L49.3215 47.1704L49.9206 46.8601L50.114 47.2329L48.9594 47.832Z" fill="#E50695"/>
<path d="M52.1079 45.2439L52.2412 45.5871C52.4267 46.0649 52.2667 46.4021 51.7615 46.5985C51.6666 46.6353 51.5672 46.6594 51.466 46.6701C51.3687 46.6818 51.2701 46.6717 51.1772 46.6404C50.9838 46.5886 50.8291 46.4199 50.7155 46.1319L50.2555 44.9493C50.2008 44.8243 50.1728 44.6892 50.1732 44.5527C50.1733 44.4488 50.1987 44.3466 50.2473 44.2548C50.2947 44.1695 50.3605 44.0959 50.4398 44.0392C50.524 43.9825 50.6142 43.9356 50.7089 43.8993C50.896 43.8138 51.1046 43.7871 51.3072 43.8228C51.485 43.8655 51.6273 44.0235 51.7359 44.2959L51.847 44.5807L51.2677 44.807L51.1278 44.4482C51.1091 44.3973 51.0793 44.3512 51.0406 44.3132C51.0152 44.2998 50.987 44.2928 50.9583 44.2928C50.9296 44.2928 50.9014 44.2998 50.876 44.3132C50.811 44.3379 50.7756 44.3733 50.769 44.421C50.7592 44.4766 50.7658 44.5337 50.7879 44.5856L51.3574 46.052C51.3749 46.1011 51.4067 46.1439 51.4487 46.1747C51.47 46.1925 51.4961 46.2035 51.5237 46.2063C51.5513 46.2091 51.5791 46.2035 51.6035 46.1903C51.6324 46.1827 51.6588 46.1673 51.6796 46.1459C51.7005 46.1244 51.7152 46.0977 51.722 46.0685C51.7272 46.0174 51.7192 45.9659 51.6989 45.9187L51.5343 45.4743L52.1079 45.2439Z" fill="#E50695"/>
<path d="M52.6412 46.2001L51.7796 43.5512L52.3795 43.357C52.6097 43.2665 52.8555 43.2225 53.1028 43.2278C53.2888 43.2533 53.4271 43.3998 53.5143 43.6697C53.6284 44.0049 53.5365 44.257 53.2386 44.4259V44.4333C53.3613 44.3844 53.4977 44.382 53.6221 44.4268C53.7282 44.4753 53.8122 44.5913 53.869 44.7773L54.0492 45.332C54.0708 45.3922 54.0983 45.4501 54.1315 45.5048C54.1623 45.5684 54.2067 45.6246 54.2615 45.6694L53.6624 45.8644C53.6073 45.82 53.5629 45.7637 53.5324 45.6998C53.5018 45.6444 53.4765 45.5863 53.4567 45.5262L53.274 44.965C53.2523 44.8863 53.2021 44.8186 53.1333 44.7749C53.0739 44.7473 53.0064 44.7429 52.944 44.7625L52.837 44.7971L53.2304 46.0068L52.6412 46.2001ZM52.7235 44.4185C52.8724 44.37 52.9588 44.3124 52.9827 44.2441C53.0062 44.1501 52.9972 44.0509 52.9572 43.9626C52.9371 43.8673 52.8872 43.7809 52.8148 43.7158C52.7523 43.6812 52.6502 43.687 52.5013 43.7347L52.7235 44.4185Z" fill="#E50695"/>
<path d="M54.3676 45.6455L53.6311 42.9603L54.8844 42.6163L54.9955 43.0212L54.3454 43.1998L54.5084 43.7931L55.1371 43.6203L55.2482 44.0252L54.6195 44.198L54.8606 45.0752L55.5107 44.8966L55.6218 45.3015L54.3676 45.6455Z" fill="#E50695"/>
<path d="M56.3755 42.2699L57.3293 44.9098L56.7195 45.0472L56.4982 44.3938L56.169 44.4687L56.2192 45.1608L55.7032 45.2768L55.5386 42.46L56.3755 42.2699ZM56.3607 43.998L55.9814 42.8089H55.974L56.1385 44.0433L56.3607 43.998Z" fill="#E50695"/>
<path d="M57.9638 44.7905L57.4667 44.8687L57.0331 42.1177L57.9473 41.9737L58.5159 43.8878L58.5234 43.8869L58.4773 41.8905L59.3726 41.7498L59.8055 44.5L59.2434 44.5889L58.8739 42.2378L58.8665 42.2386L58.8764 44.6465L58.3308 44.7329L57.6017 42.4378L57.5943 42.4386L57.9638 44.7905Z" fill="#E50695"/>
<path d="M59.2426 27.6895C59.6052 27.5701 59.9961 27.5678 60.3601 27.6829C61.0522 27.9083 62.0059 28.5881 61.1246 30.6643L59.5405 33.9708C59.5405 33.9708 58.9727 34.5773 58.6797 33.8531C58.6797 33.8531 56.2678 28.6424 59.2426 27.6895Z" fill="#00B4D5"/>
<path d="M57.2907 36.3375C57.2908 36.0358 57.3805 35.7409 57.5482 35.4901C57.7159 35.2393 57.9543 35.0439 58.2331 34.9285C58.5119 34.8132 58.8186 34.7831 59.1145 34.842C59.4104 34.901 59.6822 35.0464 59.8955 35.2598C60.1088 35.4732 60.254 35.745 60.3128 36.041C60.3716 36.3369 60.3413 36.6436 60.2258 36.9224C60.1103 37.2011 59.9148 37.4393 59.6639 37.6069C59.413 37.7745 59.1181 37.864 58.8164 37.864C58.6159 37.864 58.4175 37.8245 58.2323 37.7478C58.0472 37.6711 57.8789 37.5586 57.7373 37.4168C57.5956 37.2751 57.4832 37.1068 57.4066 36.9216C57.33 36.7364 57.2906 36.5379 57.2907 36.3375Z" fill="#00B4D5"/>
</svg>
