<svg width="13" height="13" viewBox="0 0 13 13" fill="none" xmlns="http://www.w3.org/2000/svg">
<path opacity="0.2" d="M11.9163 8.63433C11.9163 10.1456 10.703 11.3697 9.19176 11.3752H9.18634H3.81842C2.31259 11.3752 1.08301 10.1564 1.08301 8.64516V8.63975C1.08301 8.63975 1.08626 6.24233 1.09059 5.03658C1.09113 4.81016 1.35113 4.68341 1.52826 4.82425C2.81526 5.84529 5.1168 7.707 5.14551 7.73137C5.53009 8.03958 6.01759 8.21345 6.51592 8.21345C7.01426 8.21345 7.50176 8.03958 7.88634 7.72541C7.91505 7.70645 10.1651 5.90054 11.4716 4.8627C11.6493 4.72133 11.9104 4.84808 11.9109 5.07395C11.9163 6.2705 11.9163 8.63433 11.9163 8.63433Z" fill="#0EB5D5"/>
<path d="M11.6325 3.07317C11.1634 2.18917 10.2404 1.62476 9.22424 1.62476H3.8184C2.80224 1.62476 1.87924 2.18917 1.41015 3.07317C1.30507 3.27088 1.3549 3.51734 1.52986 3.65709L5.55174 6.87405C5.8334 7.10155 6.17465 7.21476 6.5159 7.21476C6.51807 7.21476 6.51969 7.21476 6.52132 7.21476C6.52294 7.21476 6.52511 7.21476 6.52674 7.21476C6.86799 7.21476 7.20924 7.10155 7.4909 6.87405L11.5128 3.65709C11.6877 3.51734 11.7376 3.27088 11.6325 3.07317Z" fill="#0EB5D5"/>
</svg>
