<svg width="16" height="16" viewBox="0 0 16 16" fill="none" xmlns="http://www.w3.org/2000/svg">
<path d="M12.6668 2.66663H3.3335C2.80306 2.66663 2.29436 2.87734 1.91928 3.25241C1.54421 3.62749 1.3335 4.13619 1.3335 4.66663V11.3333C1.3335 11.8637 1.54421 12.3724 1.91928 12.7475C2.29436 13.1226 2.80306 13.3333 3.3335 13.3333H12.6668C13.1973 13.3333 13.706 13.1226 14.081 12.7475C14.4561 12.3724 14.6668 11.8637 14.6668 11.3333V4.66663C14.6668 4.13619 14.4561 3.62749 14.081 3.25241C13.706 2.87734 13.1973 2.66663 12.6668 2.66663ZM3.3335 3.99996H12.6668C12.8436 3.99996 13.0132 4.0702 13.1382 4.19522C13.2633 4.32025 13.3335 4.48981 13.3335 4.66663L8.00016 7.91996L2.66683 4.66663C2.66683 4.48981 2.73707 4.32025 2.86209 4.19522C2.98712 4.0702 3.15669 3.99996 3.3335 3.99996ZM13.3335 11.3333C13.3335 11.5101 13.2633 11.6797 13.1382 11.8047C13.0132 11.9297 12.8436 12 12.6668 12H3.3335C3.15669 12 2.98712 11.9297 2.86209 11.8047C2.73707 11.6797 2.66683 11.5101 2.66683 11.3333V6.18663L7.6535 9.23329C7.75484 9.2918 7.8698 9.32261 7.98683 9.32261C8.10385 9.32261 8.21882 9.2918 8.32016 9.23329L13.3335 6.18663V11.3333Z" fill="white"/>
</svg>
