<svg width="41" height="41" viewBox="0 0 41 41" fill="none" xmlns="http://www.w3.org/2000/svg">
<rect width="41" height="41" rx="20.5" fill="#F9D0E9"/>
<path d="M28.0208 22.875C28.019 22.3998 27.8747 21.936 27.6066 21.5436C27.3384 21.1513 26.9587 20.8484 26.5166 20.6742L27.997 15.1325C28.0279 15.0145 28.0312 14.8909 28.0064 14.7714C27.9817 14.6519 27.9297 14.5398 27.8545 14.4437C27.7776 14.3537 27.6815 14.2821 27.5733 14.2342C27.465 14.1862 27.3474 14.1631 27.2291 14.1667H16.3833L16.122 13.1692C16.0766 13.0005 15.9766 12.8515 15.8377 12.7456C15.6988 12.6396 15.5288 12.5826 15.3541 12.5833H13.7708V14.1667H14.7445L16.7078 21.4975C16.7542 21.6702 16.8577 21.8221 17.0015 21.9285C17.1452 22.0349 17.3208 22.0894 17.4995 22.0833H25.6458C25.8557 22.0833 26.0571 22.1667 26.2055 22.3152C26.354 22.4637 26.4374 22.665 26.4374 22.875C26.4374 23.085 26.354 23.2863 26.2055 23.4348C26.0571 23.5832 25.8557 23.6667 25.6458 23.6667H15.3541C15.1441 23.6667 14.9428 23.7501 14.7943 23.8985C14.6458 24.047 14.5624 24.2484 14.5624 24.4583C14.5624 24.6683 14.6458 24.8696 14.7943 25.0181C14.9428 25.1666 15.1441 25.25 15.3541 25.25H16.2883C16.1581 25.6087 16.1162 25.9935 16.1663 26.3719C16.2163 26.7502 16.3568 27.1109 16.5759 27.4234C16.7949 27.7359 17.086 27.991 17.4246 28.1672C17.7631 28.3433 18.1391 28.4353 18.5208 28.4353C18.9024 28.4353 19.2784 28.3433 19.6169 28.1672C19.9555 27.991 20.2466 27.7359 20.4656 27.4234C20.6847 27.1109 20.8252 26.7502 20.8752 26.3719C20.9253 25.9935 20.8835 25.6087 20.7533 25.25H22.6216C22.5031 25.5766 22.4577 25.9253 22.4886 26.2714C22.5195 26.6175 22.626 26.9526 22.8005 27.2531C22.9751 27.5536 23.2134 27.8121 23.4988 28.0104C23.7841 28.2087 24.1095 28.3419 24.452 28.4008C24.7944 28.4596 25.1456 28.4426 25.4808 28.3509C25.816 28.2592 26.127 28.0951 26.3918 27.8701C26.6566 27.6452 26.8689 27.3648 27.0135 27.0489C27.1582 26.733 27.2318 26.3891 27.2291 26.0417C27.2276 25.6327 27.1184 25.2313 26.9124 24.8779C27.2509 24.6645 27.5301 24.3689 27.7238 24.0188C27.9176 23.6686 28.0197 23.2752 28.0208 22.875ZM24.9253 20.5H18.1249L16.8108 15.75H26.1999L24.9253 20.5ZM18.5208 26.8333C18.3642 26.8333 18.2111 26.7869 18.0809 26.6999C17.9507 26.6129 17.8493 26.4893 17.7893 26.3446C17.7294 26.2 17.7138 26.0408 17.7443 25.8872C17.7748 25.7336 17.8502 25.5926 17.961 25.4819C18.0717 25.3711 18.2127 25.2957 18.3663 25.2652C18.5199 25.2347 18.6791 25.2503 18.8237 25.3102C18.9684 25.3702 19.092 25.4716 19.179 25.6018C19.266 25.732 19.3124 25.8851 19.3124 26.0417C19.3124 26.2516 19.229 26.453 19.0805 26.6014C18.9321 26.7499 18.7307 26.8333 18.5208 26.8333ZM24.8541 26.8333C24.6975 26.8333 24.5444 26.7869 24.4143 26.6999C24.2841 26.6129 24.1826 26.4893 24.1227 26.3446C24.0628 26.2 24.0471 26.0408 24.0776 25.8872C24.1082 25.7336 24.1836 25.5926 24.2943 25.4819C24.405 25.3711 24.5461 25.2957 24.6996 25.2652C24.8532 25.2347 25.0124 25.2503 25.157 25.3102C25.3017 25.3702 25.4253 25.4716 25.5123 25.6018C25.5993 25.732 25.6458 25.8851 25.6458 26.0417C25.6458 26.2516 25.5623 26.453 25.4139 26.6014C25.2654 26.7499 25.064 26.8333 24.8541 26.8333Z" fill="#333333"/>
</svg>
