<svg width="246" height="254" viewBox="0 0 246 254" fill="none" xmlns="http://www.w3.org/2000/svg">
<path d="M219.878 54.207L218.516 51.965C207.015 33.009 186.226 21.586 164.305 22.9929C161.478 23.1695 158.668 23.5554 155.897 24.1475C135.966 28.4129 118.624 43.4847 111.439 62.7826C107.207 74.1383 106.03 87.2035 97.9867 96.2164C87.5503 107.942 69.8217 108.312 54.2679 107.824C38.7141 107.337 20.9463 107.751 10.549 119.527C4.04164 126.898 1.9734 137.385 2.50027 147.261C3.8903 173.403 22.1177 196.775 45.2719 208.394C68.4261 220.014 95.7167 221.056 121.068 215.944C156.587 208.781 190.368 189.119 210.669 158.774C230.971 128.428 236.122 86.9849 219.878 54.207Z" fill="#F5F5F5"/>
<path d="M204.817 227.205C204.817 227.205 191.208 211.511 186.069 195.867C180.929 180.224 183.373 181.995 183.373 181.995C183.373 181.995 190.306 197.218 195.575 204.566C200.843 211.914 210.215 222.709 210.215 222.709L204.817 227.205Z" fill="#455A64"/>
<path d="M207.53 184.416C207.441 184.252 207.297 184.126 207.123 184.058C206.949 183.99 206.757 183.986 206.58 184.047C206.404 184.107 206.254 184.228 206.158 184.388C206.063 184.548 206.026 184.737 206.056 184.921C206.886 190.425 208.679 203.339 208.612 211.718C208.517 222.597 208.612 226.801 208.612 226.801H214.279C214.279 226.801 213.275 204.308 211.992 197.448C211.095 192.661 209.189 187.325 207.53 184.416Z" fill="#455A64"/>
<path d="M210.624 224.996C212.998 219.616 214.569 213.917 215.287 208.08C215.753 204.073 214.917 198.658 213.679 191.439C213.208 188.796 212.977 186.115 212.989 183.43C212.994 183.132 213.096 182.844 213.281 182.61C213.466 182.376 213.723 182.211 214.012 182.138C214.301 182.066 214.606 182.091 214.88 182.21C215.153 182.329 215.379 182.535 215.523 182.796C216.207 184.013 218.191 188.183 218.69 190.795C220.063 197.93 221.615 201.495 220.427 208.265C219.239 215.036 214.822 225.456 214.822 225.456L210.624 224.996Z" fill="#455A64"/>
<path d="M215.724 225.456C215.724 225.456 230.672 193.334 231.709 188.57C232.746 183.805 236.266 172.82 236.681 173.436C237.095 174.053 237.718 179.859 234.999 186.49C232.281 193.121 220.835 226.454 220.835 226.454H215.729" fill="#455A64"/>
<path d="M208.987 224.015C208.838 223.935 208.697 223.839 208.567 223.73C208.298 223.528 207.9 223.248 207.407 222.844C206.01 221.732 204.67 220.55 203.394 219.302C199.182 215.158 195.535 210.477 192.548 205.379C189.565 200.288 187.086 194.92 185.144 189.349C184.393 187.213 183.843 185.47 183.49 184.254C183.305 183.648 183.182 183.172 183.092 182.852C183.041 182.691 183.002 182.526 182.975 182.359C183.049 182.512 183.109 182.672 183.154 182.836L183.608 184.22C184 185.42 184.578 187.151 185.357 189.265C187.352 194.797 189.847 200.137 192.811 205.216C195.791 210.299 199.399 214.986 203.55 219.167C205.148 220.759 206.516 221.97 207.474 222.777C207.95 223.191 208.343 223.489 208.595 223.707C208.732 223.802 208.863 223.905 208.987 224.015Z" fill="#263238"/>
<path d="M210.617 208.607C210.546 208.298 210.501 207.983 210.483 207.666C210.415 206.999 210.32 206.136 210.208 205.087C209.973 202.918 209.603 199.92 209.087 196.629C208.571 193.339 207.966 190.374 207.512 188.222C207.288 187.196 207.109 186.344 206.952 185.694C206.871 185.387 206.816 185.074 206.789 184.758C206.906 185.052 207.002 185.353 207.075 185.661C207.243 186.255 207.462 187.112 207.719 188.177C208.235 190.301 208.84 193.266 209.401 196.585C209.961 199.903 210.264 202.89 210.444 205.076C210.533 206.164 210.595 207.049 210.617 207.66C210.645 207.975 210.645 208.292 210.617 208.607Z" fill="#263238"/>
<path d="M214.11 182.544C214.184 182.673 214.243 182.81 214.284 182.953C214.401 183.256 214.547 183.648 214.732 184.147C214.917 184.646 215.158 185.302 215.377 186.059C215.595 186.815 215.887 187.662 216.1 188.631C216.223 189.113 216.346 189.618 216.47 190.139C216.593 190.66 216.688 191.221 216.8 191.82C217.047 192.941 217.198 194.197 217.361 195.497C218.05 201.141 217.853 206.858 216.778 212.441C216.509 213.725 216.268 214.947 215.943 216.068C215.786 216.628 215.657 217.189 215.494 217.693C215.332 218.197 215.169 218.702 215.018 219.173C214.732 220.12 214.385 220.95 214.11 221.684C213.835 222.418 213.55 223.046 213.331 223.545C213.112 224.043 212.933 224.413 212.798 224.705C212.745 224.842 212.677 224.974 212.597 225.097C212.632 224.953 212.681 224.812 212.742 224.677C212.86 224.38 213.023 223.987 213.219 223.5C213.415 223.012 213.69 222.379 213.942 221.622C214.194 220.865 214.536 220.053 214.805 219.105L215.259 217.626C215.416 217.11 215.539 216.561 215.685 216C215.999 214.879 216.246 213.663 216.492 212.385C217.537 206.818 217.741 201.125 217.097 195.497C216.924 194.203 216.784 192.975 216.537 191.837C216.425 191.277 216.346 190.716 216.229 190.184L215.876 188.676C215.674 187.712 215.405 186.86 215.197 186.103C214.99 185.347 214.788 184.702 214.609 184.181L214.222 182.97C214.169 182.833 214.132 182.69 214.11 182.544Z" fill="#263238"/>
<path d="M236.53 174.086C236.536 174.135 236.536 174.184 236.53 174.232C236.53 174.344 236.508 174.484 236.463 174.652C236.401 175.017 236.317 175.56 236.171 176.25C235.88 177.629 235.398 179.613 234.652 182.028C233.907 184.444 232.887 187.275 231.676 190.38C230.465 193.485 229.07 196.882 227.753 200.469C226.435 204.056 225.365 207.587 224.39 210.771C223.414 213.954 222.506 216.83 221.621 219.178C220.938 221.052 220.15 222.886 219.261 224.671C218.958 225.305 218.701 225.792 218.504 226.106L218.297 226.476C218.248 226.558 218.22 226.597 218.213 226.594C218.223 226.547 218.24 226.501 218.263 226.459L218.448 226.078C218.605 225.742 218.863 225.26 219.149 224.615C219.754 223.343 220.561 221.471 221.391 219.1C222.22 216.729 223.14 213.865 224.087 210.692C225.034 207.52 226.082 203.966 227.45 200.362C228.818 196.758 230.191 193.362 231.407 190.273C232.623 187.185 233.649 184.36 234.445 181.961C235.241 179.562 235.728 177.595 236.054 176.222C236.216 175.538 236.323 175 236.407 174.636C236.446 174.473 236.48 174.338 236.502 174.226C236.508 174.179 236.517 174.132 236.53 174.086Z" fill="#263238"/>
<path d="M190.419 166.996C190.214 166.796 189.947 166.67 189.662 166.638C189.377 166.607 189.09 166.672 188.846 166.823C188.602 166.974 188.416 167.202 188.317 167.471C188.218 167.74 188.212 168.035 188.3 168.308C188.815 169.957 189.442 171.57 190.178 173.133C192.235 177.5 198.271 193.171 201.096 201.775C203.921 210.379 207.901 226.437 207.901 226.437L213.937 225.462C213.937 225.462 208.416 199.084 203.024 189.59C198.686 181.939 194.353 170.903 190.419 166.996Z" fill="#455A64"/>
<path d="M202.749 207.156C202.874 207.387 202.977 207.629 203.057 207.879C203.237 208.355 203.478 209.045 203.752 209.908C204.313 211.628 204.991 214.033 205.675 216.701C206.359 219.369 206.925 221.801 207.323 223.567C207.502 224.397 207.653 225.097 207.777 225.658C207.846 225.91 207.888 226.17 207.9 226.431C207.791 226.192 207.709 225.942 207.653 225.686L207.093 223.617C206.633 221.801 206.022 219.419 205.355 216.779C204.688 214.139 204.027 211.707 203.528 209.969C203.287 209.151 203.085 208.467 202.928 207.918C202.839 207.672 202.779 207.416 202.749 207.156Z" fill="#263238"/>
<path d="M210.932 225.944C210.914 225.891 210.903 225.836 210.899 225.781L210.832 225.305C210.764 224.89 210.708 224.273 210.585 223.483C210.361 221.897 209.968 219.61 209.318 216.824C208.552 213.564 207.617 210.346 206.516 207.184C205.277 203.613 203.713 199.751 201.97 195.75C198.417 187.779 194.852 180.683 192.52 175.448C191.343 172.836 190.429 170.701 189.83 169.216C189.521 168.476 189.303 167.893 189.151 167.5L188.983 167.052C188.963 167.001 188.948 166.949 188.938 166.895C188.938 166.895 188.967 166.94 189.011 167.035L189.213 167.478C189.387 167.887 189.633 168.448 189.942 169.159C190.581 170.634 191.522 172.747 192.744 175.325C195.121 180.532 198.697 187.6 202.273 195.593C204.033 199.6 205.58 203.473 206.807 207.06C207.907 210.235 208.83 213.469 209.57 216.746C210.073 218.956 210.464 221.189 210.742 223.438C210.848 224.228 210.888 224.851 210.927 225.271C210.927 225.467 210.955 225.624 210.966 225.753C210.965 225.818 210.954 225.882 210.932 225.944Z" fill="#263238"/>
<path d="M213.936 225.456C213.84 225.124 213.77 224.785 213.729 224.441C213.611 223.73 213.454 222.799 213.264 221.639C212.843 219.302 212.21 216.079 211.296 212.576C210.383 209.073 209.38 205.951 208.595 203.709L207.648 201.057C207.519 200.738 207.412 200.41 207.328 200.077C207.5 200.376 207.646 200.689 207.765 201.013C208.023 201.624 208.387 202.515 208.808 203.63C209.896 206.535 210.831 209.495 211.61 212.497C212.387 215.498 213.012 218.536 213.482 221.6C213.656 222.777 213.791 223.735 213.852 224.402C213.908 224.751 213.937 225.103 213.936 225.456Z" fill="#263238"/>
<path d="M226.318 224.587H202.766V253.279H226.318V224.587Z" fill="#2A4E96"/>
<g opacity="0.3">
<path opacity="0.3" d="M226.318 224.587H202.766V253.279H226.318V224.587Z" fill="black"/>
</g>
<path d="M218.807 224.587H197.911V253.279H218.807V224.587Z" fill="#2A4E96"/>
<path d="M69.2051 132.24C69.2051 132.24 69.211 132.216 69.2051 132.24V132.24Z" fill="#2A4E96"/>
<path d="M179.751 210.384C179.566 206.354 173.524 152.182 172.611 145.226C171.153 134.117 162.219 131.332 162.219 131.332L131.846 120.85H101.792L69.2212 132.228V132.789C69.2212 132.486 69.2212 132.301 69.2212 132.228C68.8961 132.408 60.881 134.689 58.9585 142.586C57.9104 146.902 45.6747 208.125 45.5065 209.925C45.3384 211.724 46.947 222.698 55.5955 224.139C58.8296 224.699 65.8302 224.178 73.3129 223.349L67.422 253.358H161.832L158.469 231.907C165.974 228.982 173.833 225.742 175.144 224.352C177.734 221.706 179.92 214.409 179.751 210.384Z" fill="#2A4E96"/>
<g opacity="0.3">
<path opacity="0.3" d="M97.6328 204.034C97.49 202.1 97.02 200.205 96.2428 198.429C95.3908 196.697 93.9167 195.178 92.0446 194.696C90.1726 194.214 87.9306 194.993 87.101 196.742C83.6932 206.27 86.7928 211.685 93.2665 216.847C94.2978 217.671 95.5702 218.31 96.8313 217.934C98.0924 217.559 98.3222 216.651 98.3839 215.356C98.5744 211.517 98.0868 207.823 97.6328 204.034Z" fill="black"/>
</g>
<path d="M84.3275 193.16C84.1261 193.215 83.9195 193.249 83.711 193.261L82.0295 193.44C80.5722 193.581 78.5376 193.766 76.2115 193.962H76.2788C75.7463 194.332 75.197 194.718 74.6421 195.122C72.6737 196.484 70.8765 198.078 69.2894 199.869C68.8242 200.423 68.3991 201.01 68.0171 201.624C67.8977 201.864 67.757 202.093 67.5967 202.308C67.6764 202.05 67.7835 201.802 67.9162 201.568C68.2662 200.925 68.6713 200.313 69.1268 199.74C70.684 197.89 72.4824 196.258 74.474 194.887C75.0345 194.477 75.595 194.096 76.1163 193.726H76.1499H76.1835C78.5152 193.547 80.5554 193.396 82.0183 193.306L83.7334 193.211C83.9292 193.174 84.1283 193.157 84.3275 193.16Z" fill="#263238"/>
<path d="M99.0174 203.653C99.0402 203.706 99.0553 203.763 99.0622 203.821L99.1687 204.325C99.2528 204.768 99.3705 205.446 99.4658 206.27C99.7337 208.675 99.8647 211.093 99.8581 213.512C99.8581 214.274 99.8581 215.076 99.8581 215.911C99.9013 216.816 99.5987 217.704 99.0117 218.394C98.365 219.113 97.47 219.562 96.5063 219.649L93.5973 220.154C89.6178 220.854 85.2515 221.695 80.6386 222.441C76.0257 223.186 71.609 223.713 67.579 224.066C63.549 224.419 59.9002 224.699 56.8343 224.481C56.1048 224.433 55.3799 224.331 54.6651 224.178C54.0219 224.029 53.4069 223.777 52.8435 223.433C51.9609 222.875 51.1431 222.221 50.4054 221.482C49.7888 220.882 49.3404 220.395 49.0321 220.064L48.6902 219.689C48.6485 219.645 48.611 219.599 48.5781 219.548L48.7126 219.666L49.077 220.025C49.3908 220.344 49.8617 220.815 50.4838 221.398C51.2283 222.115 52.0476 222.75 52.9276 223.293C53.4781 223.622 54.0781 223.86 54.7044 223.999C55.4126 224.14 56.13 224.232 56.8511 224.273C59.8946 224.47 63.5322 224.189 67.551 223.797C71.5698 223.405 75.9921 222.9 80.5938 222.149C85.1955 221.398 89.5617 220.574 93.5469 219.907L96.4615 219.408C97.3713 219.34 98.22 218.924 98.8324 218.248C99.3878 217.604 99.6729 216.771 99.6283 215.922C99.6563 215.092 99.6675 214.291 99.6675 213.529C99.6939 211.117 99.5948 208.705 99.3705 206.304C99.292 205.452 99.1911 204.796 99.1295 204.348C99.0958 204.14 99.0734 203.972 99.051 203.843C99.0307 203.782 99.0193 203.718 99.0174 203.653Z" fill="#263238"/>
<path d="M79.6635 158.241C79.7476 158.241 79.0301 166.223 78.0605 176.043C77.0908 185.863 76.25 193.827 76.166 193.816C76.0819 193.805 76.7881 185.84 77.7746 176.009C78.7611 166.178 79.5906 158.236 79.6635 158.241Z" fill="#263238"/>
<path d="M157.102 151.302C157.107 151.349 157.107 151.396 157.102 151.442C157.102 151.549 157.102 151.678 157.102 151.84C157.102 152.21 157.074 152.72 157.052 153.365C157.007 154.693 156.917 156.61 156.794 158.97C156.542 163.712 156.093 170.258 155.533 177.466C154.972 184.674 154.49 191.226 154.188 195.963C154.042 198.317 153.919 200.222 153.834 201.568C153.795 202.212 153.756 202.722 153.734 203.092C153.734 203.255 153.734 203.384 153.7 203.49C153.706 203.535 153.706 203.58 153.7 203.625C153.694 203.58 153.694 203.535 153.7 203.49V203.092C153.7 202.717 153.7 202.207 153.745 201.562C153.79 200.234 153.879 198.317 154.003 195.957C154.255 191.215 154.709 184.674 155.264 177.461C155.819 170.247 156.306 163.7 156.609 158.964C156.76 156.616 156.878 154.704 156.962 153.359C157.007 152.715 157.041 152.238 157.063 151.835C157.063 151.678 157.091 151.543 157.097 151.437C157.093 151.392 157.094 151.347 157.102 151.302Z" fill="#263238"/>
<path d="M176.944 209.426C176.416 208.563 175.834 207.736 175.2 206.948C173.619 205.099 171.571 203.706 169.27 202.913C167.99 202.501 166.678 202.196 165.347 201.999C163.528 201.717 161.667 202.021 160.033 202.868C159.8 203.008 159.557 203.13 159.305 203.232C159.305 203.232 159.355 203.176 159.467 203.098C159.633 202.979 159.805 202.868 159.983 202.767C160.63 202.389 161.326 202.1 162.051 201.91C163.14 201.644 164.27 201.585 165.38 201.736C166.728 201.917 168.056 202.219 169.349 202.638C171.707 203.444 173.79 204.899 175.357 206.836C175.83 207.417 176.249 208.04 176.607 208.697C176.744 208.928 176.857 209.172 176.944 209.426Z" fill="#263238"/>
<path d="M161.12 230.899C161.019 230.968 160.91 231.025 160.795 231.067L159.831 231.498C158.996 231.868 157.785 232.406 156.272 233.04C154.515 233.827 152.697 234.468 150.835 234.957C149.711 235.231 148.542 235.263 147.405 235.052C146.189 234.767 145.078 234.145 144.199 233.258C143.333 232.371 142.657 231.317 142.214 230.159C141.771 229.108 141.417 228.023 141.155 226.913C140.698 225.045 140.354 223.151 140.124 221.241C139.928 219.61 139.816 218.293 139.737 217.379C139.703 216.948 139.681 216.595 139.659 216.326C139.646 216.203 139.646 216.079 139.659 215.956C139.694 216.074 139.717 216.197 139.726 216.32C139.759 216.589 139.804 216.937 139.855 217.368C139.967 218.276 140.113 219.61 140.337 221.213C140.582 223.11 140.938 224.991 141.402 226.846C141.667 227.94 142.022 229.01 142.461 230.047C142.893 231.166 143.547 232.186 144.384 233.045C145.225 233.895 146.287 234.493 147.449 234.772C148.547 234.979 149.676 234.952 150.762 234.693C152.612 234.22 154.422 233.603 156.176 232.849L159.769 231.392L160.756 231.011C160.872 230.958 160.994 230.921 161.12 230.899Z" fill="#263238"/>
<g opacity="0.3">
<path opacity="0.3" d="M99.0788 218.13C98.2381 219.302 96.4613 219.537 95.0432 219.778C87.5494 221.051 80.7785 222.267 73.1838 223.091L72.2197 228.046C79.8873 226.818 87.7792 225.198 95.0152 222.39C96.016 222.055 96.951 221.549 97.7784 220.894C98.1923 220.563 98.5247 220.142 98.7502 219.663C98.9756 219.184 99.088 218.66 99.0788 218.13Z" fill="black"/>
</g>
<g opacity="0.3">
<path opacity="0.3" d="M142.506 217.592C142.793 221.703 143.976 225.701 145.97 229.307C146.435 230.108 147.141 230.988 148.066 230.887C148.783 230.809 149.282 230.164 149.658 229.553C151.11 227.21 152.427 224.98 152.875 222.267L145.729 219.414L142.506 217.592Z" fill="black"/>
</g>
<path d="M126.902 216.752C126.952 216.819 121.504 221.09 114.744 226.28C107.985 231.47 102.458 235.657 102.413 235.595C102.369 235.534 107.811 231.257 114.571 226.067C121.33 220.877 126.851 216.69 126.902 216.752Z" fill="#263238"/>
<path d="M156.698 206.836C156.746 207.146 156.772 207.459 156.776 207.772C156.796 208.146 156.796 208.52 156.776 208.893C156.776 209.319 156.72 209.807 156.658 210.339C156.288 213.127 155.608 215.864 154.629 218.5C153.687 221.145 152.497 223.696 151.076 226.117C150.641 226.849 150.165 227.557 149.652 228.236C149.472 228.491 149.269 228.729 149.047 228.948C149.196 228.674 149.369 228.413 149.563 228.169C149.893 227.676 150.37 226.947 150.897 226.011C152.261 223.575 153.418 221.029 154.355 218.399C155.324 215.783 156.026 213.075 156.451 210.317C156.524 209.785 156.591 209.308 156.614 208.882C156.636 208.456 156.681 208.092 156.67 207.795C156.65 207.475 156.66 207.154 156.698 206.836Z" fill="#263238"/>
<path d="M114.824 188.273C114.824 188.273 106.5 174.978 99.9704 177.59C99.9704 177.59 96.6523 174.871 94.5336 176.614C92.4149 178.357 93.1716 181.889 93.1716 181.889C93.1716 181.889 89.1472 178.626 87.348 180.314C85.5488 182.001 86.8603 184.882 87.348 186.3C87.7303 187.743 87.9853 189.217 88.1103 190.705C88.1103 190.705 85.6609 189.455 84.5175 191.467C83.374 193.48 87.7291 200.228 88.3849 201.153C89.0407 202.078 93.2276 206.197 96.1086 205.127C98.9895 204.056 101.007 201.153 101.007 201.153L114.824 188.273Z" fill="#F0B79D"/>
<path d="M93.1651 182.399C93.429 182.533 93.6804 182.69 93.9161 182.869L95.9115 184.237L98.8373 186.3C99.132 186.504 99.4011 186.743 99.6388 187.012C99.8985 187.307 100.054 187.679 100.082 188.071C100.077 188.483 99.9561 188.885 99.7318 189.23C99.5075 189.576 99.1894 189.85 98.8149 190.021C98.0906 190.353 97.278 190.44 96.5 190.268C95.7979 190.109 95.1209 189.854 94.4879 189.511C93.2884 188.889 92.2459 188.278 91.3659 187.74C90.4859 187.202 89.8133 186.737 89.3481 186.401C89.0968 186.237 88.8621 186.049 88.6475 185.84C88.9147 185.971 89.1714 186.123 89.4153 186.294C89.8974 186.597 90.5924 187.034 91.4724 187.55C92.3524 188.065 93.4117 188.671 94.6112 189.231C95.2243 189.555 95.8786 189.795 96.5561 189.943C97.2691 190.103 98.0148 190.026 98.6804 189.724C99.0073 189.579 99.2862 189.344 99.4847 189.046C99.6831 188.748 99.7929 188.401 99.8014 188.043C99.7423 187.715 99.6111 187.405 99.4172 187.135C99.2233 186.864 98.9716 186.64 98.6804 186.479L95.7882 184.416L93.8545 182.976C93.6083 182.804 93.3777 182.611 93.1651 182.399Z" fill="#EB996E"/>
<path d="M93.2785 181.995C93.2785 181.995 93.3681 182.046 93.5251 182.158L94.2033 182.673C94.7918 183.116 95.6382 183.766 96.7143 184.523C97.9495 185.435 99.3011 186.178 100.733 186.731C101.58 187.038 102.464 187.226 103.362 187.292C104.313 187.406 105.277 187.276 106.164 186.916C106.587 186.71 106.938 186.38 107.168 185.969C107.271 185.771 107.335 185.555 107.354 185.333C107.373 185.111 107.348 184.887 107.28 184.674C106.936 183.851 106.427 183.106 105.783 182.488C104.713 181.381 103.563 180.355 102.342 179.417C101.305 178.61 100.436 177.993 99.8307 177.567L99.1357 177.08C98.9787 176.967 98.8947 176.906 98.9003 176.895C98.9941 176.93 99.0842 176.976 99.1693 177.029C99.3374 177.124 99.5785 177.276 99.8923 177.472C100.52 177.87 101.406 178.464 102.465 179.254C103.717 180.174 104.892 181.194 105.979 182.303C106.276 182.628 106.579 182.965 106.859 183.335C107.164 183.711 107.399 184.138 107.554 184.596C107.634 184.844 107.663 185.106 107.64 185.366C107.616 185.626 107.542 185.878 107.42 186.109C107.168 186.574 106.776 186.946 106.299 187.174C105.366 187.562 104.348 187.701 103.345 187.578C102.422 187.498 101.515 187.29 100.649 186.961C99.1997 186.39 97.8375 185.618 96.6022 184.669C95.5317 183.89 94.7021 183.211 94.136 182.735L93.4915 182.174C93.3401 182.074 93.2673 182.001 93.2785 181.995Z" fill="#EB996E"/>
<path d="M87.7347 190.683L93.5863 193.485C94.2477 193.805 95.0211 194.287 94.9931 195.021C94.9572 195.361 94.8071 195.679 94.5671 195.923C94.0667 196.436 93.4569 196.829 92.7833 197.072C92.1097 197.316 91.3898 197.404 90.6773 197.33C89.2554 197.166 87.8665 196.788 86.5576 196.209" fill="#F0B79D"/>
<path d="M86.5576 196.232C86.5576 196.17 87.5329 196.579 89.1191 196.983C90.043 197.221 91.005 197.275 91.9496 197.14C92.4999 197.047 93.0293 196.857 93.5134 196.579C94.0311 196.304 94.4605 195.888 94.7521 195.38C94.8115 195.258 94.8424 195.125 94.8424 194.99C94.8424 194.855 94.8115 194.722 94.7521 194.601C94.6192 194.353 94.4265 194.143 94.1916 193.99C93.7119 193.693 93.2118 193.431 92.6951 193.205L90.0944 191.916L88.3456 191.03C88.1271 190.929 87.9187 190.807 87.7235 190.666C87.9552 190.731 88.1804 190.817 88.3961 190.924L90.1784 191.731L92.8128 192.958C93.3448 193.189 93.8598 193.457 94.3541 193.76C94.6312 193.936 94.8573 194.181 95.0099 194.472C95.0873 194.632 95.1275 194.807 95.1275 194.985C95.1275 195.162 95.0873 195.338 95.0099 195.497C94.6823 196.021 94.2401 196.462 93.7168 196.79C93.1934 197.117 92.6026 197.321 91.9888 197.386C91.0087 197.518 90.0118 197.441 89.063 197.162C88.4309 196.989 87.8111 196.774 87.2078 196.518C86.9814 196.446 86.7634 196.35 86.5576 196.232Z" fill="#EB996E"/>
<path d="M96.8531 204.791L88.0365 211.444C88.0365 211.444 83.7599 205.486 86.6016 198.266H88.7259L88.2439 200.632L92.257 201.472L96.8531 204.791Z" fill="#F0B79D"/>
<path d="M86.417 198.104L89.6791 202.352C90.0328 202.862 90.4553 203.32 90.9346 203.714C91.176 203.909 91.4545 204.053 91.7532 204.137C92.052 204.221 92.3646 204.243 92.6722 204.202" fill="#F0B79D"/>
<path d="M92.65 204.174C92.4337 204.254 92.2023 204.285 91.9725 204.265C91.7427 204.245 91.5203 204.173 91.3216 204.056C90.8766 203.839 90.4801 203.534 90.1557 203.159C89.7858 202.75 89.4327 202.268 89.0347 201.781C88.2725 200.789 87.5999 199.881 87.1234 199.219C86.8401 198.875 86.5975 198.498 86.4004 198.098C86.7302 198.394 87.0271 198.725 87.286 199.085C87.8072 199.718 88.5079 200.604 89.2645 201.596C89.6513 202.089 89.9932 202.571 90.3407 202.974C90.6335 203.334 90.9908 203.637 91.3944 203.866C91.7839 204.063 92.2134 204.168 92.65 204.174Z" fill="#EB996E"/>
<path d="M88.9508 199.051L99.7684 188.727C100.29 188.228 100.906 187.837 101.579 187.577C102.252 187.316 102.97 187.191 103.692 187.208L159.08 188.828C159.322 188.835 159.555 188.917 159.748 189.064C159.94 189.21 160.082 189.413 160.154 189.644C160.225 189.874 160.223 190.122 160.147 190.351C160.071 190.581 159.926 190.781 159.73 190.924L144.171 202.352C143.9 202.55 143.57 202.649 143.235 202.633L89.4272 200.301C89.2839 200.297 89.1449 200.251 89.0279 200.168C88.9109 200.085 88.8211 199.97 88.7701 199.836C88.719 199.702 88.7089 199.556 88.7411 199.416C88.7733 199.276 88.8463 199.149 88.9508 199.051Z" fill="#E0E0E0"/>
<path d="M160.179 190.218C160.114 190.226 160.048 190.226 159.983 190.218H159.422L157.231 190.184L149.165 190.021L122.581 189.31L107.946 188.9L104.662 188.799C104.145 188.766 103.626 188.766 103.109 188.799C102.618 188.861 102.143 189.013 101.708 189.248C101.295 189.493 100.918 189.793 100.587 190.139L99.5443 191.098L97.5825 192.908L91.6412 198.356L90.0158 199.83L89.5898 200.206L89.4385 200.329C89.4385 200.329 89.4777 200.273 89.5674 200.183L89.9765 199.785L91.5628 198.272L97.4424 192.757L99.3929 190.935L100.43 189.965C100.779 189.604 101.175 189.291 101.607 189.035C102.068 188.783 102.571 188.62 103.092 188.553C103.622 188.516 104.154 188.516 104.684 188.553L107.969 188.643L122.609 189.046L149.188 189.842L157.242 190.117L159.433 190.206L159.994 190.24C160.055 190.226 160.117 190.219 160.179 190.218Z" fill="#263238"/>
<path d="M171.153 161.094C171.226 161.128 168.468 166.458 164.987 172.993C161.507 179.529 158.637 184.798 158.564 184.764C158.491 184.73 161.254 179.4 164.729 172.865C168.204 166.329 171.085 161.055 171.153 161.094Z" fill="white"/>
<path d="M150.868 159.995C150.947 159.995 149.842 164.776 148.396 170.645C146.95 176.513 145.717 181.233 145.639 181.21C145.56 181.188 146.67 176.429 148.116 170.561C149.562 164.692 150.773 159.973 150.868 159.995Z" fill="white"/>
<path d="M66.1379 168.722C66.1996 168.672 69.5906 172.45 73.7046 177.158C77.8187 181.866 81.12 185.734 81.0584 185.784C80.9967 185.834 77.6057 182.062 73.486 177.377C69.3664 172.691 66.065 168.756 66.1379 168.722Z" fill="white"/>
<path d="M79.5056 149.957C79.5785 149.957 81.3497 155.786 83.4571 163.028C85.5646 170.269 87.2125 176.149 87.134 176.171C87.0555 176.194 85.2844 170.348 83.1769 163.106C81.0694 155.865 79.4272 149.985 79.5056 149.957Z" fill="white"/>
<path d="M134.289 143.55C134.311 143.68 134.32 143.811 134.317 143.943C134.317 144.234 134.317 144.61 134.317 145.064V149.251C134.317 152.816 134.261 157.658 134.222 163.061C134.183 168.465 134.088 173.313 134.043 176.872C134.004 178.615 133.975 180.039 133.953 181.059C133.953 181.53 133.953 181.911 133.914 182.18C133.917 182.313 133.906 182.447 133.88 182.578C133.867 182.446 133.867 182.312 133.88 182.18C133.88 181.894 133.88 181.513 133.88 181.059C133.88 180.039 133.88 178.615 133.88 176.872C133.88 173.307 133.936 168.465 133.975 163.061C134.015 157.658 134.11 152.816 134.16 149.251C134.194 147.508 134.222 146.09 134.245 145.064C134.245 144.593 134.273 144.217 134.284 143.943C134.271 143.812 134.273 143.681 134.289 143.55Z" fill="white"/>
<path d="M153.206 75.0856C151.116 72.8436 148.582 70.7305 147.854 67.7543C147.181 65.0135 148.145 61.8803 146.699 59.4645C144.917 56.4883 140.472 56.2417 138.331 53.5176C137.288 52.1949 136.929 50.4461 135.904 49.1177C134.155 46.8757 130.904 46.3152 128.057 46.7356C125.209 47.156 122.513 48.2433 119.649 48.5348C115.726 48.9384 111.662 47.7893 107.941 49.0393C103.838 50.4125 101.422 54.1622 98.838 57.7998L95.475 62.0372C94.7804 62.7673 94.0164 63.4281 93.1938 64.0102C91.7421 65.0191 90.0718 65.7309 88.8387 66.992C86.2044 69.6936 86.5967 74.7045 89.6178 76.9577C88.1346 77.5232 86.8721 78.55 86.0164 79.8871C85.1608 81.2241 84.7571 82.8005 84.8648 84.3843C85.0217 86.1218 85.7952 87.7473 86.3725 89.3671C86.9499 90.9869 87.3198 92.8534 86.6752 94.4676C86.0306 96.0819 84.0297 97.2701 82.4883 96.4462C82.804 97.5621 83.3641 98.5937 84.128 99.4663C84.892 100.339 85.8406 101.03 86.905 101.491C86.1039 102.365 84.9992 102.9 83.8167 102.987C87.2413 110.335 96.0019 113.967 104.107 113.738C112.211 113.508 119.862 110.178 127.272 106.899L148.896 100.493C150.796 99.9942 151.514 97.6344 151.424 95.6727C151.334 93.711 150.763 91.682 151.424 89.8211C152.298 87.2708 155.179 85.8416 156.104 83.3081C157.152 80.4328 155.303 77.322 153.206 75.0856Z" fill="#263238"/>
<path d="M102.274 96.7265C100.525 91.8502 98.7986 86.9346 97.9186 81.8341C97.0386 76.7335 97.033 71.3808 98.6921 66.4764C98.9443 65.731 101.125 60.7313 101.909 60.7818C102.47 60.821 101.169 65.4675 101.467 65.9439C104.297 70.4896 105.194 76.0329 104.925 81.3801C104.614 86.5782 103.725 91.7254 102.274 96.7265Z" fill="#263238"/>
<path d="M121.42 52.3294H120.221C107.24 52.7778 100.368 64.055 101.164 77.0194L101.534 121.725C101.567 125.619 103.095 129.352 105.802 132.153C108.509 134.953 112.187 136.608 116.079 136.774C118.093 136.863 120.105 136.55 121.998 135.853C123.89 135.157 125.626 134.091 127.102 132.717C128.579 131.344 129.768 129.69 130.599 127.853C131.431 126.016 131.889 124.032 131.946 122.016C132.014 119.668 132.07 118.025 132.075 118.025C132.081 118.025 144.586 116.383 145.034 103.929C145.253 97.9091 144.692 85.4829 144.053 74.2225C143.721 68.3972 141.208 62.9104 137.014 58.8537C132.82 54.7971 127.253 52.4678 121.42 52.3294Z" fill="#F0B79D"/>
<path d="M132.076 118.009C132.076 118.009 124.229 118.278 115.967 112.824C115.967 112.824 119.509 122.095 131.969 121.271L132.076 118.009Z" fill="#EB996E"/>
<path d="M138.566 85.7295C138.558 86.193 138.369 86.6351 138.041 86.9624C137.713 87.2897 137.27 87.4766 136.806 87.4838C136.579 87.499 136.351 87.4679 136.136 87.3924C135.921 87.3168 135.724 87.1984 135.556 87.0443C135.389 86.8902 135.254 86.7037 135.16 86.4959C135.067 86.2882 135.017 86.0637 135.013 85.8359C135.021 85.3748 135.208 84.935 135.534 84.6089C135.861 84.2828 136.3 84.0958 136.761 84.0872C136.989 84.0704 137.218 84.1002 137.434 84.1746C137.65 84.2491 137.848 84.3668 138.017 84.5205C138.186 84.6741 138.321 84.8606 138.416 85.0684C138.51 85.2763 138.562 85.5012 138.566 85.7295Z" fill="#263238"/>
<path d="M141.245 79.3342C141.02 79.5584 139.698 78.5327 137.781 78.4878C135.864 78.443 134.418 79.3734 134.238 79.1324C134.137 79.0259 134.373 78.6168 134.995 78.1852C135.847 77.6156 136.857 77.3274 137.882 77.3613C138.878 77.3829 139.842 77.7205 140.634 78.3253C141.189 78.8073 141.379 79.2333 141.245 79.3342Z" fill="#263238"/>
<path d="M121.235 85.7295C121.227 86.193 121.038 86.6351 120.71 86.9624C120.381 87.2897 119.939 87.4767 119.475 87.4839C119.248 87.4991 119.02 87.468 118.805 87.3924C118.59 87.3169 118.393 87.1985 118.225 87.0444C118.058 86.8903 117.923 86.7037 117.829 86.496C117.736 86.2883 117.686 86.0637 117.682 85.836C117.687 85.372 117.874 84.9285 118.202 84.5999C118.529 84.2712 118.972 84.0833 119.436 84.076C119.664 84.06 119.893 84.0907 120.109 84.1662C120.325 84.2418 120.523 84.3605 120.692 84.5153C120.86 84.6701 120.995 84.8576 121.089 85.0664C121.182 85.2751 121.232 85.5008 121.235 85.7295Z" fill="#263238"/>
<path d="M122.496 79.6593C122.272 79.8891 120.944 78.8578 119.033 78.8186C117.121 78.7794 115.67 79.7042 115.485 79.4632C115.389 79.3567 115.619 78.9419 116.247 78.5103C117.089 77.9569 118.081 77.677 119.089 77.7088C120.085 77.7281 121.05 78.0659 121.841 78.6729C122.418 79.1381 122.609 79.5584 122.496 79.6593Z" fill="#263238"/>
<path d="M129.015 94.5405C129.015 94.4284 130.203 94.2491 132.137 94.0529C132.625 94.0137 133.09 93.924 133.185 93.5933C133.236 93.0894 133.134 92.5818 132.894 92.136L131.532 88.3807C129.654 83.0335 128.303 78.6392 128.516 78.5663C128.729 78.4935 130.433 82.7645 132.316 88.0948C132.77 89.4176 133.202 90.6731 133.611 91.8726C133.908 92.4701 133.981 93.1538 133.819 93.8007C133.744 93.9712 133.632 94.1224 133.49 94.2429C133.348 94.3633 133.181 94.4498 133 94.4957C132.727 94.5649 132.446 94.597 132.165 94.591C130.226 94.6639 129.021 94.647 129.015 94.5405Z" fill="#263238"/>
<path d="M123.349 95.7288C123.662 95.7288 123.612 97.797 125.361 99.316C127.11 100.835 129.318 100.656 129.329 100.947C129.357 101.076 128.825 101.339 127.889 101.339C126.671 101.328 125.496 100.888 124.57 100.095C123.686 99.3302 123.13 98.2545 123.018 97.0908C122.962 96.222 123.208 95.712 123.349 95.7288Z" fill="#263238"/>
<path d="M122.574 71.8908C122.373 72.4064 120.467 72.115 118.214 72.328C115.961 72.5409 114.133 73.1183 113.842 72.6418C113.719 72.4176 114.044 71.9356 114.789 71.448C115.783 70.8551 116.898 70.4964 118.051 70.3993C119.204 70.3022 120.364 70.4691 121.442 70.8875C122.255 71.2238 122.664 71.6442 122.574 71.8908Z" fill="#263238"/>
<path d="M140.629 72.9501C140.281 73.3761 138.975 72.8941 137.389 72.8324C135.803 72.7708 134.452 73.0566 134.155 72.597C134.026 72.3728 134.244 71.9412 134.844 71.5433C135.645 71.0687 136.568 70.8426 137.497 70.8934C138.426 70.9443 139.319 71.27 140.062 71.8291C140.612 72.3168 140.785 72.7427 140.629 72.9501Z" fill="#263238"/>
<path d="M101.972 86.2395C101.764 86.1442 93.4745 83.5042 93.5642 92.0294C93.6539 100.555 102.179 98.7554 102.19 98.4807C102.201 98.2061 101.972 86.2395 101.972 86.2395Z" fill="#F0B79D"/>
<path d="M99.5391 95.2972C99.4999 95.2692 99.3934 95.3981 99.1412 95.5158C98.7867 95.6749 98.3836 95.687 98.0202 95.5495C97.1178 95.2244 96.3387 93.8007 96.2939 92.2649C96.267 91.5343 96.4029 90.8067 96.6918 90.1351C96.7708 89.8666 96.9142 89.6216 97.1096 89.4213C97.305 89.221 97.5464 89.0716 97.8128 88.986C97.9827 88.9402 98.1634 88.9555 98.3232 89.0292C98.483 89.103 98.6118 89.2305 98.6872 89.3896C98.8049 89.625 98.7544 89.7988 98.7993 89.81C98.8441 89.8212 98.9786 89.6642 98.9114 89.3167C98.8614 89.1055 98.7408 88.9176 98.5695 88.7843C98.3335 88.6077 98.0375 88.5312 97.7455 88.5713C97.3961 88.6436 97.0711 88.8042 96.8013 89.0377C96.5315 89.2712 96.3259 89.5698 96.2042 89.9053C95.8479 90.6472 95.6786 91.465 95.7109 92.2874C95.7782 94.0025 96.6694 95.6055 97.9081 95.953C98.1377 96.0178 98.379 96.0298 98.6139 95.9881C98.8488 95.9463 99.0713 95.852 99.2645 95.712C99.5223 95.4766 99.5672 95.2972 99.5391 95.2972Z" fill="#EB996E"/>
<path d="M138.302 60.1988C139.67 59.4141 135.455 55.0198 132.036 53.5345C126.874 51.2925 119.027 49.9978 114.324 51.4214C108.663 53.1029 103.989 56.0399 101.22 61.2638C98.4509 66.4876 97.4812 72.541 97.7447 78.4431C97.8287 80.2479 98.0473 82.1255 99.0338 83.6333C100.256 85.4941 102.559 86.6431 102.503 89.2383C102.458 90.1906 102.793 91.1219 103.434 91.8278C105.026 93.4588 106.903 91.867 107.755 90.292C109.571 86.929 109.711 82.9327 109.812 79.082C109.885 76.3636 109.947 73.5835 109.134 70.9828C108.697 69.5704 108.013 68.242 107.643 66.8015C107.273 65.361 107.296 63.73 108.17 62.5361C108.377 62.2799 108.606 62.0418 108.854 61.8243C110.025 60.7678 111.456 60.0418 113.001 59.7207C114.545 59.3997 116.147 59.495 117.642 59.9971C122.474 61.6169 130.713 64.0102 132.826 62.3455C135.864 59.9522 136.576 58.4221 136.576 58.4221L138.302 60.1988Z" fill="#263238"/>
<path d="M114.751 50.2556C119.408 48.6077 124.739 48.5741 129.161 50.8161C131.509 51.9875 133.645 53.882 134.396 56.4211C135.147 58.9601 134.127 62.0541 131.717 63.0854L131.549 63.1919C127.933 64.4754 125.563 64.0326 121.914 62.8388C118.848 61.8355 116.101 59.9971 113.024 59.005C109.732 57.9566 106.202 57.9137 102.885 58.8817C106.08 55.0759 110.093 51.9035 114.751 50.2556Z" fill="#263238"/>
<path d="M94.8645 86.8898C94.7097 86.7384 94.569 86.5733 94.4441 86.3965C94.0705 85.8924 93.7669 85.3399 93.5417 84.7543C93.1128 83.6736 92.9564 82.504 93.0864 81.3486C93.2164 80.1932 93.6288 79.0875 94.2871 78.1292C94.7157 77.4874 95.2458 76.9195 95.8565 76.4477C96.5185 75.9397 97.2562 75.5387 98.0425 75.2594C99.6343 74.6429 101.484 74.3234 102.997 73.18C103.772 72.614 104.328 71.7986 104.572 70.8707C104.785 69.8842 104.84 68.8702 104.735 67.8665C104.595 65.7982 104.511 63.573 105.2 61.4207C105.924 59.3441 107.321 57.5687 109.168 56.3762C110.846 55.2337 112.74 54.4478 114.734 54.067C116.535 53.7134 118.387 53.7134 120.188 54.067C121.755 54.3843 123.242 55.0154 124.56 55.9222C126.48 57.2229 127.962 59.0729 128.814 61.2302C129.041 61.8122 129.212 62.4147 129.324 63.0294L129.391 63.5114C129.397 63.5673 129.397 63.6237 129.391 63.6795C129.239 62.8578 129.008 62.0526 128.702 61.275C127.952 59.5006 126.777 57.9375 125.282 56.7227C123.787 55.508 122.017 54.6789 120.126 54.308C118.359 53.9605 116.541 53.9605 114.773 54.308C112.819 54.6889 110.963 55.4652 109.32 56.5892C107.526 57.7528 106.172 59.4803 105.469 61.4992C104.796 63.5843 104.869 65.7702 105.009 67.8384C105.116 68.8727 105.055 69.9174 104.83 70.9324C104.569 71.9183 103.975 72.7836 103.149 73.3818C101.557 74.57 99.6791 74.8783 98.1041 75.478C96.6173 75.9786 95.3304 76.9433 94.4329 78.2301C93.6989 79.2989 93.2759 80.5504 93.211 81.8453C93.1606 82.8216 93.3093 83.798 93.6482 84.715C93.9455 85.4953 94.3552 86.228 94.8645 86.8898Z" fill="#455A64"/>
<path d="M93.9452 88.8234C93.7174 88.713 93.4982 88.5856 93.2895 88.4423C92.6841 88.039 92.1322 87.5607 91.6472 87.0186C90.8799 86.1556 90.2828 85.1553 89.8872 84.0704C89.3717 82.6222 89.2518 81.0627 89.5397 79.5528C89.8679 77.7094 90.7726 76.0177 92.1236 74.7213C93.5585 73.3088 95.4586 72.2999 97.2298 70.9884C98.1491 70.3354 98.9572 69.5387 99.6231 68.6287C100.288 67.6585 100.8 66.5925 101.142 65.4675C101.904 63.1918 102.263 60.6696 103.334 58.2931C104.421 56 106.13 54.058 108.266 52.6881C110.251 51.3884 112.536 50.6203 114.902 50.4573C117.029 50.3187 119.161 50.632 121.157 51.3765C122.893 52.0193 124.499 52.9685 125.899 54.179C127.914 55.9515 129.471 58.1838 130.439 60.6864C130.811 61.5871 131.078 62.5274 131.235 63.4889C131.21 63.4313 131.191 63.3711 131.179 63.3095C131.14 63.1694 131.095 62.99 131.033 62.749C130.841 62.0536 130.607 61.3704 130.333 60.7032C129.336 58.2426 127.771 56.0529 125.765 54.3135C124.378 53.1253 122.789 52.1968 121.073 51.5727C119.103 50.8469 117.002 50.5451 114.908 50.6871C112.599 50.8508 110.369 51.5991 108.429 52.8618C106.338 54.2085 104.667 56.1131 103.603 58.3603C102.538 60.6752 102.19 63.1918 101.422 65.5011C101.068 66.6531 100.539 67.7438 99.8529 68.7352C99.1692 69.6651 98.3403 70.4788 97.3979 71.1453C95.5931 72.4681 93.7098 73.4658 92.303 74.839C90.9791 76.0953 90.0848 77.7368 89.7471 79.5303C89.4554 81.009 89.5598 82.5386 90.0498 83.9639C90.6613 85.7268 91.8075 87.2551 93.3287 88.3358C93.7267 88.6833 93.9565 88.8066 93.9452 88.8234Z" fill="#455A64"/>
<path d="M144.334 199.808C144.334 199.808 121.18 194.421 117.643 194.158C114.325 193.911 113.462 195.991 113.462 195.991C113.462 195.991 108.496 195.369 107.403 198.266C107.403 198.266 106.528 199.948 108.563 200.811C110.597 201.674 121.639 204.101 123.909 206.214C126.179 208.327 145.208 219.134 145.208 219.134L152.881 222.267C152.881 222.267 156.329 213.26 156.485 210.676C156.634 209.297 156.36 207.905 155.701 206.685C155.701 206.685 160.476 201.831 161.025 199.875C161.575 197.919 165.022 191.182 165.022 191.182C165.022 191.182 161.788 187.886 158.587 191.742C155.387 195.598 153.593 197.347 152.725 198.048C150.213 200.054 145.808 200.273 144.334 199.808Z" fill="#F0B79D"/>
<path d="M136.627 206.562C136.627 206.562 136.537 206.562 136.38 206.466L135.702 206.141L133.208 204.947C131.095 203.961 128.163 202.655 124.8 201.433C123.119 200.822 121.521 200.278 120.047 199.819C118.573 199.359 117.245 199.023 116.124 198.547C115.243 198.215 114.468 197.652 113.882 196.915C113.734 196.707 113.611 196.481 113.517 196.243C113.48 196.163 113.458 196.078 113.45 195.991C113.603 196.289 113.777 196.575 113.971 196.848C114.578 197.534 115.35 198.053 116.213 198.356C117.284 198.793 118.646 199.101 120.137 199.561C121.628 200.021 123.236 200.542 124.912 201.158C127.777 202.21 130.583 203.413 133.32 204.762C134.368 205.284 135.203 205.727 135.775 206.04L136.431 206.416C136.501 206.458 136.566 206.507 136.627 206.562Z" fill="#EB996E"/>
<path d="M151.671 198.816C151.131 199.557 150.412 200.149 149.58 200.536C148.795 201.007 147.901 201.267 146.985 201.293C146.985 201.209 148.151 200.974 149.446 200.279C150.741 199.584 151.609 198.748 151.671 198.816Z" fill="#EB996E"/>
<path d="M233.168 253.425C233.168 253.509 183.228 253.571 121.629 253.571C60.0302 253.571 10.0898 253.509 10.0898 253.425C10.0898 253.341 60.019 253.279 121.629 253.279C183.239 253.279 233.168 253.358 233.168 253.425Z" fill="#263238"/>
<path d="M73.9017 70.0466H0.128906V100.398H66.4751L70.9983 104.921V100.398H73.9017V70.0466Z" fill="white"/>
<path d="M73.9017 70.0746C73.9017 70.0746 73.9017 70.2428 73.9017 70.5903C73.9017 70.9378 73.9017 71.4591 73.9017 72.1317C73.9017 73.5049 73.9017 75.4947 73.9017 78.1178C73.9017 83.3529 73.9353 90.9532 73.9577 100.426V100.527H70.9535L71.06 100.42C71.06 101.816 71.06 103.363 71.06 104.943V105.212L70.8694 105.022L66.3462 100.504L66.4246 100.538L3.36299 100.543H0V100.398C0 89.7481 0 79.5078 0 70.0466V69.9065H0.140125L53.1801 69.9738L68.4592 70.0074H72.5229H73.5654H73.9129H73.5486H72.4892H68.3976L53.0848 70.0466L0.140125 70.1083L0.280249 69.9738C0.280249 79.435 0.280249 89.6753 0.280249 100.325L0.13452 100.179H3.36299H66.5031H66.5536L66.5872 100.213L71.1048 104.741L70.9142 104.82C70.9142 103.239 70.9142 101.692 70.9142 100.297V100.196H73.9241L73.8232 100.297C73.8232 90.8467 73.868 83.2744 73.8793 78.0505C73.8793 75.4386 73.8793 73.4208 73.8793 72.042C73.8793 71.3582 73.8793 70.8369 73.8793 70.4838C73.8793 70.1307 73.9017 70.0746 73.9017 70.0746Z" fill="#263238"/>
<path d="M65.9982 78.7288H32.1777C31.5122 78.7288 30.9727 79.2683 30.9727 79.9338V80.0627C30.9727 80.7283 31.5122 81.2678 32.1777 81.2678H65.9982C66.6637 81.2678 67.2033 80.7283 67.2033 80.0627V79.9338C67.2033 79.2683 66.6637 78.7288 65.9982 78.7288Z" fill="#E0E0E0"/>
<path d="M65.9982 84.3897H32.1777C31.5122 84.3897 30.9727 84.9292 30.9727 85.5948V85.7237C30.9727 86.3892 31.5122 86.9288 32.1777 86.9288H65.9982C66.6637 86.9288 67.2033 86.3892 67.2033 85.7237V85.5948C67.2033 84.9292 66.6637 84.3897 65.9982 84.3897Z" fill="#E0E0E0"/>
<path d="M65.9982 90.0508H32.1777C31.5122 90.0508 30.9727 90.5903 30.9727 91.2558V91.3848C30.9727 92.0503 31.5122 92.5898 32.1777 92.5898H65.9982C66.6637 92.5898 67.2033 92.0503 67.2033 91.3848V91.2558C67.2033 90.5903 66.6637 90.0508 65.9982 90.0508Z" fill="#E0E0E0"/>
<path d="M22.3926 76.3242H8.73883C7.35512 76.3242 6.2334 77.4459 6.2334 78.8296V92.4834C6.2334 93.8671 7.35512 94.9888 8.73883 94.9888H22.3926C23.7763 94.9888 24.898 93.8671 24.898 92.4834V78.8296C24.898 77.4459 23.7763 76.3242 22.3926 76.3242Z" fill="#455A64"/>
<path d="M8.07709 91.1942L7.64551 90.8355L11.4233 86.3515C11.6316 86.0629 11.9444 85.8668 12.295 85.8051C12.6456 85.7433 13.0065 85.8207 13.3009 86.0208L15.5429 87.5062L18.1605 84.1936C18.2852 84.0379 18.4421 83.9108 18.6203 83.8211C18.7985 83.7314 18.994 83.6811 19.1934 83.6736C19.3929 83.6662 19.5915 83.7018 19.776 83.778C19.9604 83.8541 20.1263 83.9691 20.2623 84.1152L23.4908 87.6071L23.076 87.9826L19.8476 84.4963C19.7686 84.4076 19.6706 84.3379 19.5609 84.2923C19.4513 84.2467 19.3328 84.2264 19.2142 84.2329C19.0953 84.237 18.9788 84.2667 18.8724 84.3199C18.766 84.3731 18.6723 84.4485 18.5976 84.5411L15.6606 88.2572L13.0039 86.4861C12.8272 86.3666 12.6106 86.3214 12.4009 86.3602C12.1912 86.399 12.0051 86.5187 11.8829 86.6934L8.07709 91.1942Z" fill="white"/>
<path d="M13.8949 82.8428C14.8174 82.8428 15.5652 82.095 15.5652 81.1725C15.5652 80.25 14.8174 79.5022 13.8949 79.5022C12.9724 79.5022 12.2246 80.25 12.2246 81.1725C12.2246 82.095 12.9724 82.8428 13.8949 82.8428Z" fill="white"/>
<path d="M206.739 125.065H139.676V153.639H146.592L147.327 159.934L152.489 153.639H206.739V125.065Z" fill="white"/>
<path d="M206.74 125.065C206.74 125.065 206.74 125.228 206.74 125.553C206.74 125.878 206.74 126.371 206.74 127.01C206.74 128.299 206.74 130.199 206.768 132.649C206.768 137.581 206.796 144.733 206.818 153.639V153.74H206.717L152.467 153.785L152.579 153.729C150.942 155.724 149.188 157.86 147.416 160.029L147.198 160.292L147.159 159.951C146.923 157.955 146.677 155.814 146.424 153.656L146.57 153.785H139.508V153.639C139.508 143.606 139.508 133.971 139.508 125.054V124.914H139.648L187.901 124.975L201.768 125.015H205.45H206.398H206.712H206.381H205.422H201.706L187.806 125.054L139.648 125.121L139.782 124.981C139.782 133.887 139.782 143.522 139.782 153.566L139.637 153.421H146.682V153.55C146.934 155.708 147.181 157.849 147.411 159.844L147.159 159.771C148.93 157.608 150.684 155.467 152.321 153.477L152.366 153.421H152.433L206.684 153.466L206.583 153.566C206.583 144.683 206.627 137.553 206.639 132.637C206.639 130.177 206.639 128.271 206.639 126.976C206.639 126.332 206.639 125.855 206.639 125.502C206.639 125.149 206.74 125.065 206.74 125.065Z" fill="#263238"/>
<path d="M198.753 134.084H172.118C171.761 134.082 171.42 133.94 171.168 133.688C170.916 133.436 170.774 133.095 170.772 132.738C170.772 132.382 170.914 132.039 171.166 131.787C171.419 131.535 171.761 131.393 172.118 131.393H198.753C199.109 131.393 199.451 131.535 199.704 131.787C199.956 132.039 200.098 132.382 200.098 132.738C200.096 133.095 199.954 133.436 199.702 133.688C199.45 133.94 199.109 134.082 198.753 134.084Z" fill="#E0E0E0"/>
<path d="M198.753 140.081H172.118C171.761 140.081 171.419 139.939 171.166 139.687C170.914 139.435 170.772 139.092 170.772 138.736C170.774 138.379 170.916 138.038 171.168 137.786C171.42 137.534 171.761 137.392 172.118 137.391H198.753C199.109 137.392 199.45 137.534 199.702 137.786C199.954 138.038 200.096 138.379 200.098 138.736C200.098 139.092 199.956 139.435 199.704 139.687C199.451 139.939 199.109 140.081 198.753 140.081Z" fill="#E0E0E0"/>
<path d="M198.753 146.084H172.118C171.761 146.082 171.42 145.94 171.168 145.688C170.916 145.436 170.774 145.095 170.772 144.739C170.772 144.382 170.914 144.04 171.166 143.787C171.419 143.535 171.761 143.393 172.118 143.393H198.753C199.109 143.393 199.451 143.535 199.704 143.787C199.956 144.04 200.098 144.382 200.098 144.739C200.096 145.095 199.954 145.436 199.702 145.688C199.45 145.94 199.109 146.082 198.753 146.084Z" fill="#E0E0E0"/>
<path d="M161.826 128.843H147.051C145.668 128.843 144.546 129.965 144.546 131.348V146.123C144.546 147.507 145.668 148.628 147.051 148.628H161.826C163.21 148.628 164.331 147.507 164.331 146.123V131.348C164.331 129.965 163.21 128.843 161.826 128.843Z" fill="#EBEBEB"/>
<path d="M146.492 144.621L146.061 144.257L150.063 139.504C150.283 139.202 150.611 138.998 150.979 138.933C151.347 138.868 151.725 138.948 152.035 139.156L154.406 140.737L157.209 137.217C157.337 137.051 157.5 136.915 157.686 136.819C157.871 136.722 158.076 136.667 158.285 136.656C158.494 136.65 158.702 136.688 158.895 136.769C159.089 136.849 159.263 136.969 159.406 137.121L162.831 140.821L162.416 141.202L158.997 137.503C158.91 137.408 158.803 137.334 158.684 137.285C158.566 137.236 158.438 137.213 158.31 137.218C158.182 137.223 158.056 137.255 157.941 137.313C157.827 137.371 157.726 137.453 157.646 137.553L154.541 141.477L151.738 139.61C151.547 139.481 151.313 139.431 151.086 139.472C150.859 139.513 150.656 139.641 150.522 139.829L146.492 144.621Z" fill="white"/>
<path d="M154.439 133.971C154.439 134.322 154.335 134.665 154.14 134.956C153.945 135.247 153.668 135.474 153.344 135.608C153.02 135.742 152.664 135.777 152.32 135.708C151.976 135.639 151.661 135.47 151.413 135.222C151.166 134.974 150.998 134.657 150.93 134.313C150.862 133.97 150.898 133.613 151.033 133.29C151.168 132.966 151.396 132.69 151.688 132.496C151.98 132.302 152.323 132.199 152.673 132.2C152.906 132.2 153.136 132.246 153.35 132.335C153.565 132.424 153.76 132.555 153.924 132.719C154.088 132.884 154.218 133.079 154.306 133.294C154.394 133.509 154.44 133.739 154.439 133.971Z" fill="white"/>
<path d="M68.7668 118.961H15.3737C14.4416 118.961 13.5478 119.332 12.8887 119.991C12.2296 120.65 11.8594 121.544 11.8594 122.476V153.538C11.8594 154.356 12.1842 155.14 12.7623 155.718C13.3404 156.296 14.1245 156.621 14.9421 156.621H58.4536L65.2973 163.465V156.621H67.8195C68.8051 156.621 69.7503 156.23 70.4472 155.533C71.1441 154.836 71.5356 153.891 71.5356 152.905V121.747C71.5313 121.012 71.2387 120.309 70.7208 119.788C70.203 119.267 69.5013 118.97 68.7668 118.961Z" fill="white"/>
<path d="M15.6035 118.961H68.8508C69.5718 118.961 70.2632 119.248 70.773 119.758C71.2828 120.267 71.5692 120.959 71.5692 121.68V125.962C71.5692 126.045 71.5362 126.125 71.4773 126.184C71.4184 126.243 71.3386 126.276 71.2554 126.276H12.1733C12.09 126.276 12.0102 126.243 11.9513 126.184C11.8924 126.125 11.8594 126.045 11.8594 125.962V122.705C11.8594 121.714 12.2533 120.763 12.9544 120.062C13.6555 119.361 14.6064 118.967 15.5979 118.967L15.6035 118.961Z" fill="#E0E0E0"/>
<path d="M33.3164 132.279H20.4586C19.0748 132.279 17.9531 133.4 17.9531 134.784V147.642C17.9531 149.026 19.0748 150.147 20.4586 150.147H33.3164C34.7001 150.147 35.8218 149.026 35.8218 147.642V134.784C35.8218 133.4 34.7001 132.279 33.3164 132.279Z" fill="#2A4E96"/>
<g opacity="0.3">
<path opacity="0.3" d="M34.2633 143.259C34.0483 143.091 33.8494 142.903 33.6692 142.698L32.1278 141.101L31.0741 139.98C30.9843 139.888 30.8764 139.816 30.7572 139.767C30.638 139.719 30.5102 139.696 30.3817 139.7C30.2532 139.704 30.1268 139.734 30.0106 139.789C29.8944 139.844 29.7908 139.922 29.7065 140.019L27.2178 143.175L27.0217 143.421L26.9376 143.528L26.8255 143.449L24.8974 142.16L24.449 141.858C24.3133 141.782 24.1615 141.74 24.0062 141.734C23.8559 141.73 23.7068 141.762 23.572 141.829C23.4371 141.895 23.3206 141.994 23.2327 142.115L20.5759 145.181L19.8081 146.033C19.6287 146.23 19.5278 146.33 19.5166 146.319C19.5784 146.198 19.6557 146.085 19.7464 145.983C19.937 145.736 20.1724 145.422 20.4582 145.086C21.1196 144.279 21.994 143.203 23.0309 141.942C23.1415 141.785 23.2885 141.657 23.4593 141.569C23.6301 141.481 23.8197 141.436 24.0118 141.437C24.2085 141.444 24.4008 141.498 24.5723 141.594C24.746 141.701 24.8862 141.796 25.0431 141.902L26.9768 143.186L26.7807 143.22L26.9768 142.973L29.4935 139.817C29.6058 139.691 29.7439 139.59 29.8987 139.521C30.0534 139.452 30.221 139.418 30.3903 139.419C30.5505 139.42 30.7089 139.453 30.8556 139.518C31.0022 139.583 31.1338 139.677 31.2422 139.795L32.2679 140.916L33.742 142.598C33.9375 142.8 34.1121 143.022 34.2633 143.259Z" fill="black"/>
</g>
<g opacity="0.3">
<path opacity="0.3" d="M26.9038 136.92C26.9038 137.236 26.8101 137.544 26.6346 137.807C26.4591 138.07 26.2096 138.274 25.9177 138.395C25.6258 138.516 25.3046 138.548 24.9948 138.486C24.6849 138.425 24.4003 138.273 24.1769 138.049C23.9535 137.826 23.8013 137.541 23.7397 137.231C23.678 136.921 23.7097 136.6 23.8306 136.308C23.9515 136.016 24.1562 135.767 24.4189 135.591C24.6816 135.416 24.9905 135.322 25.3064 135.322C25.5162 135.322 25.7239 135.363 25.9177 135.444C26.1115 135.524 26.2876 135.642 26.436 135.79C26.5843 135.938 26.702 136.114 26.7822 136.308C26.8625 136.502 26.9038 136.71 26.9038 136.92Z" fill="black"/>
</g>
<path d="M68.767 118.961C69.0339 118.949 69.301 118.981 69.5574 119.057C69.9335 119.164 70.283 119.35 70.5832 119.601C70.8835 119.852 71.1278 120.163 71.3005 120.514C71.544 121.039 71.6464 121.619 71.5976 122.195C71.5976 122.823 71.5976 123.507 71.5976 124.241C71.5976 125.721 71.5976 127.425 71.5976 129.33C71.5976 133.147 71.5976 137.788 71.6256 143.136C71.6256 145.811 71.6256 148.655 71.6256 151.666C71.6847 152.44 71.6069 153.218 71.3958 153.964C71.1322 154.728 70.6485 155.397 70.0057 155.887C69.3505 156.397 68.5539 156.693 67.7245 156.733C66.9006 156.733 66.0879 156.733 65.2583 156.733L65.3816 156.61C65.3816 158.751 65.3816 161.094 65.3816 163.454V163.762L65.163 163.543L58.3138 156.705L58.409 156.744H19.3984H15.6038C15.1712 156.768 14.7374 156.747 14.309 156.683C13.6612 156.55 13.0699 156.222 12.6156 155.741C12.1613 155.261 11.866 154.652 11.77 153.998C11.7321 153.575 11.719 153.15 11.7308 152.726C11.7308 149.385 11.7308 146.099 11.7308 142.866C11.7308 136.398 11.7308 130.16 11.7308 124.219V123.098C11.7218 122.724 11.7349 122.349 11.77 121.977C11.8673 121.221 12.2007 120.514 12.7228 119.959C13.2396 119.414 13.9104 119.041 14.6453 118.888C15.0064 118.828 15.3725 118.804 15.7383 118.816H16.8145H25.0033H39.6996L60.9985 118.86H66.7829H68.2906C68.6269 118.86 68.8007 118.86 68.8007 118.86H68.2906H66.7829H60.9985L39.6996 118.911H25.0033H16.8145C16.1149 118.887 15.4145 118.911 14.7182 118.984C14.0313 119.127 13.4055 119.479 12.9268 119.991C12.4481 120.504 12.1399 121.153 12.0446 121.848C12.0106 122.207 11.9994 122.569 12.011 122.93V124.051C12.011 129.992 12.011 136.23 12.011 142.698V152.558C11.9994 152.969 12.0106 153.38 12.0446 153.791C12.1028 154.187 12.24 154.569 12.4482 154.912C12.6601 155.254 12.94 155.55 13.2706 155.781C13.6013 156.011 13.9757 156.171 14.3707 156.251C14.7808 156.31 15.1957 156.329 15.6094 156.307H19.4488H58.4595H58.5155L58.5548 156.346L65.3928 163.196L65.1743 163.285V156.442V156.324H65.292C66.1159 156.324 66.9454 156.324 67.7413 156.324C68.524 156.285 69.2765 156.009 69.8993 155.534C70.5057 155.07 70.9635 154.438 71.2164 153.718C71.4234 152.99 71.4974 152.23 71.435 151.476C71.435 148.464 71.435 145.62 71.435 142.945C71.435 137.598 71.435 132.957 71.435 129.14C71.435 127.234 71.435 125.53 71.435 124.051C71.435 123.316 71.435 122.633 71.435 122.005C71.4893 121.443 71.3966 120.877 71.166 120.362C71.0011 120.018 70.7666 119.71 70.4772 119.461C70.1878 119.211 69.8498 119.024 69.4845 118.911C69.2443 118.905 69.0041 118.922 68.767 118.961Z" fill="#263238"/>
<path d="M17.0105 122.492C17.0116 122.742 16.9385 122.987 16.8003 123.195C16.6622 123.403 16.4653 123.566 16.2346 123.662C16.0039 123.758 15.7499 123.784 15.5047 123.735C15.2596 123.687 15.0344 123.567 14.8577 123.39C14.6809 123.213 14.5607 122.988 14.5122 122.743C14.4638 122.498 14.4892 122.244 14.5854 122.013C14.6815 121.782 14.844 121.585 15.0523 121.447C15.2605 121.309 15.5051 121.236 15.755 121.237C16.0875 121.238 16.406 121.371 16.6412 121.606C16.8763 121.841 17.009 122.16 17.0105 122.492Z" fill="white"/>
<path d="M20.7947 122.492C20.7958 122.742 20.7228 122.986 20.5849 123.195C20.447 123.403 20.2504 123.565 20.0201 123.662C19.7897 123.758 19.536 123.784 19.291 123.736C19.046 123.688 18.8208 123.568 18.6438 123.392C18.4669 123.216 18.3462 122.991 18.2971 122.746C18.248 122.501 18.2726 122.248 18.3679 122.017C18.4632 121.786 18.6248 121.589 18.8323 121.45C19.0399 121.311 19.2839 121.237 19.5336 121.237C19.8671 121.237 20.187 121.369 20.4233 121.604C20.6597 121.84 20.7932 122.159 20.7947 122.492Z" fill="white"/>
<path d="M24.5711 122.492C24.5722 122.742 24.499 122.987 24.3609 123.195C24.2227 123.403 24.0258 123.566 23.7951 123.662C23.5645 123.758 23.3104 123.784 23.0653 123.735C22.8201 123.687 22.5949 123.567 22.4182 123.39C22.2415 123.213 22.1213 122.988 22.0728 122.743C22.0243 122.498 22.0498 122.244 22.1459 122.013C22.242 121.782 22.4046 121.585 22.6128 121.447C22.8211 121.309 23.0656 121.236 23.3155 121.237C23.4804 121.237 23.6437 121.269 23.796 121.333C23.9483 121.396 24.0867 121.488 24.2033 121.605C24.3199 121.721 24.4124 121.86 24.4755 122.012C24.5386 122.164 24.5711 122.328 24.5711 122.492Z" fill="white"/>
<path d="M63.5722 135.776C63.5722 135.855 58.6903 135.922 52.6705 135.922C46.6507 135.922 41.7744 135.855 41.7744 135.776C41.7744 135.698 46.6564 135.653 52.6873 135.653C58.7183 135.653 63.5722 135.692 63.5722 135.776Z" fill="#263238"/>
<path d="M63.5722 139.901C63.5722 139.986 58.6903 140.047 52.6705 140.047C46.6507 140.047 41.7744 139.986 41.7744 139.901C41.7744 139.817 46.6564 139.756 52.6705 139.756C58.6846 139.756 63.5722 139.823 63.5722 139.901Z" fill="#263238"/>
<path d="M63.5722 144.06C63.5722 144.144 58.6903 144.206 52.6705 144.206C46.6507 144.206 41.7744 144.144 41.7744 144.06C41.7744 143.976 46.6564 143.915 52.6705 143.915C58.6846 143.915 63.5722 143.954 63.5722 144.06Z" fill="#263238"/>
<path d="M162.349 83.605H219.542V112.504H172.398L167.146 117.756V112.504H162.349V83.605Z" fill="white"/>
<path d="M162.349 83.6051C162.349 83.6051 162.349 83.7845 162.349 84.1208C162.349 84.4571 162.349 84.9671 162.349 85.6229C162.349 86.9457 162.349 88.8794 162.349 91.3736C162.349 96.3621 162.382 103.57 162.41 112.504L162.304 112.398H167.214V112.516C167.214 114.147 167.214 115.929 167.214 117.767L167.012 117.678L172.258 112.426L172.292 112.387H172.348H215.775H219.491L219.346 112.532C219.346 102.337 219.346 92.5955 219.346 83.6332L219.48 83.7677L178.357 83.7004L166.536 83.6612H163.386H162.265H162.528H163.33H166.457L178.228 83.6219L219.441 83.5547H219.576V83.6948C219.576 92.6628 219.576 102.399 219.576 112.594V112.673H215.714H172.286L172.376 112.633L167.119 117.88L166.911 118.081V117.796C166.911 115.957 166.911 114.175 166.911 112.544L167.023 112.656H162.113V112.549C162.113 103.581 162.153 96.3565 162.169 91.3512C162.169 88.8682 162.169 86.9401 162.197 85.6229C162.197 84.9784 162.197 84.5019 162.197 84.1432C162.197 83.7845 162.349 83.6051 162.349 83.6051Z" fill="#263238"/>
<path d="M209.911 92.4161C209.911 92.5002 201.358 92.5618 190.815 92.5618C180.272 92.5618 171.719 92.5002 171.719 92.4161C171.719 92.332 180.266 92.2704 190.815 92.2704C201.364 92.2704 209.911 92.3376 209.911 92.4161Z" fill="#263238"/>
<path d="M209.911 96.547C209.911 96.631 201.358 96.6927 190.815 96.6927C180.272 96.6927 171.719 96.631 171.719 96.547C171.719 96.4629 180.266 96.4012 190.815 96.4012C201.364 96.4012 209.911 96.4685 209.911 96.547Z" fill="#263238"/>
<path d="M209.911 100.678C209.911 100.756 201.358 100.824 190.815 100.824C180.272 100.824 171.719 100.756 171.719 100.678C171.719 100.599 180.266 100.532 190.815 100.532C201.364 100.532 209.911 100.599 209.911 100.678Z" fill="#263238"/>
<path d="M76.5692 29.1135H36.0283V58.0128H66.5194L71.7713 63.2646V58.0128H76.5692V29.1135Z" fill="white"/>
<path d="M76.5698 29.1134C76.5698 29.1134 76.5698 29.2816 76.5698 29.6179C76.5698 29.9542 76.5698 30.4698 76.5698 31.1256C76.5698 32.4596 76.5698 34.4101 76.5979 36.91C76.5979 41.9545 76.6315 49.1793 76.6595 58.0127V58.1304H71.744L71.8673 58.0127C71.8673 59.655 71.8673 61.4318 71.8673 63.259V63.5729L71.6431 63.3543L66.3912 58.108L66.4865 58.1472H39.7115H35.8721V57.9959C35.8721 47.5875 35.8721 37.7731 35.8721 29.0966V28.9677H36.0066L65.3599 29.035L73.6328 29.0686H75.8076H76.5474H76.3512H75.7908H73.588L65.2982 29.1583L36.029 29.2255L36.1579 29.091C36.1579 37.7675 36.1579 47.5875 36.1579 57.9903L36.0122 57.8502H39.7283H66.5033H66.5593L66.5986 57.8894L71.8448 63.1469L71.6262 63.2366C71.6262 61.4093 71.6262 59.6326 71.6262 57.9903V57.867H76.5474L76.4297 57.9791C76.4297 49.1737 76.4802 41.9657 76.4914 36.9436C76.4914 34.4382 76.4914 32.4596 76.5194 31.1368C76.5194 30.4754 76.5194 29.9654 76.5194 29.6123C76.5194 29.2592 76.5698 29.1134 76.5698 29.1134Z" fill="#263238"/>
<path d="M45.4014 37.9302C45.4014 37.8517 50.2833 37.7844 56.2975 37.7844C62.3116 37.7844 67.1935 37.8517 67.1935 37.9302C67.1935 38.0086 62.3172 38.0759 56.2975 38.0759C50.2777 38.0759 45.4014 38.0086 45.4014 37.9302Z" fill="#263238"/>
<path d="M45.4014 42.0497C45.4014 41.9713 50.2833 41.904 56.2975 41.904C62.3116 41.904 67.1935 41.9713 67.1935 42.0497C67.1935 42.1282 62.3172 42.1955 56.2975 42.1955C50.2777 42.1955 45.4014 42.1394 45.4014 42.0497Z" fill="#263238"/>
<path d="M45.4014 46.1918C45.4014 46.1077 50.2833 46.0461 56.2975 46.0461C62.3116 46.0461 67.1935 46.1077 67.1935 46.1918C67.1935 46.2759 62.3172 46.3375 56.2975 46.3375C50.2777 46.3375 45.4014 46.2703 45.4014 46.1918Z" fill="#263238"/>
<path d="M122.396 6.64307H94.3877V34.6512H97.0669V38.8269L101.237 34.6512H122.396V6.64307Z" fill="white"/>
<path d="M122.396 6.64305C122.396 6.64305 122.396 6.8112 122.396 7.1419C122.396 7.47259 122.396 7.98264 122.396 8.62161C122.396 9.93878 122.396 11.8501 122.424 14.2826C122.424 19.1982 122.463 26.21 122.491 34.6511V34.7632H122.368H101.209L101.31 34.7184L97.1397 38.8941L96.8931 39.1407V34.6511L97.0388 34.7969H94.2363V34.6511C94.2363 24.366 94.2363 14.7927 94.2363 6.62624V6.50293H94.3596L114.723 6.57019L120.384 6.59821H121.869H122.368H121.841H120.333L114.644 6.63184L94.3596 6.6991L94.4829 6.57019C94.4829 14.7198 94.4829 24.2931 94.4829 34.5951L94.3372 34.4494H97.1397V38.7708L96.8875 38.6643L101.063 34.4942L101.102 34.455H101.164H122.323L122.194 34.5783C122.222 26.1708 122.244 19.187 122.261 14.2882C122.261 11.8445 122.261 9.92197 122.295 8.59919C122.295 7.95462 122.295 7.45017 122.295 7.09706C122.295 6.74394 122.396 6.64305 122.396 6.64305Z" fill="#263238"/>
<path d="M109.886 20.65C110.645 20.3147 111.289 19.7643 111.738 19.067C112.188 18.3697 112.423 17.556 112.414 16.7265C112.445 16.1871 112.366 15.647 112.182 15.1391C111.998 14.6312 111.712 14.1661 111.342 13.7723C110.972 13.3784 110.526 13.064 110.031 12.8483C109.535 12.6325 109.001 12.5198 108.461 12.5171C107.921 12.5145 107.386 12.6219 106.888 12.8327C106.391 13.0436 105.941 13.3536 105.568 13.7438C105.194 14.134 104.903 14.5962 104.714 15.1022C104.525 15.6082 104.441 16.1475 104.466 16.6872C104.45 17.5233 104.683 18.3454 105.133 19.0497C105.584 19.754 106.234 20.3089 107 20.6443C100.885 21.5636 101.165 28.2111 101.165 28.2111L115.615 28.2727C115.615 28.2727 115.945 21.5636 109.886 20.65Z" fill="#455A64"/>
<path d="M182.756 43.9386H210.764V71.9467H208.085V76.1168L203.915 71.9467H182.756V43.9386Z" fill="white"/>
<path d="M182.755 43.9387C182.755 43.9387 182.755 44.1236 182.755 44.4655C182.755 44.8074 182.755 45.3175 182.755 45.9677C182.755 47.2905 182.755 49.213 182.789 51.6567C182.789 56.5499 182.828 63.5337 182.851 71.9468L182.727 71.8235H203.886H203.948L203.987 71.8683L208.163 76.0384L207.911 76.1393V71.8235H210.713L210.567 71.9692C210.567 61.6841 210.567 52.1107 210.567 43.9443L210.691 44.0676L190.406 44.0059L184.717 43.9723H183.209C182.867 43.9723 182.682 43.9723 182.682 43.9723H183.181H184.667L190.328 43.9387L210.747 43.8154H210.87V43.9387C210.87 52.0883 210.87 61.6616 210.87 71.9636V72.1093H208.067L208.213 71.9636V76.4868L207.967 76.2346L203.796 72.0645L203.897 72.1037H182.739H182.615V71.9804C182.643 63.5337 182.666 56.5219 182.682 51.6119C182.682 49.1793 182.683 47.268 182.711 45.9509C182.711 45.3119 182.711 44.8187 182.711 44.4712C182.75 44.1012 182.755 43.9387 182.755 43.9387Z" fill="#263238"/>
<path d="M203.573 56.2471C203.574 55.2004 203.333 54.1676 202.87 53.2289C202.407 52.2903 201.733 51.4711 200.902 50.8349C200.071 50.1987 199.104 49.7628 198.077 49.5608C197.05 49.3589 195.99 49.3964 194.98 49.6705C193.97 49.9446 193.036 50.4479 192.252 51.1412C191.468 51.8346 190.854 52.6994 190.458 53.6685C190.063 54.6375 189.896 55.6848 189.97 56.7288C190.045 57.7729 190.36 58.7857 190.889 59.6886C191.153 60.1258 191.45 60.4453 191.808 60.9049L195.782 66.1511C195.897 66.3022 196.046 66.4246 196.216 66.5088C196.386 66.5931 196.573 66.637 196.763 66.637C196.953 66.637 197.14 66.5931 197.31 66.5088C197.481 66.4246 197.629 66.3022 197.744 66.1511L201.634 61.0002C201.986 60.581 202.315 60.1431 202.62 59.6886C203.242 58.6482 203.572 57.4592 203.573 56.2471ZM196.763 59.2178C196.17 59.2178 195.59 59.0419 195.097 58.7124C194.604 58.3829 194.22 57.9146 193.993 57.3666C193.766 56.8187 193.706 56.2158 193.822 55.6341C193.938 55.0524 194.223 54.5181 194.643 54.0987C195.062 53.6794 195.596 53.3938 196.178 53.2781C196.76 53.1624 197.363 53.2217 197.911 53.4487C198.459 53.6757 198.927 54.06 199.256 54.5531C199.586 55.0463 199.762 55.626 199.762 56.2191C199.762 57.0144 199.446 57.7771 198.884 58.3395C198.321 58.9018 197.558 59.2178 196.763 59.2178Z" fill="#2A4E96"/>
<path d="M168.556 44.6218C178.565 39.9968 182.93 28.1332 178.305 18.1237C173.68 8.11425 161.817 3.7493 151.807 8.37432C141.798 12.9993 137.433 24.8629 142.058 34.8724C146.683 44.8818 158.547 49.2468 168.556 44.6218Z" fill="white"/>
<path d="M180.144 26.4903C180.144 26.4903 180.144 26.3782 180.11 26.1652C180.077 25.9522 180.077 25.6047 180.049 25.218C180.049 25.0106 180.021 24.7752 180.009 24.5174C179.998 24.2595 179.925 23.9849 179.881 23.6878C179.792 22.9912 179.654 22.3019 179.466 21.6252C178.999 19.7599 178.252 17.976 177.252 16.3341C175.944 14.1607 174.231 12.258 172.207 10.7291C169.752 8.85328 166.889 7.58386 163.85 7.02422C163.023 6.86963 162.186 6.77225 161.345 6.73276C160.913 6.73276 160.482 6.67671 160.05 6.68232L158.739 6.74958C158.514 6.74958 158.296 6.74958 158.072 6.79442L157.41 6.89531C156.973 6.96817 156.519 7.01862 156.076 7.1139C155.175 7.3035 154.288 7.55253 153.419 7.85936C152.534 8.17594 151.671 8.55042 150.835 8.98036C150.415 9.21017 150.017 9.4736 149.602 9.72022C149.182 9.96438 148.782 10.2398 148.403 10.5442C147.616 11.133 146.867 11.7714 146.161 12.4555C145.464 13.1773 144.816 13.945 144.222 14.7535C142.987 16.4076 142.029 18.2514 141.385 20.2127C140.735 22.2353 140.389 24.3435 140.36 26.4679C140.387 28.5925 140.732 30.7011 141.385 32.7231L141.946 34.1916L142.619 35.5928C142.722 35.8275 142.846 36.0525 142.989 36.2654L143.386 36.9212L143.784 37.577L144.238 38.1879C144.836 38.9951 145.486 39.7628 146.183 40.486C146.888 41.1713 147.637 41.8098 148.425 42.3973C148.804 42.7016 149.205 42.977 149.625 43.2212C150.04 43.4678 150.438 43.7313 150.858 43.9611C151.694 44.391 152.557 44.7655 153.442 45.0821C154.306 45.3979 155.189 45.6563 156.087 45.8555C156.536 45.9508 156.984 46.0013 157.421 46.0741L158.083 46.175C158.307 46.175 158.526 46.175 158.75 46.2199L160.061 46.2871C160.493 46.2871 160.924 46.2535 161.356 46.2367C162.197 46.1972 163.034 46.0998 163.861 45.9452C166.9 45.3856 169.763 44.1162 172.219 42.2403C174.245 40.7032 175.958 38.7908 177.263 36.6073C178.264 34.9654 179.01 33.1815 179.477 31.3162C179.665 30.6396 179.803 29.9502 179.892 29.2536C179.937 28.9565 179.993 28.6931 180.021 28.424C180.049 28.155 180.021 27.9364 180.06 27.7234C180.06 27.3143 180.11 27.0004 180.122 26.7762C180.133 26.552 180.155 26.4567 180.155 26.4567C180.155 26.4567 180.155 26.5632 180.155 26.7762C180.155 26.9892 180.155 27.3367 180.122 27.729C180.122 27.9364 180.122 28.1718 180.122 28.4296C180.122 28.6875 180.049 28.9621 180.004 29.2704C179.926 29.9707 179.795 30.664 179.611 31.3442C179.162 33.2274 178.426 35.0307 177.431 36.6914C175.982 39.1417 174.028 41.2555 171.699 42.8926C169.37 44.5296 166.719 45.6523 163.923 46.1862C163.084 46.3418 162.236 46.4429 161.384 46.4889C160.952 46.4889 160.515 46.5449 160.078 46.5393L158.744 46.4721C158.526 46.4721 158.296 46.4721 158.077 46.4328L157.405 46.332C156.956 46.2591 156.502 46.2087 156.054 46.1134C155.142 45.9157 154.245 45.6554 153.369 45.3343C152.47 45.02 151.594 44.6455 150.746 44.2133C150.32 43.9835 149.911 43.7144 149.49 43.4678C149.069 43.2166 148.664 42.9376 148.28 42.6327C147.476 42.038 146.713 41.3921 145.993 40.699C145.286 39.9645 144.627 39.1857 144.02 38.3673L143.56 37.7507L143.151 37.0893L142.708 36.4448C142.566 36.2249 142.44 35.9944 142.333 35.7554C142.109 35.2845 141.879 34.8137 141.649 34.3373C141.419 33.8609 141.285 33.3452 141.088 32.8464C140.422 30.7964 140.07 28.6571 140.046 26.5015C140.076 24.3465 140.427 22.2079 141.088 20.1567C141.746 18.156 142.723 16.2746 143.981 14.5853C144.588 13.7671 145.247 12.9883 145.954 12.2537C146.673 11.5605 147.437 10.9146 148.24 10.32C148.625 10.015 149.029 9.73603 149.451 9.48481C149.871 9.23819 150.281 8.96915 150.707 8.73935C152.384 7.86826 154.169 7.22008 156.015 6.81123C156.463 6.71595 156.917 6.6655 157.365 6.59264L158.032 6.49175C158.256 6.46373 158.481 6.46373 158.705 6.45252L160.033 6.38525C160.476 6.38525 160.913 6.42449 161.345 6.44131C162.197 6.48265 163.045 6.5819 163.884 6.73837C166.683 7.27609 169.336 8.404 171.665 10.047C173.994 11.69 175.946 13.8103 177.392 16.2668C178.387 17.9276 179.122 19.7308 179.572 21.614C179.756 22.296 179.888 22.9912 179.965 23.6934C180.009 23.9961 180.06 24.2539 180.082 24.5286C180.105 24.8032 180.082 25.0218 180.082 25.2292C180.082 25.6384 180.082 25.9579 180.116 26.1821C180.15 26.4062 180.144 26.4903 180.144 26.4903Z" fill="#263238"/>
<path d="M156.531 34.2028C157.166 34.2102 157.791 34.0414 158.336 33.7151C158.583 33.4797 158.706 32.8408 158.706 31.7982V25.431C158.726 25.0275 158.686 24.6234 158.588 24.2315C158.534 24.0558 158.42 23.9041 158.267 23.8021C158.114 23.7 157.931 23.6537 157.748 23.671C157.651 23.6686 157.555 23.6781 157.462 23.699C157.366 23.699 157.097 23.7831 156.649 23.912V23.4973L157.209 23.3067C158.768 22.8022 159.853 22.4286 160.466 22.1857C160.618 22.1105 160.781 22.0577 160.948 22.0287C160.966 22.0944 160.976 22.1623 160.976 22.2305V31.8038C160.976 32.8183 161.099 33.4853 161.346 33.7151C161.837 34.0595 162.428 34.2328 163.027 34.2084V34.5839H156.531V34.2028ZM158.656 16.3397C158.816 16.1764 159.015 16.0553 159.234 15.9874C159.453 15.9195 159.685 15.9067 159.91 15.9503C160.135 15.9939 160.346 16.0924 160.524 16.2371C160.702 16.3819 160.841 16.5683 160.929 16.7799C161.017 16.9915 161.052 17.2215 161.03 17.4497C161.007 17.6778 160.929 17.8969 160.802 18.0875C160.674 18.278 160.502 18.4341 160.299 18.5419C160.097 18.6496 159.871 18.7057 159.642 18.705C159.46 18.7065 159.28 18.6719 159.111 18.6033C158.942 18.5346 158.789 18.4333 158.66 18.3051C158.531 18.1769 158.428 18.0244 158.358 17.8564C158.288 17.6884 158.252 17.5082 158.252 17.3262C158.25 17.144 158.285 16.9633 158.354 16.7948C158.424 16.6264 158.526 16.4735 158.656 16.3453V16.3397Z" fill="#263238"/>
<path d="M146.739 48.5684C146.74 49.1905 146.557 49.799 146.212 50.3168C145.867 50.8346 145.376 51.2385 144.802 51.4774C144.227 51.7162 143.595 51.7793 142.985 51.6586C142.374 51.5379 141.813 51.2389 141.373 50.7994C140.933 50.3598 140.633 49.7996 140.511 49.1895C140.389 48.5794 140.451 47.9468 140.689 47.372C140.927 46.7971 141.33 46.3056 141.847 45.9599C142.364 45.6141 142.972 45.4296 143.595 45.4296C144.428 45.4296 145.227 45.7601 145.816 46.3486C146.406 46.937 146.737 47.7354 146.739 48.5684Z" fill="white"/>
<path d="M146.738 48.5683C146.705 48.5683 146.738 48.2881 146.581 47.8173C146.404 47.1483 146.009 46.5571 145.46 46.1358C145.012 45.8009 144.479 45.5973 143.922 45.5478C143.365 45.4984 142.805 45.6049 142.304 45.8556C141.804 46.1063 141.384 46.4913 141.09 46.9674C140.796 47.4435 140.64 47.992 140.64 48.5515C140.64 49.111 140.796 49.6595 141.09 50.1357C141.384 50.6118 141.804 50.9967 142.304 51.2474C142.805 51.4981 143.365 51.6047 143.922 51.5552C144.479 51.5057 145.012 51.3022 145.46 50.9673C146.009 50.546 146.404 49.9547 146.581 49.2858C146.716 48.815 146.705 48.5347 146.738 48.5347C146.772 48.5347 146.738 48.602 146.738 48.7365C146.741 48.9252 146.721 49.1135 146.677 49.297C146.522 50.0084 146.126 50.6443 145.556 51.0962C145.125 51.4314 144.617 51.6528 144.078 51.74C143.539 51.8272 142.987 51.7773 142.473 51.595C141.863 51.3833 141.332 50.9926 140.948 50.474C140.53 49.9141 140.304 49.2338 140.304 48.5347C140.304 47.8356 140.53 47.1553 140.948 46.5954C141.332 46.0768 141.863 45.6861 142.473 45.4744C142.987 45.2921 143.539 45.2422 144.078 45.3294C144.617 45.4166 145.125 45.638 145.556 45.9732C146.127 46.4242 146.524 47.0605 146.677 47.7724C146.721 47.9559 146.741 48.1442 146.738 48.3329C146.749 48.4899 146.749 48.5683 146.738 48.5683Z" fill="#263238"/>
<path d="M123.791 140.081H94.6453C93.9422 140.081 93.2678 140.36 92.7706 140.857C92.2735 141.355 91.9941 142.029 91.9941 142.732V169.608C91.9941 169.956 92.0627 170.301 92.1959 170.622C92.3292 170.944 92.5245 171.236 92.7706 171.483C93.0168 171.729 93.3091 171.924 93.6307 172.057C93.9524 172.191 94.2971 172.259 94.6453 172.259H118.573L123.365 177.057V172.259H123.791C124.139 172.259 124.484 172.191 124.806 172.057C125.127 171.924 125.42 171.729 125.666 171.483C125.912 171.236 126.107 170.944 126.241 170.622C126.374 170.301 126.442 169.956 126.442 169.608V142.732C126.442 142.029 126.163 141.355 125.666 140.857C125.169 140.36 124.494 140.081 123.791 140.081Z" fill="white"/>
<path d="M123.791 140.081C124.006 140.067 124.221 140.086 124.43 140.137C125.065 140.287 125.622 140.666 125.994 141.202C126.266 141.593 126.428 142.05 126.465 142.525C126.465 143.046 126.465 143.601 126.465 144.206C126.465 145.417 126.465 146.812 126.465 148.371C126.465 151.498 126.465 155.282 126.465 159.62C126.465 161.789 126.465 164.104 126.465 166.531C126.465 167.136 126.465 167.753 126.465 168.375V169.316C126.479 169.644 126.449 169.972 126.375 170.292C126.209 170.947 125.811 171.521 125.254 171.906C124.967 172.099 124.646 172.236 124.307 172.309C123.972 172.366 123.632 172.387 123.293 172.371L123.422 172.242C123.422 173.744 123.422 175.375 123.422 177.04V177.36L123.192 177.135L118.394 172.343L118.495 172.382H94.5503C93.9411 172.36 93.356 172.139 92.8836 171.753C92.4113 171.368 92.0774 170.839 91.9328 170.247C91.8668 169.958 91.8385 169.663 91.8487 169.367V163.515C91.8487 159.104 91.8487 154.85 91.8487 150.798C91.8487 148.769 91.8487 146.794 91.8487 144.873V142.738C91.8525 142.494 91.8844 142.251 91.944 142.015C92.0693 141.549 92.3142 141.124 92.6543 140.781C92.9945 140.439 93.4181 140.192 93.8833 140.064C94.3305 139.967 94.7888 139.934 95.2453 139.963H99.1184H103.933L118.444 140.008L122.368 140.036H123.394C123.623 140.036 123.741 140.036 123.741 140.036H123.394H122.368H118.444L103.933 140.086H95.2846C94.8485 140.06 94.4109 140.094 93.9842 140.187C93.5617 140.305 93.1771 140.531 92.8685 140.842C92.5599 141.154 92.3378 141.54 92.2242 141.964C92.1362 142.414 92.1079 142.874 92.1402 143.332V144.761C92.1402 146.685 92.1402 148.66 92.1402 150.685C92.1402 154.738 92.1402 158.992 92.1402 163.403V168.448C92.1117 169.009 92.1361 169.572 92.213 170.129C92.3404 170.662 92.6393 171.138 93.0636 171.484C93.4878 171.831 94.0141 172.028 94.5615 172.046H98.0422H118.573H118.629L118.669 172.085L123.461 176.883L123.231 176.978C123.231 175.297 123.231 173.683 123.231 172.181V172.057H123.36C123.683 172.071 124.006 172.05 124.324 171.996C124.631 171.934 124.922 171.812 125.182 171.637C125.7 171.293 126.073 170.77 126.23 170.168C126.301 169.869 126.329 169.562 126.314 169.255V166.452C126.314 164.02 126.314 161.71 126.314 159.541C126.314 155.203 126.314 151.42 126.347 148.292C126.347 146.734 126.347 145.338 126.347 144.128C126.347 143.522 126.347 142.956 126.347 142.446C126.308 141.899 126.099 141.378 125.75 140.956C125.4 140.534 124.927 140.232 124.397 140.092C124.195 140.077 123.993 140.073 123.791 140.081Z" fill="#263238"/>
<path d="M116.876 146.532H102.017C99.6425 146.532 97.7178 148.457 97.7178 150.831V161.974C97.7178 164.348 99.6425 166.273 102.017 166.273H116.876C119.25 166.273 121.175 164.348 121.175 161.974V150.831C121.175 148.457 119.25 146.532 116.876 146.532Z" fill="#455A64"/>
<path d="M107.903 160.741C107.764 160.822 107.606 160.864 107.445 160.865C107.284 160.865 107.126 160.823 106.987 160.743C106.848 160.663 106.732 160.547 106.652 160.408C106.571 160.269 106.529 160.111 106.529 159.951V152.855C106.529 152.694 106.571 152.536 106.652 152.397C106.732 152.258 106.848 152.142 106.987 152.062C107.126 151.982 107.284 151.94 107.445 151.94C107.606 151.941 107.764 151.983 107.903 152.064L110.974 153.836L114.046 155.612C114.185 155.691 114.302 155.806 114.383 155.945C114.464 156.084 114.506 156.242 114.506 156.403C114.506 156.563 114.464 156.721 114.383 156.86C114.302 156.999 114.185 157.114 114.046 157.193L110.98 158.97L107.903 160.741Z" fill="white"/>
</svg>
