<svg width="39" height="38" viewBox="0 0 39 38" fill="none" xmlns="http://www.w3.org/2000/svg">
<path d="M27.9389 10.7787V27.2213C32.4794 27.2213 36.1603 23.5405 36.1603 19C36.1603 14.4595 32.4794 10.7787 27.9389 10.7787Z" fill="#ADF2F5"/>
<path d="M33.9872 19C33.9872 14.4595 31.2793 10.7787 27.9389 10.7787C23.7801 10.7787 20.3431 13.8668 19.7945 17.875L18.5163 18.5141C18.1159 18.7143 18.1159 19.2857 18.5163 19.4859L19.7945 20.125C20.3431 24.1332 23.7801 27.2213 27.9389 27.2213C31.2793 27.2213 33.9872 23.5405 33.9872 19Z" fill="#D6F9FA"/>
<path d="M30.6552 21.7163C29.1574 21.7163 27.9389 20.4978 27.9389 19C27.9389 17.5022 29.1574 16.2837 30.6552 16.2837C32.153 16.2837 33.3715 17.5022 33.3715 19C33.3715 20.4978 32.153 21.7163 30.6552 21.7163ZM30.6552 17.3702C29.7565 17.3702 29.0254 18.1013 29.0254 19C29.0254 19.8987 29.7565 20.6298 30.6552 20.6298C31.5539 20.6298 32.285 19.8987 32.285 19C32.285 18.1013 31.5539 17.3702 30.6552 17.3702Z" fill="#20335A"/>
<path d="M26.3092 21.7163C26.1415 21.7163 25.9791 21.6384 25.8745 21.499L23.5929 18.4567V21.173C23.5929 21.4731 23.3496 21.7163 23.0496 21.7163C22.7496 21.7163 22.5063 21.4731 22.5063 21.173V16.827C22.5063 16.5931 22.656 16.3855 22.8778 16.3116C23.0996 16.2376 23.3439 16.3139 23.4842 16.501L25.7659 19.5433V16.827C25.7659 16.5269 26.0091 16.2837 26.3091 16.2837C26.6092 16.2837 26.8524 16.5269 26.8524 16.827V21.173C26.8524 21.4069 26.7028 21.6145 26.481 21.6884C26.4245 21.7072 26.3665 21.7163 26.3092 21.7163Z" fill="#20335A"/>
<path d="M8.85241 32.6539V35.9135C8.85241 36.5135 9.33888 37 9.93893 37C10.539 37 11.0254 36.5135 11.0254 35.9135V32.6539H8.85241Z" fill="#ADF2F5"/>
<path d="M9.93892 11.8652V34.827C12.3392 34.827 14.285 32.8811 14.285 30.4809V11.8652H9.93892Z" fill="#ADF2F5"/>
<path d="M12.112 30.4809L9.93892 11.8652H5.59284V30.4809C5.59284 32.8811 7.53865 34.827 9.93892 34.827C11.1391 34.827 12.112 32.8811 12.112 30.4809Z" fill="#D6F9FA"/>
<path d="M7.76588 16.1026L9.93891 32.6539C11.1391 32.6539 12.112 31.6811 12.112 30.4809V18.2757L7.76588 16.1026Z" fill="#39AA59"/>
<path d="M7.76588 30.4809C7.76588 31.6811 8.73875 32.6539 9.93891 32.6539V16.1026L7.76588 19.7243V30.4809Z" fill="#3DCC4E"/>
<path d="M12.112 18.2756V11.8652H7.76588L9.93891 19C10.4822 18.6378 11.0254 18.2756 12.112 18.2756Z" fill="#D6F9FA"/>
<path d="M7.76588 11.8652V19.7243C8.8524 19.7243 9.39565 19.3622 9.93891 19V11.8652H7.76588Z" fill="white"/>
<path d="M9.93892 1V12.9517H14.285V5.34608C14.285 2.94581 12.3392 1 9.93892 1Z" fill="#2B4478"/>
<path d="M9.93892 1C7.53865 1 5.59284 2.94581 5.59284 5.34608V12.9517H12.112V5.34608C12.112 2.94581 11.1391 1 9.93892 1Z" fill="#4D5CA5"/>
<path d="M15.3715 10.7787H13.1985L15.3715 14.0382H17.0013C17.3013 14.0382 17.5445 13.795 17.5445 13.495V12.9517C17.5445 11.7515 16.5716 10.7787 15.3715 10.7787Z" fill="#4D5CA5"/>
<path d="M13.1985 10.7787H4.50632C3.30615 10.7787 2.33328 11.7515 2.33328 12.9517V13.495C2.33328 13.795 2.57652 14.0382 2.87654 14.0382H15.3715V12.9517C15.3715 11.7515 14.3986 10.7787 13.1985 10.7787Z" fill="#7073D2"/>
</svg>
