<svg width="34" height="34" viewBox="0 0 34 34" fill="none" xmlns="http://www.w3.org/2000/svg">
<path d="M11.5232 19.2776L1.7113 16.597C1.12255 16.4379 0.774105 15.8316 0.933226 15.2426C1.09235 14.6539 1.69863 14.3054 2.28738 14.4645L11.4614 16.9439L11.5232 19.2776Z" fill="#B9B9B9"/>
<path d="M10.6904 16.7351L10.6178 16.9727C10.4277 17.6103 10.3023 18.2651 10.2435 18.928L11.5232 19.2775L11.4614 16.9433L10.6904 16.7351Z" fill="#A8A8A8"/>
<path d="M30.4387 22.0729C30.0161 20.9882 26.216 19.2152 21.3804 17.9083C16.5444 16.6013 12.3706 16.2197 11.459 16.9438L11.278 17.1809L11.062 17.9805C10.2659 20.9254 12.0078 23.9578 14.9527 24.754L23.484 27.0594C26.4296 27.8569 29.4637 26.1146 30.2596 23.1687L30.4861 22.2811L30.4387 22.0729Z" fill="#E06661"/>
<path d="M21.379 17.9183C16.0802 16.4851 11.559 16.1585 11.2804 17.189C11.0016 18.2193 15.0713 20.2161 20.37 21.6493C25.6685 23.0824 30.19 23.409 30.4686 22.3788C30.7472 21.3483 26.6777 19.3514 21.379 17.9183Z" fill="#878787"/>
<path d="M20.8059 20.0413C16.4591 18.8668 12.8387 18.2724 12.7195 18.7141C12.6 19.1559 16.0268 20.4664 20.3735 21.6412C24.72 22.8157 28.3404 23.4101 28.4599 22.9683C28.5791 22.5266 25.1523 21.2161 20.8059 20.0413Z" fill="#6F7478"/>
<path d="M18.7341 24.027C18.6812 24.0267 18.6289 24.0189 18.5782 24.0043C18.2146 23.897 17.8584 23.788 17.5094 23.6772C17.2187 23.5849 17.0579 23.2742 17.1504 22.9835C17.2429 22.6928 17.5533 22.532 17.8441 22.6245C18.1847 22.7327 18.5332 22.8395 18.8897 22.9444C19.1537 23.0213 19.3209 23.281 19.2818 23.5531C19.2427 23.8255 19.0092 24.0275 18.7341 24.027Z" fill="#EE6D67"/>
<path d="M21.9429 24.8561C21.9024 24.8561 21.8617 24.8515 21.822 24.8429C21.465 24.7634 21.1022 24.6779 20.7338 24.5864C20.4425 24.509 20.2672 24.2124 20.3398 23.92C20.4123 23.6274 20.7058 23.4469 20.9995 23.5144C21.3592 23.6034 21.7144 23.6867 22.0623 23.7646C22.3369 23.8259 22.5216 24.084 22.4912 24.3637C22.4604 24.6436 22.2244 24.8556 21.9429 24.8561Z" fill="#EE6D67"/>
<path d="M21.5786 8.47266H23.788V11.2344H21.5786V8.47266Z" fill="#F7BA61"/>
<path d="M21.5786 8.47266H23.788V9.85351H21.5786V8.47266Z" fill="#EA9D2D"/>
<path d="M21.8547 6.26318H23.5117C24.2742 6.26318 24.8926 6.88133 24.8926 7.64403C24.8926 8.40674 24.2742 9.02489 23.5117 9.02489H21.8547C21.092 9.02489 20.4739 8.40674 20.4739 7.64403C20.4739 6.88133 21.092 6.26318 21.8547 6.26318Z" fill="#985713"/>
<path d="M25.9879 12.4075L28.1287 10.6628L29.8734 12.8034L27.7328 14.5484L25.9879 12.4075Z" fill="#AAC16B"/>
<path d="M25.9871 12.4077L27.8555 10.885L29.4192 12.8034L27.5508 14.3263L25.9871 12.4077Z" fill="#A4BB67"/>
<path d="M19.3692 10.6819C19.3692 11.597 18.6273 12.3389 17.7122 12.3389C16.7971 12.3389 16.0552 11.597 16.0552 10.6819C16.0552 9.76684 16.7971 9.0249 17.7122 9.0249C18.6273 9.0249 19.3692 9.76684 19.3692 10.6819Z" fill="#F55648"/>
<path d="M17.6248 9.03369C17.1385 9.05931 16.6887 9.29853 16.3958 9.68771C16.097 10.1993 16.1738 10.8471 16.5843 11.2746C16.9948 11.7021 17.6388 11.8051 18.1623 11.527C18.6855 11.2493 18.9609 10.6575 18.8366 10.0782C18.7122 9.49892 18.2184 9.07226 17.627 9.03369H17.6248Z" fill="#FF5A4B"/>
<path d="M17.1593 13.9961H18.264V15.1008H17.1593V13.9961Z" fill="#FBEDBF"/>
<path d="M22.1303 12.8914H23.235V13.996H22.1303V12.8914Z" fill="#FBEDBF"/>
<path d="M22.1303 15.1008H23.235V16.7579H22.1303V15.1008Z" fill="#FBEDBF"/>
<path d="M28.2061 15.6531H29.3108V16.7578H28.2061V15.6531Z" fill="#FBEDBF"/>
<path d="M28.2061 17.8623H29.3108V18.967H28.2061V17.8623Z" fill="#FBEDBF"/>
<path d="M31.9207 14.3864L31.1396 13.6054C31.5951 13.1488 31.6658 12.4343 31.309 11.8971L31.0711 11.5389L31.9902 10.927L32.2281 11.2838C32.8762 12.2598 32.7476 13.5568 31.9207 14.3864Z" fill="#FBEDBF"/>
<path d="M15.584 22.9792C15.851 22.9792 16.0797 22.7882 16.1274 22.5256C16.1752 22.2629 16.0282 22.0037 15.7784 21.9098C13.6751 21.1172 12.0992 20.3035 11.47 19.6905L10.9403 19.1382C10.922 19.1231 10.9023 19.1093 10.8818 19.0972C10.8486 19.6614 10.9031 20.2272 11.0431 20.7747C12.387 21.6911 13.8488 22.4209 15.389 22.9439C15.4513 22.9671 15.5174 22.9789 15.584 22.9792Z" fill="#EE6D67"/>
</svg>
