<svg width="16" height="16" viewBox="0 0 16 16" fill="none" xmlns="http://www.w3.org/2000/svg">
<path d="M14.6664 4.8266C14.6669 4.73886 14.65 4.65188 14.6169 4.57066C14.5837 4.48943 14.5348 4.41556 14.473 4.35326L11.6464 1.5266C11.5841 1.46481 11.5102 1.41593 11.429 1.38275C11.3477 1.34957 11.2608 1.33276 11.173 1.33326C11.0853 1.33276 10.9983 1.34957 10.9171 1.38275C10.8359 1.41593 10.762 1.46481 10.6997 1.5266L8.81302 3.41326L1.52635 10.6999C1.46456 10.7622 1.41568 10.8361 1.3825 10.9173C1.34933 10.9986 1.33251 11.0855 1.33302 11.1733V13.9999C1.33302 14.1767 1.40326 14.3463 1.52828 14.4713C1.65331 14.5964 1.82287 14.6666 1.99969 14.6666H4.82635C4.91964 14.6717 5.01295 14.6571 5.10023 14.6238C5.18752 14.5905 5.26683 14.5392 5.33302 14.4733L12.5797 7.1866L14.473 5.33326C14.5339 5.26865 14.5834 5.19428 14.6197 5.11326C14.6261 5.06012 14.6261 5.0064 14.6197 4.95326C14.6228 4.92223 14.6228 4.89096 14.6197 4.85993L14.6664 4.8266ZM4.55302 13.3333H2.66635V11.4466L9.28635 4.8266L11.173 6.71326L4.55302 13.3333ZM12.113 5.77326L10.2264 3.8866L11.173 2.9466L13.053 4.8266L12.113 5.77326Z" fill="white"/>
</svg>
