<svg width="16" height="16" viewBox="0 0 16 16" fill="none" xmlns="http://www.w3.org/2000/svg">
<path d="M6.80702 4.14L7.33369 3.60666V6.66666C7.33369 6.84347 7.40393 7.01304 7.52895 7.13807C7.65397 7.26309 7.82354 7.33333 8.00035 7.33333C8.17717 7.33333 8.34673 7.26309 8.47176 7.13807C8.59678 7.01304 8.66702 6.84347 8.66702 6.66666V3.60666L9.19369 4.14C9.25566 4.20248 9.3294 4.25208 9.41064 4.28592C9.49188 4.31977 9.57901 4.3372 9.66702 4.3372C9.75503 4.3372 9.84217 4.31977 9.92341 4.28592C10.0046 4.25208 10.0784 4.20248 10.1404 4.14C10.2028 4.07802 10.2524 4.00429 10.2863 3.92305C10.3201 3.84181 10.3376 3.75467 10.3376 3.66666C10.3376 3.57866 10.3201 3.49152 10.2863 3.41028C10.2524 3.32904 10.2028 3.25531 10.1404 3.19333L8.47369 1.52666C8.41028 1.46597 8.33552 1.41839 8.25369 1.38666C8.09138 1.31998 7.90933 1.31998 7.74702 1.38666C7.66519 1.41839 7.59042 1.46597 7.52702 1.52666L5.86035 3.19333C5.73482 3.31887 5.66429 3.48913 5.66429 3.66666C5.66429 3.8442 5.73482 4.01446 5.86035 4.14C5.98589 4.26553 6.15615 4.33606 6.33369 4.33606C6.51122 4.33606 6.68149 4.26553 6.80702 4.14ZM12.0004 5.04C11.9373 4.97696 11.8625 4.92696 11.7801 4.89285C11.6978 4.85873 11.6095 4.84117 11.5204 4.84117C11.4312 4.84117 11.3429 4.85873 11.2606 4.89285C11.1782 4.92696 11.1034 4.97696 11.0404 5.04C10.9773 5.10303 10.9273 5.17786 10.8932 5.26022C10.8591 5.34258 10.8415 5.43085 10.8415 5.52C10.8415 5.60914 10.8591 5.69741 10.8932 5.77977C10.9273 5.86213 10.9773 5.93696 11.0404 6C11.6419 6.6013 12.0516 7.36748 12.2176 8.20164C12.3837 9.03581 12.2986 9.90047 11.9732 10.6863C11.6478 11.4721 11.0966 12.1438 10.3895 12.6163C9.6823 13.0889 8.85088 13.3411 8.00035 13.3411C7.14983 13.3411 6.3184 13.0889 5.61124 12.6163C4.90407 12.1438 4.35293 11.4721 4.02752 10.6863C3.70211 9.90047 3.61705 9.03581 3.78309 8.20164C3.94914 7.36748 4.35883 6.6013 4.96035 6C5.02339 5.93696 5.07339 5.86213 5.1075 5.77977C5.14162 5.69741 5.15918 5.60914 5.15918 5.52C5.15918 5.43085 5.14162 5.34258 5.1075 5.26022C5.07339 5.17786 5.02339 5.10303 4.96035 5.04C4.89732 4.97696 4.82249 4.92696 4.74013 4.89285C4.65777 4.85873 4.5695 4.84117 4.48035 4.84117C4.39121 4.84117 4.30294 4.85873 4.22058 4.89285C4.13822 4.92696 4.06339 4.97696 4.00035 5.04C3.21496 5.8301 2.68116 6.83511 2.46627 7.92824C2.25138 9.02136 2.36504 10.1536 2.79291 11.1823C3.22078 12.2109 3.94369 13.0897 4.87045 13.708C5.79721 14.3262 6.88631 14.6561 8.00035 14.6561C9.1144 14.6561 10.2035 14.3262 11.1303 13.708C12.057 13.0897 12.7799 12.2109 13.2078 11.1823C13.6357 10.1536 13.7493 9.02136 13.5344 7.92824C13.3196 6.83511 12.7857 5.8301 12.0004 5.04Z" fill="white"/>
</svg>
