<svg width="34" height="34" viewBox="0 0 34 34" fill="none" xmlns="http://www.w3.org/2000/svg">
<path d="M17 0.894775C8.15806 0.894775 0.89476 8.16003 0.89476 17C0.89476 25.842 8.16002 33.1053 17 33.1053C25.842 33.1053 33.1053 25.84 33.1053 17C33.1053 8.15807 25.84 0.894775 17 0.894775ZM26.303 13.3197L23.6336 23.9972C23.4851 24.5913 22.9512 25.0082 22.3388 25.0082H11.6613C11.0488 25.0082 10.5149 24.5913 10.3664 23.9972L7.69706 13.3197C7.53983 12.6907 7.8574 12.0396 8.44991 11.7762C9.04234 11.5129 9.73842 11.7136 10.0999 12.2518C10.4652 12.7887 11.7865 14.3307 12.996 14.3307C13.217 14.3307 13.9018 13.8162 14.6072 12.2258C15.2401 10.799 15.6653 8.96307 15.6653 7.65721C15.6653 6.9201 16.2629 6.32252 17 6.32252C17.7371 6.32252 18.3347 6.9201 18.3347 7.65721C18.3347 8.96307 18.76 10.799 19.3929 12.2258C20.0984 13.8162 20.7831 14.3307 21.0041 14.3307C22.2495 14.3307 23.6052 12.6909 23.9001 12.2518C24.2616 11.7137 24.9578 11.513 25.5501 11.7762C26.1427 12.0396 26.4602 12.6907 26.303 13.3197Z" fill="#F8A81B"/>
</svg>
