<svg width="34" height="34" viewBox="0 0 34 34" fill="none" xmlns="http://www.w3.org/2000/svg">
<path opacity="0.2" d="M24.9119 0.515991H9.52683C3.91494 0.515991 0.735352 3.69558 0.735352 9.30747V24.6926C0.735352 30.2898 3.90028 33.484 9.52683 33.484H24.9119C30.5238 33.484 33.7034 30.2898 33.7034 24.6926V9.30747C33.7034 3.69558 30.5238 0.515991 24.9119 0.515991Z" fill="#E3168F"/>
<path d="M22.6928 18.1676H18.4549V22.3688C18.4549 23.0452 17.9017 23.5936 17.2193 23.5936C16.537 23.5936 15.9838 23.0452 15.9838 22.3688V18.1676H11.7459C11.1094 18.1023 10.6257 17.5706 10.6257 16.9362C10.6257 16.3019 11.1094 15.7702 11.7459 15.7048H15.9705V11.5168C16.0365 10.8859 16.5728 10.4064 17.2127 10.4064C17.8526 10.4064 18.3889 10.8859 18.4549 11.5168V15.7048H22.6928C23.3293 15.7702 23.8129 16.3019 23.8129 16.9362C23.8129 17.5706 23.3293 18.1023 22.6928 18.1676Z" fill="#E3168F"/>
</svg>
