<svg width="34" height="34" viewBox="0 0 34 34" fill="none" xmlns="http://www.w3.org/2000/svg">
<path opacity="0.2" d="M24.4737 0.515747H9.0886C3.4767 0.515747 0.297119 3.69533 0.297119 9.30722V24.6923C0.297119 30.2896 3.46205 33.4838 9.0886 33.4838H24.4737C30.0856 33.4838 33.2652 30.2896 33.2652 24.6923V9.30722C33.2652 3.69533 30.0856 0.515747 24.4737 0.515747Z" fill="#E3168F"/>
<path d="M18.0164 18.1674H22.2543C22.8908 18.102 23.3745 17.5703 23.3745 16.936C23.3745 16.3016 22.8908 15.7699 22.2543 15.7046H18.0164H17.1827L17.3267 15.7046C17.113 15.7046 16.7564 15.7046 16.4595 15.7046L15.5321 15.7046H11.3074C10.6709 15.7699 10.1873 16.3016 10.1873 16.936C10.1873 17.5703 10.6709 18.102 11.3074 18.1674H15.5454H17.1827H18.0164Z" fill="#E3168F"/>
</svg>
