<svg width="16" height="16" viewBox="0 0 16 16" fill="none" xmlns="http://www.w3.org/2000/svg">
<path d="M13.0747 3.9225H10.4597V3.26875C10.4597 2.74859 10.2531 2.24974 9.88525 1.88193C9.51744 1.51413 9.01859 1.3075 8.49844 1.3075H7.19094C6.67078 1.3075 6.17193 1.51413 5.80412 1.88193C5.43632 2.24974 5.22969 2.74859 5.22969 3.26875V3.9225H2.61469C2.4413 3.9225 2.27502 3.99137 2.15242 4.11397C2.02981 4.23658 1.96094 4.40286 1.96094 4.57625C1.96094 4.74963 2.02981 4.91591 2.15242 5.03852C2.27502 5.16112 2.4413 5.23 2.61469 5.23H3.26844V12.4212C3.26844 12.9414 3.47507 13.4403 3.84287 13.8081C4.21068 14.1759 4.70953 14.3825 5.22969 14.3825H10.4597C10.9798 14.3825 11.4787 14.1759 11.8465 13.8081C12.2143 13.4403 12.4209 12.9414 12.4209 12.4212V5.23H13.0747C13.2481 5.23 13.4144 5.16112 13.537 5.03852C13.6596 4.91591 13.7284 4.74963 13.7284 4.57625C13.7284 4.40286 13.6596 4.23658 13.537 4.11397C13.4144 3.99137 13.2481 3.9225 13.0747 3.9225ZM6.53719 3.26875C6.53719 3.09536 6.60606 2.92908 6.72867 2.80647C6.85127 2.68387 7.01755 2.615 7.19094 2.615H8.49844C8.67182 2.615 8.83811 2.68387 8.96071 2.80647C9.08331 2.92908 9.15219 3.09536 9.15219 3.26875V3.9225H6.53719V3.26875ZM11.1134 12.4212C11.1134 12.5946 11.0446 12.7609 10.922 12.8835C10.7994 13.0061 10.6331 13.075 10.4597 13.075H5.22969C5.0563 13.075 4.89002 13.0061 4.76742 12.8835C4.64481 12.7609 4.57594 12.5946 4.57594 12.4212V5.23H11.1134V12.4212Z" fill="#E3168F"/>
</svg>
