<svg width="21" height="17" viewBox="0 0 21 17" fill="none" xmlns="http://www.w3.org/2000/svg">
<path d="M20.1173 1.45655C20.1174 1.302 20.0765 1.15018 19.9989 1.01655C19.9212 0.882929 19.8095 0.772273 19.6752 0.695855C19.5409 0.619436 19.3887 0.579986 19.2341 0.581521C19.0796 0.583056 18.9282 0.625523 18.7954 0.704595C18.2833 1.00943 17.7319 1.24288 17.1565 1.39847C16.3349 0.693423 15.287 0.30761 14.2043 0.311553C13.0165 0.312921 11.8758 0.775822 11.023 1.60251C10.1701 2.4292 9.67194 3.55497 9.63361 4.7421C7.29209 4.3687 5.16991 3.14656 3.67175 1.30872C3.58148 1.1992 3.4662 1.113 3.33563 1.05737C3.20505 1.00175 3.06302 0.978345 2.92151 0.989127C2.78007 1.00077 2.6436 1.0467 2.5239 1.12292C2.4042 1.19915 2.30486 1.30339 2.23449 1.42663C1.87358 2.05646 1.66629 2.76254 1.62947 3.48752C1.59265 4.2125 1.72733 4.93595 2.02257 5.59911L2.02087 5.60081C1.88817 5.68254 1.77866 5.79695 1.70281 5.93309C1.62696 6.06924 1.5873 6.22256 1.58764 6.37841C1.58603 6.50697 1.59374 6.63548 1.61071 6.76293C1.70008 7.86391 2.18802 8.89448 2.98303 9.66137C2.92909 9.76411 2.89618 9.87658 2.8862 9.99219C2.87622 10.1078 2.88939 10.2242 2.92492 10.3347C3.27152 11.4146 4.0086 12.3263 4.99194 12.8913C3.9929 13.2777 2.91418 13.4124 1.85082 13.2836C1.65401 13.2589 1.45465 13.3018 1.28544 13.4053C1.11623 13.5088 0.987219 13.6667 0.919572 13.8532C0.851924 14.0397 0.849655 14.2436 0.913137 14.4315C0.976618 14.6194 1.10208 14.7802 1.26895 14.8874C3.09778 16.0653 5.22716 16.6916 7.40249 16.6913C9.86935 16.719 12.2762 15.9308 14.2487 14.4491C16.2212 12.9674 17.6487 10.8753 18.3092 8.49838C18.6181 7.46293 18.7759 6.38829 18.7775 5.30774C18.7775 5.25049 18.7775 5.19153 18.7766 5.13258C19.2335 4.63989 19.5874 4.06097 19.8176 3.42974C20.0478 2.79851 20.1497 2.12767 20.1173 1.45655ZM17.224 4.26697C17.0795 4.4379 17.0063 4.65792 17.0198 4.88136C17.0283 5.02573 17.0275 5.17098 17.0275 5.30774C17.0257 6.22084 16.8918 7.12888 16.6301 8.00367C16.0907 10.0261 14.8881 11.8091 13.2151 13.0669C11.542 14.3248 9.49522 14.9848 7.40249 14.9413C6.65076 14.9415 5.90162 14.8532 5.17056 14.6781C6.1028 14.3777 6.97445 13.9145 7.74514 13.3101C7.88709 13.1983 7.99098 13.0453 8.04255 12.8722C8.09411 12.699 8.09084 12.5142 8.03317 12.343C7.9755 12.1718 7.86627 12.0226 7.72045 11.9159C7.57464 11.8092 7.39938 11.7503 7.21874 11.7472C6.49147 11.7359 5.79698 11.4427 5.28161 10.9295C5.41235 10.9047 5.54224 10.8739 5.67126 10.8372C5.86027 10.7834 6.02568 10.6675 6.14084 10.5083C6.25601 10.349 6.31423 10.1557 6.30614 9.95934C6.29805 9.76299 6.22411 9.57508 6.09624 9.42586C5.96836 9.27664 5.79399 9.17479 5.60119 9.13673C5.17904 9.05336 4.7818 8.87375 4.44034 8.61189C4.09889 8.35002 3.82243 8.01293 3.63244 7.62683C3.79058 7.64842 3.94973 7.66182 4.10925 7.667C4.29876 7.66986 4.48427 7.61237 4.63895 7.50285C4.79364 7.39333 4.90948 7.23744 4.96972 7.05774C5.02745 6.87641 5.02448 6.6812 4.96126 6.50171C4.89804 6.32222 4.77801 6.16823 4.61938 6.06311C4.23451 5.80671 3.91925 5.45886 3.70182 5.0507C3.48439 4.64254 3.3716 4.18683 3.37353 3.72438C3.37353 3.66628 3.37524 3.60817 3.37866 3.55092C5.33976 5.37989 7.88344 6.45806 10.5615 6.59547C10.6967 6.6008 10.8313 6.57534 10.9552 6.52101C11.0791 6.46668 11.1891 6.38491 11.2767 6.28187C11.3635 6.17784 11.425 6.05508 11.4563 5.92326C11.4875 5.79144 11.4878 5.65416 11.457 5.52223C11.407 5.31342 11.3814 5.09949 11.381 4.88478C11.3817 4.13624 11.6795 3.4186 12.2087 2.88931C12.738 2.36002 13.4557 2.06232 14.2042 2.06153C14.5893 2.0605 14.9705 2.13931 15.3236 2.29301C15.6767 2.4467 15.9942 2.67193 16.2558 2.95447C16.3568 3.06305 16.4838 3.14399 16.6248 3.18962C16.7659 3.23524 16.9162 3.24402 17.0616 3.21513C17.4211 3.14518 17.7753 3.05097 18.122 2.93315C17.8856 3.417 17.5834 3.86585 17.224 4.26697Z" fill="#00A2F5"/>
</svg>
