<svg width="8" height="10" viewBox="0 0 8 10" fill="none" xmlns="http://www.w3.org/2000/svg">
<path d="M7.94667 4.74646C7.91494 4.66463 7.86736 4.58987 7.80666 4.52646L4.47333 1.19313C4.41117 1.13097 4.33738 1.08167 4.25617 1.04803C4.17495 1.01438 4.08791 0.99707 4 0.99707C3.82246 0.99707 3.6522 1.0676 3.52667 1.19313C3.46451 1.25529 3.4152 1.32908 3.38156 1.4103C3.34792 1.49151 3.33061 1.57856 3.33061 1.66646C3.33061 1.844 3.40113 2.01426 3.52667 2.1398L5.72667 4.33313H0.666667C0.489856 4.33313 0.320286 4.40337 0.195262 4.52839C0.070238 4.65342 0 4.82299 0 4.9998C0 5.17661 0.070238 5.34618 0.195262 5.4712C0.320286 5.59623 0.489856 5.66646 0.666667 5.66646H5.72667L3.52667 7.8598C3.46418 7.92177 3.41458 7.99551 3.38074 8.07675C3.34689 8.15799 3.32947 8.24512 3.32947 8.33313C3.32947 8.42114 3.34689 8.50828 3.38074 8.58951C3.41458 8.67075 3.46418 8.74449 3.52667 8.80646C3.58864 8.86895 3.66238 8.91855 3.74361 8.95239C3.82485 8.98624 3.91199 9.00366 4 9.00366C4.08801 9.00366 4.17514 8.98624 4.25638 8.95239C4.33762 8.91855 4.41136 8.86895 4.47333 8.80646L7.80666 5.47313C7.86736 5.40973 7.91494 5.33497 7.94667 5.25313C8.01334 5.09082 8.01334 4.90877 7.94667 4.74646Z" fill="white"/>
</svg>
